%TF.GenerationSoftware,KiCad,Pcbnew,(5.1.6)-1*%
%TF.CreationDate,2020-07-22T22:47:16+02:00*%
%TF.ProjectId,circuit,63697263-7569-4742-9e6b-696361645f70,rev?*%
%TF.SameCoordinates,Original*%
%TF.FileFunction,Legend,Bot*%
%TF.FilePolarity,Positive*%
%FSLAX46Y46*%
G04 Gerber Fmt 4.6, Leading zero omitted, Abs format (unit mm)*
G04 Created by KiCad (PCBNEW (5.1.6)-1) date 2020-07-22 22:47:16*
%MOMM*%
%LPD*%
G01*
G04 APERTURE LIST*
%ADD10C,0.300000*%
%ADD11C,0.700000*%
G04 APERTURE END LIST*
D10*
X178368000Y-110082142D02*
X178368000Y-107082142D01*
X177225142Y-107082142D01*
X176939428Y-107225000D01*
X176796571Y-107367857D01*
X176653714Y-107653571D01*
X176653714Y-108082142D01*
X176796571Y-108367857D01*
X176939428Y-108510714D01*
X177225142Y-108653571D01*
X178368000Y-108653571D01*
X175368000Y-110082142D02*
X175368000Y-108082142D01*
X175368000Y-108653571D02*
X175225142Y-108367857D01*
X175082285Y-108225000D01*
X174796571Y-108082142D01*
X174510857Y-108082142D01*
X173082285Y-110082142D02*
X173368000Y-109939285D01*
X173510857Y-109796428D01*
X173653714Y-109510714D01*
X173653714Y-108653571D01*
X173510857Y-108367857D01*
X173368000Y-108225000D01*
X173082285Y-108082142D01*
X172653714Y-108082142D01*
X172368000Y-108225000D01*
X172225142Y-108367857D01*
X172082285Y-108653571D01*
X172082285Y-109510714D01*
X172225142Y-109796428D01*
X172368000Y-109939285D01*
X172653714Y-110082142D01*
X173082285Y-110082142D01*
X170796571Y-108082142D02*
X170796571Y-110653571D01*
X170939428Y-110939285D01*
X171225142Y-111082142D01*
X171368000Y-111082142D01*
X170796571Y-107082142D02*
X170939428Y-107225000D01*
X170796571Y-107367857D01*
X170653714Y-107225000D01*
X170796571Y-107082142D01*
X170796571Y-107367857D01*
X168225142Y-109939285D02*
X168510857Y-110082142D01*
X169082285Y-110082142D01*
X169368000Y-109939285D01*
X169510857Y-109653571D01*
X169510857Y-108510714D01*
X169368000Y-108225000D01*
X169082285Y-108082142D01*
X168510857Y-108082142D01*
X168225142Y-108225000D01*
X168082285Y-108510714D01*
X168082285Y-108796428D01*
X169510857Y-109082142D01*
X167225142Y-108082142D02*
X166082285Y-108082142D01*
X166796571Y-107082142D02*
X166796571Y-109653571D01*
X166653714Y-109939285D01*
X166368000Y-110082142D01*
X166082285Y-110082142D01*
X162796571Y-110082142D02*
X162796571Y-107082142D01*
X161653714Y-107082142D01*
X161368000Y-107225000D01*
X161225142Y-107367857D01*
X161082285Y-107653571D01*
X161082285Y-108082142D01*
X161225142Y-108367857D01*
X161368000Y-108510714D01*
X161653714Y-108653571D01*
X162796571Y-108653571D01*
X158653714Y-109939285D02*
X158939428Y-110082142D01*
X159510857Y-110082142D01*
X159796571Y-109939285D01*
X159939428Y-109653571D01*
X159939428Y-108510714D01*
X159796571Y-108225000D01*
X159510857Y-108082142D01*
X158939428Y-108082142D01*
X158653714Y-108225000D01*
X158510857Y-108510714D01*
X158510857Y-108796428D01*
X159939428Y-109082142D01*
X157225142Y-110082142D02*
X157225142Y-108082142D01*
X157225142Y-108653571D02*
X157082285Y-108367857D01*
X156939428Y-108225000D01*
X156653714Y-108082142D01*
X156368000Y-108082142D01*
X155510857Y-109939285D02*
X155225142Y-110082142D01*
X154653714Y-110082142D01*
X154368000Y-109939285D01*
X154225142Y-109653571D01*
X154225142Y-109510714D01*
X154368000Y-109225000D01*
X154653714Y-109082142D01*
X155082285Y-109082142D01*
X155368000Y-108939285D01*
X155510857Y-108653571D01*
X155510857Y-108510714D01*
X155368000Y-108225000D01*
X155082285Y-108082142D01*
X154653714Y-108082142D01*
X154368000Y-108225000D01*
X152510857Y-110082142D02*
X152796571Y-109939285D01*
X152939428Y-109796428D01*
X153082285Y-109510714D01*
X153082285Y-108653571D01*
X152939428Y-108367857D01*
X152796571Y-108225000D01*
X152510857Y-108082142D01*
X152082285Y-108082142D01*
X151796571Y-108225000D01*
X151653714Y-108367857D01*
X151510857Y-108653571D01*
X151510857Y-109510714D01*
X151653714Y-109796428D01*
X151796571Y-109939285D01*
X152082285Y-110082142D01*
X152510857Y-110082142D01*
X148082285Y-106939285D02*
X150653714Y-110796428D01*
X144939428Y-106939285D02*
X147510857Y-110796428D01*
X141796571Y-109225000D02*
X140368000Y-109225000D01*
X142082285Y-110082142D02*
X141082285Y-107082142D01*
X140082285Y-110082142D01*
X139082285Y-109796428D02*
X138939428Y-109939285D01*
X139082285Y-110082142D01*
X139225142Y-109939285D01*
X139082285Y-109796428D01*
X139082285Y-110082142D01*
X135796571Y-107082142D02*
X134796571Y-110082142D01*
X133796571Y-107082142D01*
X132939428Y-109225000D02*
X131510857Y-109225000D01*
X133225142Y-110082142D02*
X132225142Y-107082142D01*
X131225142Y-110082142D01*
X128510857Y-110082142D02*
X129510857Y-108653571D01*
X130225142Y-110082142D02*
X130225142Y-107082142D01*
X129082285Y-107082142D01*
X128796571Y-107225000D01*
X128653714Y-107367857D01*
X128510857Y-107653571D01*
X128510857Y-108082142D01*
X128653714Y-108367857D01*
X128796571Y-108510714D01*
X129082285Y-108653571D01*
X130225142Y-108653571D01*
X126653714Y-107082142D02*
X126082285Y-107082142D01*
X125796571Y-107225000D01*
X125510857Y-107510714D01*
X125368000Y-108082142D01*
X125368000Y-109082142D01*
X125510857Y-109653571D01*
X125796571Y-109939285D01*
X126082285Y-110082142D01*
X126653714Y-110082142D01*
X126939428Y-109939285D01*
X127225142Y-109653571D01*
X127368000Y-109082142D01*
X127368000Y-108082142D01*
X127225142Y-107510714D01*
X126939428Y-107225000D01*
X126653714Y-107082142D01*
X124082285Y-110082142D02*
X124082285Y-107082142D01*
X122368000Y-110082142D01*
X122368000Y-107082142D01*
X172796571Y-112882142D02*
X171653714Y-112882142D01*
X172368000Y-114882142D02*
X172368000Y-112310714D01*
X172225142Y-112025000D01*
X171939428Y-111882142D01*
X171653714Y-111882142D01*
X169368000Y-114882142D02*
X169368000Y-113310714D01*
X169510857Y-113025000D01*
X169796571Y-112882142D01*
X170368000Y-112882142D01*
X170653714Y-113025000D01*
X169368000Y-114739285D02*
X169653714Y-114882142D01*
X170368000Y-114882142D01*
X170653714Y-114739285D01*
X170796571Y-114453571D01*
X170796571Y-114167857D01*
X170653714Y-113882142D01*
X170368000Y-113739285D01*
X169653714Y-113739285D01*
X169368000Y-113596428D01*
X167939428Y-114882142D02*
X167939428Y-112882142D01*
X167939428Y-111882142D02*
X168082285Y-112025000D01*
X167939428Y-112167857D01*
X167796571Y-112025000D01*
X167939428Y-111882142D01*
X167939428Y-112167857D01*
X166939428Y-112882142D02*
X165796571Y-112882142D01*
X166510857Y-111882142D02*
X166510857Y-114453571D01*
X166368000Y-114739285D01*
X166082285Y-114882142D01*
X165796571Y-114882142D01*
X162082285Y-114882142D02*
X162368000Y-114739285D01*
X162510857Y-114453571D01*
X162510857Y-111882142D01*
X159796571Y-114739285D02*
X160082285Y-114882142D01*
X160653714Y-114882142D01*
X160939428Y-114739285D01*
X161082285Y-114453571D01*
X161082285Y-113310714D01*
X160939428Y-113025000D01*
X160653714Y-112882142D01*
X160082285Y-112882142D01*
X159796571Y-113025000D01*
X159653714Y-113310714D01*
X159653714Y-113596428D01*
X161082285Y-113882142D01*
X156225142Y-112167857D02*
X156082285Y-112025000D01*
X155796571Y-111882142D01*
X155082285Y-111882142D01*
X154796571Y-112025000D01*
X154653714Y-112167857D01*
X154510857Y-112453571D01*
X154510857Y-112739285D01*
X154653714Y-113167857D01*
X156368000Y-114882142D01*
X154510857Y-114882142D01*
X153368000Y-112167857D02*
X153225142Y-112025000D01*
X152939428Y-111882142D01*
X152225142Y-111882142D01*
X151939428Y-112025000D01*
X151796571Y-112167857D01*
X151653714Y-112453571D01*
X151653714Y-112739285D01*
X151796571Y-113167857D01*
X153510857Y-114882142D01*
X151653714Y-114882142D01*
X148225142Y-111739285D02*
X150796571Y-115596428D01*
X146653714Y-111882142D02*
X146368000Y-111882142D01*
X146082285Y-112025000D01*
X145939428Y-112167857D01*
X145796571Y-112453571D01*
X145653714Y-113025000D01*
X145653714Y-113739285D01*
X145796571Y-114310714D01*
X145939428Y-114596428D01*
X146082285Y-114739285D01*
X146368000Y-114882142D01*
X146653714Y-114882142D01*
X146939428Y-114739285D01*
X147082285Y-114596428D01*
X147225142Y-114310714D01*
X147368000Y-113739285D01*
X147368000Y-113025000D01*
X147225142Y-112453571D01*
X147082285Y-112167857D01*
X146939428Y-112025000D01*
X146653714Y-111882142D01*
X144653714Y-111882142D02*
X142653714Y-111882142D01*
X143939428Y-114882142D01*
X139368000Y-111739285D02*
X141939428Y-115596428D01*
X138510857Y-112167857D02*
X138368000Y-112025000D01*
X138082285Y-111882142D01*
X137368000Y-111882142D01*
X137082285Y-112025000D01*
X136939428Y-112167857D01*
X136796571Y-112453571D01*
X136796571Y-112739285D01*
X136939428Y-113167857D01*
X138653714Y-114882142D01*
X136796571Y-114882142D01*
X134939428Y-111882142D02*
X134653714Y-111882142D01*
X134368000Y-112025000D01*
X134225142Y-112167857D01*
X134082285Y-112453571D01*
X133939428Y-113025000D01*
X133939428Y-113739285D01*
X134082285Y-114310714D01*
X134225142Y-114596428D01*
X134368000Y-114739285D01*
X134653714Y-114882142D01*
X134939428Y-114882142D01*
X135225142Y-114739285D01*
X135368000Y-114596428D01*
X135510857Y-114310714D01*
X135653714Y-113739285D01*
X135653714Y-113025000D01*
X135510857Y-112453571D01*
X135368000Y-112167857D01*
X135225142Y-112025000D01*
X134939428Y-111882142D01*
X132796571Y-112167857D02*
X132653714Y-112025000D01*
X132367999Y-111882142D01*
X131653714Y-111882142D01*
X131367999Y-112025000D01*
X131225142Y-112167857D01*
X131082285Y-112453571D01*
X131082285Y-112739285D01*
X131225142Y-113167857D01*
X132939428Y-114882142D01*
X131082285Y-114882142D01*
X129225142Y-111882142D02*
X128939428Y-111882142D01*
X128653714Y-112025000D01*
X128510857Y-112167857D01*
X128367999Y-112453571D01*
X128225142Y-113025000D01*
X128225142Y-113739285D01*
X128367999Y-114310714D01*
X128510857Y-114596428D01*
X128653714Y-114739285D01*
X128939428Y-114882142D01*
X129225142Y-114882142D01*
X129510857Y-114739285D01*
X129653714Y-114596428D01*
X129796571Y-114310714D01*
X129939428Y-113739285D01*
X129939428Y-113025000D01*
X129796571Y-112453571D01*
X129653714Y-112167857D01*
X129510857Y-112025000D01*
X129225142Y-111882142D01*
D11*
X161199904Y-91876904D02*
X158342761Y-91876904D01*
X159771333Y-96876904D02*
X159771333Y-91876904D01*
X155723714Y-91876904D02*
X154771333Y-91876904D01*
X154295142Y-92115000D01*
X153818952Y-92591190D01*
X153580857Y-93543571D01*
X153580857Y-95210238D01*
X153818952Y-96162619D01*
X154295142Y-96638809D01*
X154771333Y-96876904D01*
X155723714Y-96876904D01*
X156199904Y-96638809D01*
X156676095Y-96162619D01*
X156914190Y-95210238D01*
X156914190Y-93543571D01*
X156676095Y-92591190D01*
X156199904Y-92115000D01*
X155723714Y-91876904D01*
X148580857Y-96876904D02*
X150247523Y-94495952D01*
X151438000Y-96876904D02*
X151438000Y-91876904D01*
X149533238Y-91876904D01*
X149057047Y-92115000D01*
X148818952Y-92353095D01*
X148580857Y-92829285D01*
X148580857Y-93543571D01*
X148818952Y-94019761D01*
X149057047Y-94257857D01*
X149533238Y-94495952D01*
X151438000Y-94495952D01*
X146438000Y-96876904D02*
X146438000Y-91876904D01*
X144533238Y-91876904D01*
X144057047Y-92115000D01*
X143818952Y-92353095D01*
X143580857Y-92829285D01*
X143580857Y-93543571D01*
X143818952Y-94019761D01*
X144057047Y-94257857D01*
X144533238Y-94495952D01*
X146438000Y-94495952D01*
X141438000Y-91876904D02*
X141438000Y-95924523D01*
X141199904Y-96400714D01*
X140961809Y-96638809D01*
X140485619Y-96876904D01*
X139533238Y-96876904D01*
X139057047Y-96638809D01*
X138818952Y-96400714D01*
X138580857Y-95924523D01*
X138580857Y-91876904D01*
X136914190Y-91876904D02*
X134057047Y-91876904D01*
X135485619Y-96876904D02*
X135485619Y-91876904D01*
X132390380Y-94257857D02*
X130723714Y-94257857D01*
X130009428Y-96876904D02*
X132390380Y-96876904D01*
X132390380Y-91876904D01*
X130009428Y-91876904D01*
X124771333Y-91876904D02*
X123104666Y-96876904D01*
X121438000Y-91876904D01*
X117152285Y-96876904D02*
X120009428Y-96876904D01*
X118580857Y-96876904D02*
X118580857Y-91876904D01*
X119057047Y-92591190D01*
X119533238Y-93067380D01*
X120009428Y-93305476D01*
M02*
