%TF.GenerationSoftware,KiCad,Pcbnew,(5.1.6)-1*%
%TF.CreationDate,2020-07-22T23:00:20+02:00*%
%TF.ProjectId,circuit,63697263-7569-4742-9e6b-696361645f70,rev?*%
%TF.SameCoordinates,Original*%
%TF.FileFunction,Soldermask,Bot*%
%TF.FilePolarity,Negative*%
%FSLAX46Y46*%
G04 Gerber Fmt 4.6, Leading zero omitted, Abs format (unit mm)*
G04 Created by KiCad (PCBNEW (5.1.6)-1) date 2020-07-22 23:00:20*
%MOMM*%
%LPD*%
G01*
G04 APERTURE LIST*
%ADD10O,1.600000X1.600000*%
%ADD11R,1.600000X1.600000*%
%ADD12C,1.600000*%
%ADD13R,1.700000X1.700000*%
%ADD14O,1.700000X1.700000*%
%ADD15O,1.727200X2.032000*%
%ADD16C,4.064000*%
G04 APERTURE END LIST*
D10*
%TO.C,READMUX1*%
X173482000Y-80137000D03*
X165862000Y-97917000D03*
X173482000Y-82677000D03*
X165862000Y-95377000D03*
X173482000Y-85217000D03*
X165862000Y-92837000D03*
X173482000Y-87757000D03*
X165862000Y-90297000D03*
X173482000Y-90297000D03*
X165862000Y-87757000D03*
X173482000Y-92837000D03*
X165862000Y-85217000D03*
X173482000Y-95377000D03*
X165862000Y-82677000D03*
X173482000Y-97917000D03*
D11*
X165862000Y-80137000D03*
%TD*%
D12*
%TO.C,R8W1*%
X112268000Y-89535000D03*
D10*
X112268000Y-99695000D03*
%TD*%
D11*
%TO.C,WRITEMUX1*%
X132588000Y-79375000D03*
D10*
X114808000Y-86995000D03*
X130048000Y-79375000D03*
X117348000Y-86995000D03*
X127508000Y-79375000D03*
X119888000Y-86995000D03*
X124968000Y-79375000D03*
X122428000Y-86995000D03*
X122428000Y-79375000D03*
X124968000Y-86995000D03*
X119888000Y-79375000D03*
X127508000Y-86995000D03*
X117348000Y-79375000D03*
X130048000Y-86995000D03*
X114808000Y-79375000D03*
X132588000Y-86995000D03*
%TD*%
D13*
%TO.C,P10*%
X132588000Y-102870000D03*
D14*
X130048000Y-102870000D03*
X127508000Y-102870000D03*
X124968000Y-102870000D03*
X122428000Y-102870000D03*
X119888000Y-102870000D03*
X117348000Y-102870000D03*
X114808000Y-102870000D03*
%TD*%
D15*
%TO.C,P1*%
X138938000Y-123825000D03*
X141478000Y-123825000D03*
X144018000Y-123825000D03*
X146558000Y-123825000D03*
X149098000Y-123825000D03*
X151638000Y-123825000D03*
X154178000Y-123825000D03*
X156718000Y-123825000D03*
%TD*%
%TO.C,P2*%
X161798000Y-123825000D03*
X164338000Y-123825000D03*
X166878000Y-123825000D03*
X169418000Y-123825000D03*
X171958000Y-123825000D03*
X174498000Y-123825000D03*
%TD*%
%TO.C,P3*%
X129794000Y-75565000D03*
X132334000Y-75565000D03*
X134874000Y-75565000D03*
X137414000Y-75565000D03*
X139954000Y-75565000D03*
X142494000Y-75565000D03*
X145034000Y-75565000D03*
X147574000Y-75565000D03*
X150114000Y-75565000D03*
X152654000Y-75565000D03*
%TD*%
%TO.C,P4*%
X156718000Y-75565000D03*
X159258000Y-75565000D03*
X161798000Y-75565000D03*
X164338000Y-75565000D03*
X166878000Y-75565000D03*
X169418000Y-75565000D03*
X171958000Y-75565000D03*
X174498000Y-75565000D03*
%TD*%
D16*
%TO.C,P6*%
X177038000Y-118745000D03*
%TD*%
%TO.C,P7*%
X126238000Y-75565000D03*
%TD*%
%TO.C,P8*%
X177038000Y-90805000D03*
%TD*%
D13*
%TO.C,P9*%
X173228000Y-119380000D03*
D14*
X170688000Y-119380000D03*
X168148000Y-119380000D03*
X165608000Y-119380000D03*
X163068000Y-119380000D03*
X160528000Y-119380000D03*
X157988000Y-119380000D03*
X155448000Y-119380000D03*
%TD*%
%TO.C,P11*%
X142748000Y-102870000D03*
X145288000Y-102870000D03*
X147828000Y-102870000D03*
X150368000Y-102870000D03*
X152908000Y-102870000D03*
X155448000Y-102870000D03*
X157988000Y-102870000D03*
D13*
X160528000Y-102870000D03*
%TD*%
%TO.C,P12*%
X150114000Y-119253000D03*
D14*
X147574000Y-119253000D03*
X145034000Y-119253000D03*
X142494000Y-119253000D03*
X139954000Y-119253000D03*
X137414000Y-119253000D03*
X134874000Y-119253000D03*
X132334000Y-119253000D03*
%TD*%
D12*
%TO.C,R1R1*%
X174498000Y-106045000D03*
D10*
X174498000Y-116205000D03*
%TD*%
D12*
%TO.C,R1W1*%
X134493000Y-89535000D03*
D10*
X134493000Y-99695000D03*
%TD*%
D12*
%TO.C,R1W2*%
X163068000Y-89535000D03*
D10*
X163068000Y-99695000D03*
%TD*%
%TO.C,R1W3*%
X148463000Y-116205000D03*
D12*
X148463000Y-106045000D03*
%TD*%
D10*
%TO.C,R2R1*%
X171323000Y-116205000D03*
D12*
X171323000Y-106045000D03*
%TD*%
D10*
%TO.C,R2W1*%
X131318000Y-99695000D03*
D12*
X131318000Y-89535000D03*
%TD*%
D10*
%TO.C,R2W2*%
X159893000Y-99695000D03*
D12*
X159893000Y-89535000D03*
%TD*%
%TO.C,R2W3*%
X145288000Y-106045000D03*
D10*
X145288000Y-116205000D03*
%TD*%
D12*
%TO.C,R3R1*%
X168148000Y-106045000D03*
D10*
X168148000Y-116205000D03*
%TD*%
D12*
%TO.C,R3W1*%
X128143000Y-89535000D03*
D10*
X128143000Y-99695000D03*
%TD*%
D12*
%TO.C,R3W2*%
X156718000Y-89535000D03*
D10*
X156718000Y-99695000D03*
%TD*%
%TO.C,R3W3*%
X142113000Y-116205000D03*
D12*
X142113000Y-106045000D03*
%TD*%
D10*
%TO.C,R4R1*%
X164973000Y-116205000D03*
D12*
X164973000Y-106045000D03*
%TD*%
D10*
%TO.C,R4W1*%
X124968000Y-89535000D03*
D12*
X124968000Y-99695000D03*
%TD*%
D10*
%TO.C,R4W2*%
X153543000Y-99695000D03*
D12*
X153543000Y-89535000D03*
%TD*%
%TO.C,R4W3*%
X138938000Y-106045000D03*
D10*
X138938000Y-116205000D03*
%TD*%
D12*
%TO.C,R5R1*%
X161798000Y-106045000D03*
D10*
X161798000Y-116205000D03*
%TD*%
D12*
%TO.C,R5W1*%
X121793000Y-89535000D03*
D10*
X121793000Y-99695000D03*
%TD*%
%TO.C,R5W2*%
X150368000Y-99695000D03*
D12*
X150368000Y-89535000D03*
%TD*%
%TO.C,R5W3*%
X135763000Y-106045000D03*
D10*
X135763000Y-116205000D03*
%TD*%
%TO.C,R6R1*%
X158623000Y-116205000D03*
D12*
X158623000Y-106045000D03*
%TD*%
D10*
%TO.C,R6W1*%
X118618000Y-99695000D03*
D12*
X118618000Y-89535000D03*
%TD*%
D10*
%TO.C,R6W2*%
X147193000Y-99695000D03*
D12*
X147193000Y-89535000D03*
%TD*%
D10*
%TO.C,R6W3*%
X132588000Y-116205000D03*
D12*
X132588000Y-106045000D03*
%TD*%
D10*
%TO.C,R7R1*%
X155448000Y-116205000D03*
D12*
X155448000Y-106045000D03*
%TD*%
D10*
%TO.C,R7W1*%
X115443000Y-99695000D03*
D12*
X115443000Y-89535000D03*
%TD*%
D10*
%TO.C,R7W2*%
X144018000Y-99695000D03*
D12*
X144018000Y-89535000D03*
%TD*%
%TO.C,R7W3*%
X129413000Y-106045000D03*
D10*
X129413000Y-116205000D03*
%TD*%
D12*
%TO.C,R8R1*%
X152273000Y-106045000D03*
D10*
X152273000Y-116205000D03*
%TD*%
D12*
%TO.C,R8W2*%
X140843000Y-89535000D03*
D10*
X140843000Y-99695000D03*
%TD*%
D12*
%TO.C,R8W3*%
X126238000Y-106045000D03*
D10*
X126238000Y-116205000D03*
%TD*%
D12*
%TO.C,RRM1*%
X167513000Y-102235000D03*
D10*
X177673000Y-102235000D03*
%TD*%
%TO.C,RWM1*%
X137668000Y-78740000D03*
D12*
X137668000Y-88900000D03*
%TD*%
%TO.C,RWM2*%
X137668000Y-102235000D03*
D10*
X137668000Y-92075000D03*
%TD*%
D12*
%TO.C,RWM3*%
X123063000Y-118745000D03*
D10*
X123063000Y-108585000D03*
%TD*%
D13*
%TO.C,ScreenConn1*%
X124968000Y-123825000D03*
D14*
X127508000Y-123825000D03*
X130048000Y-123825000D03*
X132588000Y-123825000D03*
%TD*%
D11*
%TO.C,WRITEMUX2*%
X160528000Y-79375000D03*
D10*
X142748000Y-86995000D03*
X157988000Y-79375000D03*
X145288000Y-86995000D03*
X155448000Y-79375000D03*
X147828000Y-86995000D03*
X152908000Y-79375000D03*
X150368000Y-86995000D03*
X150368000Y-79375000D03*
X152908000Y-86995000D03*
X147828000Y-79375000D03*
X155448000Y-86995000D03*
X145288000Y-79375000D03*
X157988000Y-86995000D03*
X142748000Y-79375000D03*
X160528000Y-86995000D03*
%TD*%
%TO.C,WRITEMUX3*%
X120142000Y-106553000D03*
X112522000Y-124333000D03*
X120142000Y-109093000D03*
X112522000Y-121793000D03*
X120142000Y-111633000D03*
X112522000Y-119253000D03*
X120142000Y-114173000D03*
X112522000Y-116713000D03*
X120142000Y-116713000D03*
X112522000Y-114173000D03*
X120142000Y-119253000D03*
X112522000Y-111633000D03*
X120142000Y-121793000D03*
X112522000Y-109093000D03*
X120142000Y-124333000D03*
D11*
X112522000Y-106553000D03*
%TD*%
M02*
