M48
; DRILL file {KiCad (5.1.6)-1} date 07/22/20 23:00:17
; FORMAT={-:-/ absolute / inch / decimal}
; #@! TF.CreationDate,2020-07-22T23:00:17+02:00
; #@! TF.GenerationSoftware,Kicad,Pcbnew,(5.1.6)-1
FMAT,2
INCH
T1C0.0157
T2C0.0315
T3C0.0394
T4C0.0400
T5C0.1200
%
G90
G05
T1
X5.32Y-3.25
X6.92Y-3.8
X6.945Y-4.225
T2
X5.42Y-3.1
X5.42Y-3.5
X5.22Y-4.175
X5.22Y-4.575
X5.72Y-4.175
X5.72Y-4.575
X5.795Y-3.525
X5.795Y-3.925
X5.17Y-3.525
X5.17Y-3.925
X5.595Y-4.175
X5.595Y-4.575
X6.595Y-4.025
X6.995Y-4.025
X5.92Y-3.525
X5.92Y-3.925
X6.42Y-3.525
X6.42Y-3.925
X6.53Y-3.155
X6.53Y-3.255
X6.53Y-3.355
X6.53Y-3.455
X6.53Y-3.555
X6.53Y-3.655
X6.53Y-3.755
X6.53Y-3.855
X6.83Y-3.155
X6.83Y-3.255
X6.83Y-3.355
X6.83Y-3.455
X6.83Y-3.555
X6.83Y-3.655
X6.83Y-3.755
X6.83Y-3.855
X6.245Y-4.175
X6.245Y-4.575
X5.995Y-4.175
X5.995Y-4.575
X4.97Y-4.175
X4.97Y-4.575
X5.345Y-4.175
X5.345Y-4.575
X6.295Y-3.525
X6.295Y-3.925
X4.67Y-3.525
X4.67Y-3.925
X6.495Y-4.175
X6.495Y-4.575
X4.43Y-4.195
X4.43Y-4.295
X4.43Y-4.395
X4.43Y-4.495
X4.43Y-4.595
X4.43Y-4.695
X4.43Y-4.795
X4.43Y-4.895
X4.73Y-4.195
X4.73Y-4.295
X4.73Y-4.395
X4.73Y-4.495
X4.73Y-4.595
X4.73Y-4.695
X4.73Y-4.795
X4.73Y-4.895
X5.545Y-3.525
X5.545Y-3.925
X4.795Y-3.525
X4.795Y-3.925
X5.845Y-4.175
X5.845Y-4.575
X6.37Y-4.175
X6.37Y-4.575
X4.42Y-3.525
X4.42Y-3.925
X5.62Y-3.125
X5.62Y-3.425
X5.72Y-3.125
X5.72Y-3.425
X5.82Y-3.125
X5.82Y-3.425
X5.92Y-3.125
X5.92Y-3.425
X6.02Y-3.125
X6.02Y-3.425
X6.12Y-3.125
X6.12Y-3.425
X6.22Y-3.125
X6.22Y-3.425
X6.32Y-3.125
X6.32Y-3.425
X5.095Y-4.175
X5.095Y-4.575
X5.47Y-4.175
X5.47Y-4.575
X5.295Y-3.525
X5.295Y-3.925
X6.17Y-3.525
X6.17Y-3.925
X4.52Y-3.125
X4.52Y-3.425
X4.62Y-3.125
X4.62Y-3.425
X4.72Y-3.125
X4.72Y-3.425
X4.82Y-3.125
X4.82Y-3.425
X4.92Y-3.125
X4.92Y-3.425
X5.02Y-3.125
X5.02Y-3.425
X5.12Y-3.125
X5.12Y-3.425
X5.22Y-3.125
X5.22Y-3.425
X6.745Y-4.175
X6.745Y-4.575
X4.845Y-4.275
X4.845Y-4.675
X5.67Y-3.525
X5.67Y-3.925
X6.045Y-3.525
X6.045Y-3.925
X6.87Y-4.175
X6.87Y-4.575
X5.42Y-3.625
X5.42Y-4.025
X6.12Y-4.175
X6.12Y-4.575
X5.045Y-3.525
X5.045Y-3.925
X6.62Y-4.175
X6.62Y-4.575
X4.545Y-3.525
X4.545Y-3.925
X4.92Y-3.525
X4.92Y-3.925
T3
X4.52Y-4.05
X4.62Y-4.05
X4.72Y-4.05
X4.82Y-4.05
X4.92Y-4.05
X5.02Y-4.05
X5.12Y-4.05
X5.22Y-4.05
X4.92Y-4.875
X5.02Y-4.875
X5.12Y-4.875
X5.22Y-4.875
X5.21Y-4.695
X5.31Y-4.695
X5.41Y-4.695
X5.51Y-4.695
X5.61Y-4.695
X5.71Y-4.695
X5.81Y-4.695
X5.91Y-4.695
X6.12Y-4.7
X6.22Y-4.7
X6.32Y-4.7
X6.42Y-4.7
X6.52Y-4.7
X6.62Y-4.7
X6.72Y-4.7
X6.82Y-4.7
X5.62Y-4.05
X5.72Y-4.05
X5.82Y-4.05
X5.92Y-4.05
X6.02Y-4.05
X6.12Y-4.05
X6.22Y-4.05
X6.32Y-4.05
T4
X6.37Y-4.875
X6.47Y-4.875
X6.57Y-4.875
X6.67Y-4.875
X6.77Y-4.875
X6.87Y-4.875
X6.17Y-2.975
X6.27Y-2.975
X6.37Y-2.975
X6.47Y-2.975
X6.57Y-2.975
X6.67Y-2.975
X6.77Y-2.975
X6.87Y-2.975
X5.11Y-2.975
X5.21Y-2.975
X5.31Y-2.975
X5.41Y-2.975
X5.51Y-2.975
X5.61Y-2.975
X5.71Y-2.975
X5.81Y-2.975
X5.91Y-2.975
X6.01Y-2.975
X5.47Y-4.875
X5.57Y-4.875
X5.67Y-4.875
X5.77Y-4.875
X5.87Y-4.875
X5.97Y-4.875
X6.07Y-4.875
X6.17Y-4.875
T5
X6.97Y-4.675
X4.97Y-2.975
X6.97Y-3.575
T0
M30
