%TF.GenerationSoftware,KiCad,Pcbnew,(5.1.6)-1*%
%TF.CreationDate,2020-07-22T23:00:20+02:00*%
%TF.ProjectId,circuit,63697263-7569-4742-9e6b-696361645f70,rev?*%
%TF.SameCoordinates,Original*%
%TF.FileFunction,Legend,Top*%
%TF.FilePolarity,Positive*%
%FSLAX46Y46*%
G04 Gerber Fmt 4.6, Leading zero omitted, Abs format (unit mm)*
G04 Created by KiCad (PCBNEW (5.1.6)-1) date 2020-07-22 23:00:20*
%MOMM*%
%LPD*%
G01*
G04 APERTURE LIST*
%ADD10C,0.300000*%
%ADD11C,0.120000*%
%ADD12C,0.150000*%
G04 APERTURE END LIST*
D10*
X112005142Y-74469761D02*
X112690857Y-74469761D01*
X112348000Y-76469761D02*
X112348000Y-74469761D01*
X113319428Y-74469761D02*
X113548000Y-74469761D01*
X113662285Y-74565000D01*
X113776571Y-74755476D01*
X113833714Y-75136428D01*
X113833714Y-75803095D01*
X113776571Y-76184047D01*
X113662285Y-76374523D01*
X113548000Y-76469761D01*
X113319428Y-76469761D01*
X113205142Y-76374523D01*
X113090857Y-76184047D01*
X113033714Y-75803095D01*
X113033714Y-75136428D01*
X113090857Y-74755476D01*
X113205142Y-74565000D01*
X113319428Y-74469761D01*
X115033714Y-76469761D02*
X114633714Y-75517380D01*
X114348000Y-76469761D02*
X114348000Y-74469761D01*
X114805142Y-74469761D01*
X114919428Y-74565000D01*
X114976571Y-74660238D01*
X115033714Y-74850714D01*
X115033714Y-75136428D01*
X114976571Y-75326904D01*
X114919428Y-75422142D01*
X114805142Y-75517380D01*
X114348000Y-75517380D01*
X115548000Y-76469761D02*
X115548000Y-74469761D01*
X116005142Y-74469761D01*
X116119428Y-74565000D01*
X116176571Y-74660238D01*
X116233714Y-74850714D01*
X116233714Y-75136428D01*
X116176571Y-75326904D01*
X116119428Y-75422142D01*
X116005142Y-75517380D01*
X115548000Y-75517380D01*
X116748000Y-74469761D02*
X116748000Y-76088809D01*
X116805142Y-76279285D01*
X116862285Y-76374523D01*
X116976571Y-76469761D01*
X117205142Y-76469761D01*
X117319428Y-76374523D01*
X117376571Y-76279285D01*
X117433714Y-76088809D01*
X117433714Y-74469761D01*
X117833714Y-74469761D02*
X118519428Y-74469761D01*
X118176571Y-76469761D02*
X118176571Y-74469761D01*
X118919428Y-75422142D02*
X119319428Y-75422142D01*
X119490857Y-76469761D02*
X118919428Y-76469761D01*
X118919428Y-74469761D01*
X119490857Y-74469761D01*
X120748000Y-74469761D02*
X121148000Y-76469761D01*
X121548000Y-74469761D01*
X122576571Y-76469761D02*
X121890857Y-76469761D01*
X122233714Y-76469761D02*
X122233714Y-74469761D01*
X122119428Y-74755476D01*
X122005142Y-74945952D01*
X121890857Y-75041190D01*
D11*
%TO.C,READMUX1*%
X168672000Y-78807000D02*
X167022000Y-78807000D01*
X167022000Y-78807000D02*
X167022000Y-99247000D01*
X167022000Y-99247000D02*
X172322000Y-99247000D01*
X172322000Y-99247000D02*
X172322000Y-78807000D01*
X172322000Y-78807000D02*
X170672000Y-78807000D01*
X170672000Y-78807000D02*
G75*
G02*
X168672000Y-78807000I-1000000J0D01*
G01*
%TO.C,R8W1*%
X112268000Y-98655000D02*
X112268000Y-97885000D01*
X112268000Y-90575000D02*
X112268000Y-91345000D01*
X113638000Y-97885000D02*
X113638000Y-91345000D01*
X110898000Y-97885000D02*
X113638000Y-97885000D01*
X110898000Y-91345000D02*
X110898000Y-97885000D01*
X113638000Y-91345000D02*
X110898000Y-91345000D01*
%TO.C,WRITEMUX1*%
X133918000Y-85835000D02*
X133918000Y-84185000D01*
X113478000Y-85835000D02*
X133918000Y-85835000D01*
X113478000Y-80535000D02*
X113478000Y-85835000D01*
X133918000Y-80535000D02*
X113478000Y-80535000D01*
X133918000Y-82185000D02*
X133918000Y-80535000D01*
X133918000Y-84185000D02*
G75*
G02*
X133918000Y-82185000I0J1000000D01*
G01*
%TO.C,P10*%
X133918000Y-102870000D02*
X133918000Y-104200000D01*
X133918000Y-104200000D02*
X132588000Y-104200000D01*
X131318000Y-104200000D02*
X113478000Y-104200000D01*
X113478000Y-101540000D02*
X113478000Y-104200000D01*
X131318000Y-101540000D02*
X113478000Y-101540000D01*
X131318000Y-101540000D02*
X131318000Y-104200000D01*
D12*
%TO.C,P1*%
X137388000Y-122275000D02*
X137388000Y-125375000D01*
X138938000Y-122275000D02*
X137388000Y-122275000D01*
X140208000Y-125095000D02*
X140208000Y-122555000D01*
X137388000Y-125375000D02*
X138938000Y-125375000D01*
X157988000Y-122555000D02*
X140208000Y-122555000D01*
X157988000Y-125095000D02*
X157988000Y-122555000D01*
X140208000Y-125095000D02*
X157988000Y-125095000D01*
%TO.C,P2*%
X160248000Y-122275000D02*
X160248000Y-125375000D01*
X161798000Y-122275000D02*
X160248000Y-122275000D01*
X163068000Y-125095000D02*
X163068000Y-122555000D01*
X160248000Y-125375000D02*
X161798000Y-125375000D01*
X175768000Y-122555000D02*
X163068000Y-122555000D01*
X175768000Y-125095000D02*
X175768000Y-122555000D01*
X163068000Y-125095000D02*
X175768000Y-125095000D01*
%TO.C,P3*%
X128244000Y-74015000D02*
X128244000Y-77115000D01*
X129794000Y-74015000D02*
X128244000Y-74015000D01*
X131064000Y-76835000D02*
X131064000Y-74295000D01*
X128244000Y-77115000D02*
X129794000Y-77115000D01*
X153924000Y-74295000D02*
X131064000Y-74295000D01*
X153924000Y-76835000D02*
X153924000Y-74295000D01*
X131064000Y-76835000D02*
X153924000Y-76835000D01*
%TO.C,P4*%
X155168000Y-74015000D02*
X155168000Y-77115000D01*
X156718000Y-74015000D02*
X155168000Y-74015000D01*
X157988000Y-76835000D02*
X157988000Y-74295000D01*
X155168000Y-77115000D02*
X156718000Y-77115000D01*
X175768000Y-74295000D02*
X157988000Y-74295000D01*
X175768000Y-76835000D02*
X175768000Y-74295000D01*
X157988000Y-76835000D02*
X175768000Y-76835000D01*
%TO.C,P6*%
X179324000Y-118745000D02*
G75*
G03*
X179324000Y-118745000I-2286000J0D01*
G01*
%TO.C,P7*%
X128524000Y-75565000D02*
G75*
G03*
X128524000Y-75565000I-2286000J0D01*
G01*
%TO.C,P8*%
X179324000Y-90805000D02*
G75*
G03*
X179324000Y-90805000I-2286000J0D01*
G01*
D11*
%TO.C,P9*%
X174558000Y-119380000D02*
X174558000Y-120710000D01*
X174558000Y-120710000D02*
X173228000Y-120710000D01*
X171958000Y-120710000D02*
X154118000Y-120710000D01*
X154118000Y-118050000D02*
X154118000Y-120710000D01*
X171958000Y-118050000D02*
X154118000Y-118050000D01*
X171958000Y-118050000D02*
X171958000Y-120710000D01*
%TO.C,P11*%
X159258000Y-101540000D02*
X159258000Y-104200000D01*
X159258000Y-101540000D02*
X141418000Y-101540000D01*
X141418000Y-101540000D02*
X141418000Y-104200000D01*
X159258000Y-104200000D02*
X141418000Y-104200000D01*
X161858000Y-104200000D02*
X160528000Y-104200000D01*
X161858000Y-102870000D02*
X161858000Y-104200000D01*
%TO.C,P12*%
X151444000Y-119253000D02*
X151444000Y-120583000D01*
X151444000Y-120583000D02*
X150114000Y-120583000D01*
X148844000Y-120583000D02*
X131004000Y-120583000D01*
X131004000Y-117923000D02*
X131004000Y-120583000D01*
X148844000Y-117923000D02*
X131004000Y-117923000D01*
X148844000Y-117923000D02*
X148844000Y-120583000D01*
%TO.C,R1R1*%
X174498000Y-115165000D02*
X174498000Y-114395000D01*
X174498000Y-107085000D02*
X174498000Y-107855000D01*
X175868000Y-114395000D02*
X175868000Y-107855000D01*
X173128000Y-114395000D02*
X175868000Y-114395000D01*
X173128000Y-107855000D02*
X173128000Y-114395000D01*
X175868000Y-107855000D02*
X173128000Y-107855000D01*
%TO.C,R1W1*%
X134493000Y-98655000D02*
X134493000Y-97885000D01*
X134493000Y-90575000D02*
X134493000Y-91345000D01*
X135863000Y-97885000D02*
X135863000Y-91345000D01*
X133123000Y-97885000D02*
X135863000Y-97885000D01*
X133123000Y-91345000D02*
X133123000Y-97885000D01*
X135863000Y-91345000D02*
X133123000Y-91345000D01*
%TO.C,R1W2*%
X163068000Y-98655000D02*
X163068000Y-97885000D01*
X163068000Y-90575000D02*
X163068000Y-91345000D01*
X164438000Y-97885000D02*
X164438000Y-91345000D01*
X161698000Y-97885000D02*
X164438000Y-97885000D01*
X161698000Y-91345000D02*
X161698000Y-97885000D01*
X164438000Y-91345000D02*
X161698000Y-91345000D01*
%TO.C,R1W3*%
X149833000Y-107855000D02*
X147093000Y-107855000D01*
X147093000Y-107855000D02*
X147093000Y-114395000D01*
X147093000Y-114395000D02*
X149833000Y-114395000D01*
X149833000Y-114395000D02*
X149833000Y-107855000D01*
X148463000Y-107085000D02*
X148463000Y-107855000D01*
X148463000Y-115165000D02*
X148463000Y-114395000D01*
%TO.C,R2R1*%
X172693000Y-107855000D02*
X169953000Y-107855000D01*
X169953000Y-107855000D02*
X169953000Y-114395000D01*
X169953000Y-114395000D02*
X172693000Y-114395000D01*
X172693000Y-114395000D02*
X172693000Y-107855000D01*
X171323000Y-107085000D02*
X171323000Y-107855000D01*
X171323000Y-115165000D02*
X171323000Y-114395000D01*
%TO.C,R2W1*%
X132688000Y-91345000D02*
X129948000Y-91345000D01*
X129948000Y-91345000D02*
X129948000Y-97885000D01*
X129948000Y-97885000D02*
X132688000Y-97885000D01*
X132688000Y-97885000D02*
X132688000Y-91345000D01*
X131318000Y-90575000D02*
X131318000Y-91345000D01*
X131318000Y-98655000D02*
X131318000Y-97885000D01*
%TO.C,R2W2*%
X161263000Y-91345000D02*
X158523000Y-91345000D01*
X158523000Y-91345000D02*
X158523000Y-97885000D01*
X158523000Y-97885000D02*
X161263000Y-97885000D01*
X161263000Y-97885000D02*
X161263000Y-91345000D01*
X159893000Y-90575000D02*
X159893000Y-91345000D01*
X159893000Y-98655000D02*
X159893000Y-97885000D01*
%TO.C,R2W3*%
X145288000Y-115165000D02*
X145288000Y-114395000D01*
X145288000Y-107085000D02*
X145288000Y-107855000D01*
X146658000Y-114395000D02*
X146658000Y-107855000D01*
X143918000Y-114395000D02*
X146658000Y-114395000D01*
X143918000Y-107855000D02*
X143918000Y-114395000D01*
X146658000Y-107855000D02*
X143918000Y-107855000D01*
%TO.C,R3R1*%
X168148000Y-115165000D02*
X168148000Y-114395000D01*
X168148000Y-107085000D02*
X168148000Y-107855000D01*
X169518000Y-114395000D02*
X169518000Y-107855000D01*
X166778000Y-114395000D02*
X169518000Y-114395000D01*
X166778000Y-107855000D02*
X166778000Y-114395000D01*
X169518000Y-107855000D02*
X166778000Y-107855000D01*
%TO.C,R3W1*%
X128143000Y-98655000D02*
X128143000Y-97885000D01*
X128143000Y-90575000D02*
X128143000Y-91345000D01*
X129513000Y-97885000D02*
X129513000Y-91345000D01*
X126773000Y-97885000D02*
X129513000Y-97885000D01*
X126773000Y-91345000D02*
X126773000Y-97885000D01*
X129513000Y-91345000D02*
X126773000Y-91345000D01*
%TO.C,R3W2*%
X156718000Y-98655000D02*
X156718000Y-97885000D01*
X156718000Y-90575000D02*
X156718000Y-91345000D01*
X158088000Y-97885000D02*
X158088000Y-91345000D01*
X155348000Y-97885000D02*
X158088000Y-97885000D01*
X155348000Y-91345000D02*
X155348000Y-97885000D01*
X158088000Y-91345000D02*
X155348000Y-91345000D01*
%TO.C,R3W3*%
X143483000Y-107855000D02*
X140743000Y-107855000D01*
X140743000Y-107855000D02*
X140743000Y-114395000D01*
X140743000Y-114395000D02*
X143483000Y-114395000D01*
X143483000Y-114395000D02*
X143483000Y-107855000D01*
X142113000Y-107085000D02*
X142113000Y-107855000D01*
X142113000Y-115165000D02*
X142113000Y-114395000D01*
%TO.C,R4R1*%
X166343000Y-107855000D02*
X163603000Y-107855000D01*
X163603000Y-107855000D02*
X163603000Y-114395000D01*
X163603000Y-114395000D02*
X166343000Y-114395000D01*
X166343000Y-114395000D02*
X166343000Y-107855000D01*
X164973000Y-107085000D02*
X164973000Y-107855000D01*
X164973000Y-115165000D02*
X164973000Y-114395000D01*
%TO.C,R4W1*%
X123598000Y-97885000D02*
X126338000Y-97885000D01*
X126338000Y-97885000D02*
X126338000Y-91345000D01*
X126338000Y-91345000D02*
X123598000Y-91345000D01*
X123598000Y-91345000D02*
X123598000Y-97885000D01*
X124968000Y-98655000D02*
X124968000Y-97885000D01*
X124968000Y-90575000D02*
X124968000Y-91345000D01*
%TO.C,R4W2*%
X154913000Y-91345000D02*
X152173000Y-91345000D01*
X152173000Y-91345000D02*
X152173000Y-97885000D01*
X152173000Y-97885000D02*
X154913000Y-97885000D01*
X154913000Y-97885000D02*
X154913000Y-91345000D01*
X153543000Y-90575000D02*
X153543000Y-91345000D01*
X153543000Y-98655000D02*
X153543000Y-97885000D01*
%TO.C,R4W3*%
X138938000Y-115165000D02*
X138938000Y-114395000D01*
X138938000Y-107085000D02*
X138938000Y-107855000D01*
X140308000Y-114395000D02*
X140308000Y-107855000D01*
X137568000Y-114395000D02*
X140308000Y-114395000D01*
X137568000Y-107855000D02*
X137568000Y-114395000D01*
X140308000Y-107855000D02*
X137568000Y-107855000D01*
%TO.C,R5R1*%
X161798000Y-115165000D02*
X161798000Y-114395000D01*
X161798000Y-107085000D02*
X161798000Y-107855000D01*
X163168000Y-114395000D02*
X163168000Y-107855000D01*
X160428000Y-114395000D02*
X163168000Y-114395000D01*
X160428000Y-107855000D02*
X160428000Y-114395000D01*
X163168000Y-107855000D02*
X160428000Y-107855000D01*
%TO.C,R5W1*%
X121793000Y-98655000D02*
X121793000Y-97885000D01*
X121793000Y-90575000D02*
X121793000Y-91345000D01*
X123163000Y-97885000D02*
X123163000Y-91345000D01*
X120423000Y-97885000D02*
X123163000Y-97885000D01*
X120423000Y-91345000D02*
X120423000Y-97885000D01*
X123163000Y-91345000D02*
X120423000Y-91345000D01*
%TO.C,R5W2*%
X151738000Y-91345000D02*
X148998000Y-91345000D01*
X148998000Y-91345000D02*
X148998000Y-97885000D01*
X148998000Y-97885000D02*
X151738000Y-97885000D01*
X151738000Y-97885000D02*
X151738000Y-91345000D01*
X150368000Y-90575000D02*
X150368000Y-91345000D01*
X150368000Y-98655000D02*
X150368000Y-97885000D01*
%TO.C,R5W3*%
X135763000Y-115165000D02*
X135763000Y-114395000D01*
X135763000Y-107085000D02*
X135763000Y-107855000D01*
X137133000Y-114395000D02*
X137133000Y-107855000D01*
X134393000Y-114395000D02*
X137133000Y-114395000D01*
X134393000Y-107855000D02*
X134393000Y-114395000D01*
X137133000Y-107855000D02*
X134393000Y-107855000D01*
%TO.C,R6R1*%
X159993000Y-107855000D02*
X157253000Y-107855000D01*
X157253000Y-107855000D02*
X157253000Y-114395000D01*
X157253000Y-114395000D02*
X159993000Y-114395000D01*
X159993000Y-114395000D02*
X159993000Y-107855000D01*
X158623000Y-107085000D02*
X158623000Y-107855000D01*
X158623000Y-115165000D02*
X158623000Y-114395000D01*
%TO.C,R6W1*%
X119988000Y-91345000D02*
X117248000Y-91345000D01*
X117248000Y-91345000D02*
X117248000Y-97885000D01*
X117248000Y-97885000D02*
X119988000Y-97885000D01*
X119988000Y-97885000D02*
X119988000Y-91345000D01*
X118618000Y-90575000D02*
X118618000Y-91345000D01*
X118618000Y-98655000D02*
X118618000Y-97885000D01*
%TO.C,R6W2*%
X148563000Y-91345000D02*
X145823000Y-91345000D01*
X145823000Y-91345000D02*
X145823000Y-97885000D01*
X145823000Y-97885000D02*
X148563000Y-97885000D01*
X148563000Y-97885000D02*
X148563000Y-91345000D01*
X147193000Y-90575000D02*
X147193000Y-91345000D01*
X147193000Y-98655000D02*
X147193000Y-97885000D01*
%TO.C,R6W3*%
X133958000Y-107855000D02*
X131218000Y-107855000D01*
X131218000Y-107855000D02*
X131218000Y-114395000D01*
X131218000Y-114395000D02*
X133958000Y-114395000D01*
X133958000Y-114395000D02*
X133958000Y-107855000D01*
X132588000Y-107085000D02*
X132588000Y-107855000D01*
X132588000Y-115165000D02*
X132588000Y-114395000D01*
%TO.C,R7R1*%
X156818000Y-107855000D02*
X154078000Y-107855000D01*
X154078000Y-107855000D02*
X154078000Y-114395000D01*
X154078000Y-114395000D02*
X156818000Y-114395000D01*
X156818000Y-114395000D02*
X156818000Y-107855000D01*
X155448000Y-107085000D02*
X155448000Y-107855000D01*
X155448000Y-115165000D02*
X155448000Y-114395000D01*
%TO.C,R7W1*%
X116813000Y-91345000D02*
X114073000Y-91345000D01*
X114073000Y-91345000D02*
X114073000Y-97885000D01*
X114073000Y-97885000D02*
X116813000Y-97885000D01*
X116813000Y-97885000D02*
X116813000Y-91345000D01*
X115443000Y-90575000D02*
X115443000Y-91345000D01*
X115443000Y-98655000D02*
X115443000Y-97885000D01*
%TO.C,R7W2*%
X145388000Y-91345000D02*
X142648000Y-91345000D01*
X142648000Y-91345000D02*
X142648000Y-97885000D01*
X142648000Y-97885000D02*
X145388000Y-97885000D01*
X145388000Y-97885000D02*
X145388000Y-91345000D01*
X144018000Y-90575000D02*
X144018000Y-91345000D01*
X144018000Y-98655000D02*
X144018000Y-97885000D01*
%TO.C,R7W3*%
X129413000Y-115165000D02*
X129413000Y-114395000D01*
X129413000Y-107085000D02*
X129413000Y-107855000D01*
X130783000Y-114395000D02*
X130783000Y-107855000D01*
X128043000Y-114395000D02*
X130783000Y-114395000D01*
X128043000Y-107855000D02*
X128043000Y-114395000D01*
X130783000Y-107855000D02*
X128043000Y-107855000D01*
%TO.C,R8R1*%
X152273000Y-115165000D02*
X152273000Y-114395000D01*
X152273000Y-107085000D02*
X152273000Y-107855000D01*
X153643000Y-114395000D02*
X153643000Y-107855000D01*
X150903000Y-114395000D02*
X153643000Y-114395000D01*
X150903000Y-107855000D02*
X150903000Y-114395000D01*
X153643000Y-107855000D02*
X150903000Y-107855000D01*
%TO.C,R8W2*%
X140843000Y-98655000D02*
X140843000Y-97885000D01*
X140843000Y-90575000D02*
X140843000Y-91345000D01*
X142213000Y-97885000D02*
X142213000Y-91345000D01*
X139473000Y-97885000D02*
X142213000Y-97885000D01*
X139473000Y-91345000D02*
X139473000Y-97885000D01*
X142213000Y-91345000D02*
X139473000Y-91345000D01*
%TO.C,R8W3*%
X126238000Y-115165000D02*
X126238000Y-114395000D01*
X126238000Y-107085000D02*
X126238000Y-107855000D01*
X127608000Y-114395000D02*
X127608000Y-107855000D01*
X124868000Y-114395000D02*
X127608000Y-114395000D01*
X124868000Y-107855000D02*
X124868000Y-114395000D01*
X127608000Y-107855000D02*
X124868000Y-107855000D01*
%TO.C,RRM1*%
X176633000Y-102235000D02*
X175863000Y-102235000D01*
X168553000Y-102235000D02*
X169323000Y-102235000D01*
X175863000Y-100865000D02*
X169323000Y-100865000D01*
X175863000Y-103605000D02*
X175863000Y-100865000D01*
X169323000Y-103605000D02*
X175863000Y-103605000D01*
X169323000Y-100865000D02*
X169323000Y-103605000D01*
%TO.C,RWM1*%
X136298000Y-87090000D02*
X139038000Y-87090000D01*
X139038000Y-87090000D02*
X139038000Y-80550000D01*
X139038000Y-80550000D02*
X136298000Y-80550000D01*
X136298000Y-80550000D02*
X136298000Y-87090000D01*
X137668000Y-87860000D02*
X137668000Y-87090000D01*
X137668000Y-79780000D02*
X137668000Y-80550000D01*
%TO.C,RWM2*%
X137668000Y-93115000D02*
X137668000Y-93885000D01*
X137668000Y-101195000D02*
X137668000Y-100425000D01*
X136298000Y-93885000D02*
X136298000Y-100425000D01*
X139038000Y-93885000D02*
X136298000Y-93885000D01*
X139038000Y-100425000D02*
X139038000Y-93885000D01*
X136298000Y-100425000D02*
X139038000Y-100425000D01*
%TO.C,RWM3*%
X123063000Y-109625000D02*
X123063000Y-110395000D01*
X123063000Y-117705000D02*
X123063000Y-116935000D01*
X121693000Y-110395000D02*
X121693000Y-116935000D01*
X124433000Y-110395000D02*
X121693000Y-110395000D01*
X124433000Y-116935000D02*
X124433000Y-110395000D01*
X121693000Y-116935000D02*
X124433000Y-116935000D01*
%TO.C,ScreenConn1*%
X123638000Y-123825000D02*
X123638000Y-122495000D01*
X123638000Y-122495000D02*
X124968000Y-122495000D01*
X126238000Y-122495000D02*
X133918000Y-122495000D01*
X133918000Y-125155000D02*
X133918000Y-122495000D01*
X126238000Y-125155000D02*
X133918000Y-125155000D01*
X126238000Y-125155000D02*
X126238000Y-122495000D01*
%TO.C,WRITEMUX2*%
X161858000Y-85835000D02*
X161858000Y-84185000D01*
X141418000Y-85835000D02*
X161858000Y-85835000D01*
X141418000Y-80535000D02*
X141418000Y-85835000D01*
X161858000Y-80535000D02*
X141418000Y-80535000D01*
X161858000Y-82185000D02*
X161858000Y-80535000D01*
X161858000Y-84185000D02*
G75*
G02*
X161858000Y-82185000I0J1000000D01*
G01*
%TO.C,WRITEMUX3*%
X115332000Y-105223000D02*
X113682000Y-105223000D01*
X113682000Y-105223000D02*
X113682000Y-125663000D01*
X113682000Y-125663000D02*
X118982000Y-125663000D01*
X118982000Y-125663000D02*
X118982000Y-105223000D01*
X118982000Y-105223000D02*
X117332000Y-105223000D01*
X117332000Y-105223000D02*
G75*
G02*
X115332000Y-105223000I-1000000J0D01*
G01*
%TO.C,READMUX1*%
D12*
X167822952Y-78259380D02*
X167489619Y-77783190D01*
X167251523Y-78259380D02*
X167251523Y-77259380D01*
X167632476Y-77259380D01*
X167727714Y-77307000D01*
X167775333Y-77354619D01*
X167822952Y-77449857D01*
X167822952Y-77592714D01*
X167775333Y-77687952D01*
X167727714Y-77735571D01*
X167632476Y-77783190D01*
X167251523Y-77783190D01*
X168251523Y-77735571D02*
X168584857Y-77735571D01*
X168727714Y-78259380D02*
X168251523Y-78259380D01*
X168251523Y-77259380D01*
X168727714Y-77259380D01*
X169108666Y-77973666D02*
X169584857Y-77973666D01*
X169013428Y-78259380D02*
X169346761Y-77259380D01*
X169680095Y-78259380D01*
X170013428Y-78259380D02*
X170013428Y-77259380D01*
X170251523Y-77259380D01*
X170394380Y-77307000D01*
X170489619Y-77402238D01*
X170537238Y-77497476D01*
X170584857Y-77687952D01*
X170584857Y-77830809D01*
X170537238Y-78021285D01*
X170489619Y-78116523D01*
X170394380Y-78211761D01*
X170251523Y-78259380D01*
X170013428Y-78259380D01*
X171013428Y-78259380D02*
X171013428Y-77259380D01*
X171346761Y-77973666D01*
X171680095Y-77259380D01*
X171680095Y-78259380D01*
X172156285Y-77259380D02*
X172156285Y-78068904D01*
X172203904Y-78164142D01*
X172251523Y-78211761D01*
X172346761Y-78259380D01*
X172537238Y-78259380D01*
X172632476Y-78211761D01*
X172680095Y-78164142D01*
X172727714Y-78068904D01*
X172727714Y-77259380D01*
X173108666Y-77259380D02*
X173775333Y-78259380D01*
X173775333Y-77259380D02*
X173108666Y-78259380D01*
X174680095Y-78259380D02*
X174108666Y-78259380D01*
X174394380Y-78259380D02*
X174394380Y-77259380D01*
X174299142Y-77402238D01*
X174203904Y-77497476D01*
X174108666Y-77545095D01*
%TO.C,R8W1*%
X112720380Y-95829285D02*
X112244190Y-96162619D01*
X112720380Y-96400714D02*
X111720380Y-96400714D01*
X111720380Y-96019761D01*
X111768000Y-95924523D01*
X111815619Y-95876904D01*
X111910857Y-95829285D01*
X112053714Y-95829285D01*
X112148952Y-95876904D01*
X112196571Y-95924523D01*
X112244190Y-96019761D01*
X112244190Y-96400714D01*
X112148952Y-95257857D02*
X112101333Y-95353095D01*
X112053714Y-95400714D01*
X111958476Y-95448333D01*
X111910857Y-95448333D01*
X111815619Y-95400714D01*
X111768000Y-95353095D01*
X111720380Y-95257857D01*
X111720380Y-95067380D01*
X111768000Y-94972142D01*
X111815619Y-94924523D01*
X111910857Y-94876904D01*
X111958476Y-94876904D01*
X112053714Y-94924523D01*
X112101333Y-94972142D01*
X112148952Y-95067380D01*
X112148952Y-95257857D01*
X112196571Y-95353095D01*
X112244190Y-95400714D01*
X112339428Y-95448333D01*
X112529904Y-95448333D01*
X112625142Y-95400714D01*
X112672761Y-95353095D01*
X112720380Y-95257857D01*
X112720380Y-95067380D01*
X112672761Y-94972142D01*
X112625142Y-94924523D01*
X112529904Y-94876904D01*
X112339428Y-94876904D01*
X112244190Y-94924523D01*
X112196571Y-94972142D01*
X112148952Y-95067380D01*
X111720380Y-94543571D02*
X112720380Y-94305476D01*
X112006095Y-94115000D01*
X112720380Y-93924523D01*
X111720380Y-93686428D01*
X112720380Y-92781666D02*
X112720380Y-93353095D01*
X112720380Y-93067380D02*
X111720380Y-93067380D01*
X111863238Y-93162619D01*
X111958476Y-93257857D01*
X112006095Y-93353095D01*
%TO.C,WRITEMUX1*%
X111720380Y-87232619D02*
X112720380Y-86994523D01*
X112006095Y-86804047D01*
X112720380Y-86613571D01*
X111720380Y-86375476D01*
X112720380Y-85423095D02*
X112244190Y-85756428D01*
X112720380Y-85994523D02*
X111720380Y-85994523D01*
X111720380Y-85613571D01*
X111768000Y-85518333D01*
X111815619Y-85470714D01*
X111910857Y-85423095D01*
X112053714Y-85423095D01*
X112148952Y-85470714D01*
X112196571Y-85518333D01*
X112244190Y-85613571D01*
X112244190Y-85994523D01*
X112720380Y-84994523D02*
X111720380Y-84994523D01*
X111720380Y-84661190D02*
X111720380Y-84089761D01*
X112720380Y-84375476D02*
X111720380Y-84375476D01*
X112196571Y-83756428D02*
X112196571Y-83423095D01*
X112720380Y-83280238D02*
X112720380Y-83756428D01*
X111720380Y-83756428D01*
X111720380Y-83280238D01*
X112720380Y-82851666D02*
X111720380Y-82851666D01*
X112434666Y-82518333D01*
X111720380Y-82185000D01*
X112720380Y-82185000D01*
X111720380Y-81708809D02*
X112529904Y-81708809D01*
X112625142Y-81661190D01*
X112672761Y-81613571D01*
X112720380Y-81518333D01*
X112720380Y-81327857D01*
X112672761Y-81232619D01*
X112625142Y-81185000D01*
X112529904Y-81137380D01*
X111720380Y-81137380D01*
X111720380Y-80756428D02*
X112720380Y-80089761D01*
X111720380Y-80089761D02*
X112720380Y-80756428D01*
X112720380Y-79185000D02*
X112720380Y-79756428D01*
X112720380Y-79470714D02*
X111720380Y-79470714D01*
X111863238Y-79565952D01*
X111958476Y-79661190D01*
X112006095Y-79756428D01*
%TO.C,P10*%
X135810380Y-104084285D02*
X134810380Y-104084285D01*
X134810380Y-103703333D01*
X134858000Y-103608095D01*
X134905619Y-103560476D01*
X135000857Y-103512857D01*
X135143714Y-103512857D01*
X135238952Y-103560476D01*
X135286571Y-103608095D01*
X135334190Y-103703333D01*
X135334190Y-104084285D01*
X135810380Y-102560476D02*
X135810380Y-103131904D01*
X135810380Y-102846190D02*
X134810380Y-102846190D01*
X134953238Y-102941428D01*
X135048476Y-103036666D01*
X135096095Y-103131904D01*
X134810380Y-101941428D02*
X134810380Y-101846190D01*
X134858000Y-101750952D01*
X134905619Y-101703333D01*
X135000857Y-101655714D01*
X135191333Y-101608095D01*
X135429428Y-101608095D01*
X135619904Y-101655714D01*
X135715142Y-101703333D01*
X135762761Y-101750952D01*
X135810380Y-101846190D01*
X135810380Y-101941428D01*
X135762761Y-102036666D01*
X135715142Y-102084285D01*
X135619904Y-102131904D01*
X135429428Y-102179523D01*
X135191333Y-102179523D01*
X135000857Y-102131904D01*
X134905619Y-102084285D01*
X134858000Y-102036666D01*
X134810380Y-101941428D01*
%TO.C,P1*%
X136215380Y-124563095D02*
X135215380Y-124563095D01*
X135215380Y-124182142D01*
X135263000Y-124086904D01*
X135310619Y-124039285D01*
X135405857Y-123991666D01*
X135548714Y-123991666D01*
X135643952Y-124039285D01*
X135691571Y-124086904D01*
X135739190Y-124182142D01*
X135739190Y-124563095D01*
X136215380Y-123039285D02*
X136215380Y-123610714D01*
X136215380Y-123325000D02*
X135215380Y-123325000D01*
X135358238Y-123420238D01*
X135453476Y-123515476D01*
X135501095Y-123610714D01*
%TO.C,P2*%
X159710380Y-124563095D02*
X158710380Y-124563095D01*
X158710380Y-124182142D01*
X158758000Y-124086904D01*
X158805619Y-124039285D01*
X158900857Y-123991666D01*
X159043714Y-123991666D01*
X159138952Y-124039285D01*
X159186571Y-124086904D01*
X159234190Y-124182142D01*
X159234190Y-124563095D01*
X158805619Y-123610714D02*
X158758000Y-123563095D01*
X158710380Y-123467857D01*
X158710380Y-123229761D01*
X158758000Y-123134523D01*
X158805619Y-123086904D01*
X158900857Y-123039285D01*
X158996095Y-123039285D01*
X159138952Y-123086904D01*
X159710380Y-123658333D01*
X159710380Y-123039285D01*
%TO.C,P3*%
X138755380Y-78843095D02*
X137755380Y-78843095D01*
X137755380Y-78462142D01*
X137803000Y-78366904D01*
X137850619Y-78319285D01*
X137945857Y-78271666D01*
X138088714Y-78271666D01*
X138183952Y-78319285D01*
X138231571Y-78366904D01*
X138279190Y-78462142D01*
X138279190Y-78843095D01*
X137755380Y-77938333D02*
X137755380Y-77319285D01*
X138136333Y-77652619D01*
X138136333Y-77509761D01*
X138183952Y-77414523D01*
X138231571Y-77366904D01*
X138326809Y-77319285D01*
X138564904Y-77319285D01*
X138660142Y-77366904D01*
X138707761Y-77414523D01*
X138755380Y-77509761D01*
X138755380Y-77795476D01*
X138707761Y-77890714D01*
X138660142Y-77938333D01*
%TO.C,P4*%
X164790380Y-78843095D02*
X163790380Y-78843095D01*
X163790380Y-78462142D01*
X163838000Y-78366904D01*
X163885619Y-78319285D01*
X163980857Y-78271666D01*
X164123714Y-78271666D01*
X164218952Y-78319285D01*
X164266571Y-78366904D01*
X164314190Y-78462142D01*
X164314190Y-78843095D01*
X164123714Y-77414523D02*
X164790380Y-77414523D01*
X163742761Y-77652619D02*
X164457047Y-77890714D01*
X164457047Y-77271666D01*
%TO.C,P9*%
X176450380Y-120118095D02*
X175450380Y-120118095D01*
X175450380Y-119737142D01*
X175498000Y-119641904D01*
X175545619Y-119594285D01*
X175640857Y-119546666D01*
X175783714Y-119546666D01*
X175878952Y-119594285D01*
X175926571Y-119641904D01*
X175974190Y-119737142D01*
X175974190Y-120118095D01*
X176450380Y-119070476D02*
X176450380Y-118880000D01*
X176402761Y-118784761D01*
X176355142Y-118737142D01*
X176212285Y-118641904D01*
X176021809Y-118594285D01*
X175640857Y-118594285D01*
X175545619Y-118641904D01*
X175498000Y-118689523D01*
X175450380Y-118784761D01*
X175450380Y-118975238D01*
X175498000Y-119070476D01*
X175545619Y-119118095D01*
X175640857Y-119165714D01*
X175878952Y-119165714D01*
X175974190Y-119118095D01*
X176021809Y-119070476D01*
X176069428Y-118975238D01*
X176069428Y-118784761D01*
X176021809Y-118689523D01*
X175974190Y-118641904D01*
X175878952Y-118594285D01*
%TO.C,P11*%
X163750380Y-104084285D02*
X162750380Y-104084285D01*
X162750380Y-103703333D01*
X162798000Y-103608095D01*
X162845619Y-103560476D01*
X162940857Y-103512857D01*
X163083714Y-103512857D01*
X163178952Y-103560476D01*
X163226571Y-103608095D01*
X163274190Y-103703333D01*
X163274190Y-104084285D01*
X163750380Y-102560476D02*
X163750380Y-103131904D01*
X163750380Y-102846190D02*
X162750380Y-102846190D01*
X162893238Y-102941428D01*
X162988476Y-103036666D01*
X163036095Y-103131904D01*
X163750380Y-101608095D02*
X163750380Y-102179523D01*
X163750380Y-101893809D02*
X162750380Y-101893809D01*
X162893238Y-101989047D01*
X162988476Y-102084285D01*
X163036095Y-102179523D01*
%TO.C,P12*%
X153336380Y-120467285D02*
X152336380Y-120467285D01*
X152336380Y-120086333D01*
X152384000Y-119991095D01*
X152431619Y-119943476D01*
X152526857Y-119895857D01*
X152669714Y-119895857D01*
X152764952Y-119943476D01*
X152812571Y-119991095D01*
X152860190Y-120086333D01*
X152860190Y-120467285D01*
X153336380Y-118943476D02*
X153336380Y-119514904D01*
X153336380Y-119229190D02*
X152336380Y-119229190D01*
X152479238Y-119324428D01*
X152574476Y-119419666D01*
X152622095Y-119514904D01*
X152431619Y-118562523D02*
X152384000Y-118514904D01*
X152336380Y-118419666D01*
X152336380Y-118181571D01*
X152384000Y-118086333D01*
X152431619Y-118038714D01*
X152526857Y-117991095D01*
X152622095Y-117991095D01*
X152764952Y-118038714D01*
X153336380Y-118610142D01*
X153336380Y-117991095D01*
%TO.C,R1R1*%
X174950380Y-112267857D02*
X174474190Y-112601190D01*
X174950380Y-112839285D02*
X173950380Y-112839285D01*
X173950380Y-112458333D01*
X173998000Y-112363095D01*
X174045619Y-112315476D01*
X174140857Y-112267857D01*
X174283714Y-112267857D01*
X174378952Y-112315476D01*
X174426571Y-112363095D01*
X174474190Y-112458333D01*
X174474190Y-112839285D01*
X174950380Y-111315476D02*
X174950380Y-111886904D01*
X174950380Y-111601190D02*
X173950380Y-111601190D01*
X174093238Y-111696428D01*
X174188476Y-111791666D01*
X174236095Y-111886904D01*
X174950380Y-110315476D02*
X174474190Y-110648809D01*
X174950380Y-110886904D02*
X173950380Y-110886904D01*
X173950380Y-110505952D01*
X173998000Y-110410714D01*
X174045619Y-110363095D01*
X174140857Y-110315476D01*
X174283714Y-110315476D01*
X174378952Y-110363095D01*
X174426571Y-110410714D01*
X174474190Y-110505952D01*
X174474190Y-110886904D01*
X174950380Y-109363095D02*
X174950380Y-109934523D01*
X174950380Y-109648809D02*
X173950380Y-109648809D01*
X174093238Y-109744047D01*
X174188476Y-109839285D01*
X174236095Y-109934523D01*
%TO.C,R1W1*%
X134945380Y-95829285D02*
X134469190Y-96162619D01*
X134945380Y-96400714D02*
X133945380Y-96400714D01*
X133945380Y-96019761D01*
X133993000Y-95924523D01*
X134040619Y-95876904D01*
X134135857Y-95829285D01*
X134278714Y-95829285D01*
X134373952Y-95876904D01*
X134421571Y-95924523D01*
X134469190Y-96019761D01*
X134469190Y-96400714D01*
X134945380Y-94876904D02*
X134945380Y-95448333D01*
X134945380Y-95162619D02*
X133945380Y-95162619D01*
X134088238Y-95257857D01*
X134183476Y-95353095D01*
X134231095Y-95448333D01*
X133945380Y-94543571D02*
X134945380Y-94305476D01*
X134231095Y-94115000D01*
X134945380Y-93924523D01*
X133945380Y-93686428D01*
X134945380Y-92781666D02*
X134945380Y-93353095D01*
X134945380Y-93067380D02*
X133945380Y-93067380D01*
X134088238Y-93162619D01*
X134183476Y-93257857D01*
X134231095Y-93353095D01*
%TO.C,R1W2*%
X163520380Y-95829285D02*
X163044190Y-96162619D01*
X163520380Y-96400714D02*
X162520380Y-96400714D01*
X162520380Y-96019761D01*
X162568000Y-95924523D01*
X162615619Y-95876904D01*
X162710857Y-95829285D01*
X162853714Y-95829285D01*
X162948952Y-95876904D01*
X162996571Y-95924523D01*
X163044190Y-96019761D01*
X163044190Y-96400714D01*
X163520380Y-94876904D02*
X163520380Y-95448333D01*
X163520380Y-95162619D02*
X162520380Y-95162619D01*
X162663238Y-95257857D01*
X162758476Y-95353095D01*
X162806095Y-95448333D01*
X162520380Y-94543571D02*
X163520380Y-94305476D01*
X162806095Y-94115000D01*
X163520380Y-93924523D01*
X162520380Y-93686428D01*
X162615619Y-93353095D02*
X162568000Y-93305476D01*
X162520380Y-93210238D01*
X162520380Y-92972142D01*
X162568000Y-92876904D01*
X162615619Y-92829285D01*
X162710857Y-92781666D01*
X162806095Y-92781666D01*
X162948952Y-92829285D01*
X163520380Y-93400714D01*
X163520380Y-92781666D01*
%TO.C,R1W3*%
X148915380Y-112339285D02*
X148439190Y-112672619D01*
X148915380Y-112910714D02*
X147915380Y-112910714D01*
X147915380Y-112529761D01*
X147963000Y-112434523D01*
X148010619Y-112386904D01*
X148105857Y-112339285D01*
X148248714Y-112339285D01*
X148343952Y-112386904D01*
X148391571Y-112434523D01*
X148439190Y-112529761D01*
X148439190Y-112910714D01*
X148915380Y-111386904D02*
X148915380Y-111958333D01*
X148915380Y-111672619D02*
X147915380Y-111672619D01*
X148058238Y-111767857D01*
X148153476Y-111863095D01*
X148201095Y-111958333D01*
X147915380Y-111053571D02*
X148915380Y-110815476D01*
X148201095Y-110625000D01*
X148915380Y-110434523D01*
X147915380Y-110196428D01*
X147915380Y-109910714D02*
X147915380Y-109291666D01*
X148296333Y-109625000D01*
X148296333Y-109482142D01*
X148343952Y-109386904D01*
X148391571Y-109339285D01*
X148486809Y-109291666D01*
X148724904Y-109291666D01*
X148820142Y-109339285D01*
X148867761Y-109386904D01*
X148915380Y-109482142D01*
X148915380Y-109767857D01*
X148867761Y-109863095D01*
X148820142Y-109910714D01*
%TO.C,R2R1*%
X171775380Y-112267857D02*
X171299190Y-112601190D01*
X171775380Y-112839285D02*
X170775380Y-112839285D01*
X170775380Y-112458333D01*
X170823000Y-112363095D01*
X170870619Y-112315476D01*
X170965857Y-112267857D01*
X171108714Y-112267857D01*
X171203952Y-112315476D01*
X171251571Y-112363095D01*
X171299190Y-112458333D01*
X171299190Y-112839285D01*
X170870619Y-111886904D02*
X170823000Y-111839285D01*
X170775380Y-111744047D01*
X170775380Y-111505952D01*
X170823000Y-111410714D01*
X170870619Y-111363095D01*
X170965857Y-111315476D01*
X171061095Y-111315476D01*
X171203952Y-111363095D01*
X171775380Y-111934523D01*
X171775380Y-111315476D01*
X171775380Y-110315476D02*
X171299190Y-110648809D01*
X171775380Y-110886904D02*
X170775380Y-110886904D01*
X170775380Y-110505952D01*
X170823000Y-110410714D01*
X170870619Y-110363095D01*
X170965857Y-110315476D01*
X171108714Y-110315476D01*
X171203952Y-110363095D01*
X171251571Y-110410714D01*
X171299190Y-110505952D01*
X171299190Y-110886904D01*
X171775380Y-109363095D02*
X171775380Y-109934523D01*
X171775380Y-109648809D02*
X170775380Y-109648809D01*
X170918238Y-109744047D01*
X171013476Y-109839285D01*
X171061095Y-109934523D01*
%TO.C,R2W1*%
X131770380Y-95829285D02*
X131294190Y-96162619D01*
X131770380Y-96400714D02*
X130770380Y-96400714D01*
X130770380Y-96019761D01*
X130818000Y-95924523D01*
X130865619Y-95876904D01*
X130960857Y-95829285D01*
X131103714Y-95829285D01*
X131198952Y-95876904D01*
X131246571Y-95924523D01*
X131294190Y-96019761D01*
X131294190Y-96400714D01*
X130865619Y-95448333D02*
X130818000Y-95400714D01*
X130770380Y-95305476D01*
X130770380Y-95067380D01*
X130818000Y-94972142D01*
X130865619Y-94924523D01*
X130960857Y-94876904D01*
X131056095Y-94876904D01*
X131198952Y-94924523D01*
X131770380Y-95495952D01*
X131770380Y-94876904D01*
X130770380Y-94543571D02*
X131770380Y-94305476D01*
X131056095Y-94115000D01*
X131770380Y-93924523D01*
X130770380Y-93686428D01*
X131770380Y-92781666D02*
X131770380Y-93353095D01*
X131770380Y-93067380D02*
X130770380Y-93067380D01*
X130913238Y-93162619D01*
X131008476Y-93257857D01*
X131056095Y-93353095D01*
%TO.C,R2W2*%
X160345380Y-95829285D02*
X159869190Y-96162619D01*
X160345380Y-96400714D02*
X159345380Y-96400714D01*
X159345380Y-96019761D01*
X159393000Y-95924523D01*
X159440619Y-95876904D01*
X159535857Y-95829285D01*
X159678714Y-95829285D01*
X159773952Y-95876904D01*
X159821571Y-95924523D01*
X159869190Y-96019761D01*
X159869190Y-96400714D01*
X159440619Y-95448333D02*
X159393000Y-95400714D01*
X159345380Y-95305476D01*
X159345380Y-95067380D01*
X159393000Y-94972142D01*
X159440619Y-94924523D01*
X159535857Y-94876904D01*
X159631095Y-94876904D01*
X159773952Y-94924523D01*
X160345380Y-95495952D01*
X160345380Y-94876904D01*
X159345380Y-94543571D02*
X160345380Y-94305476D01*
X159631095Y-94115000D01*
X160345380Y-93924523D01*
X159345380Y-93686428D01*
X159440619Y-93353095D02*
X159393000Y-93305476D01*
X159345380Y-93210238D01*
X159345380Y-92972142D01*
X159393000Y-92876904D01*
X159440619Y-92829285D01*
X159535857Y-92781666D01*
X159631095Y-92781666D01*
X159773952Y-92829285D01*
X160345380Y-93400714D01*
X160345380Y-92781666D01*
%TO.C,R2W3*%
X145740380Y-112339285D02*
X145264190Y-112672619D01*
X145740380Y-112910714D02*
X144740380Y-112910714D01*
X144740380Y-112529761D01*
X144788000Y-112434523D01*
X144835619Y-112386904D01*
X144930857Y-112339285D01*
X145073714Y-112339285D01*
X145168952Y-112386904D01*
X145216571Y-112434523D01*
X145264190Y-112529761D01*
X145264190Y-112910714D01*
X144835619Y-111958333D02*
X144788000Y-111910714D01*
X144740380Y-111815476D01*
X144740380Y-111577380D01*
X144788000Y-111482142D01*
X144835619Y-111434523D01*
X144930857Y-111386904D01*
X145026095Y-111386904D01*
X145168952Y-111434523D01*
X145740380Y-112005952D01*
X145740380Y-111386904D01*
X144740380Y-111053571D02*
X145740380Y-110815476D01*
X145026095Y-110625000D01*
X145740380Y-110434523D01*
X144740380Y-110196428D01*
X144740380Y-109910714D02*
X144740380Y-109291666D01*
X145121333Y-109625000D01*
X145121333Y-109482142D01*
X145168952Y-109386904D01*
X145216571Y-109339285D01*
X145311809Y-109291666D01*
X145549904Y-109291666D01*
X145645142Y-109339285D01*
X145692761Y-109386904D01*
X145740380Y-109482142D01*
X145740380Y-109767857D01*
X145692761Y-109863095D01*
X145645142Y-109910714D01*
%TO.C,R3R1*%
X168600380Y-112267857D02*
X168124190Y-112601190D01*
X168600380Y-112839285D02*
X167600380Y-112839285D01*
X167600380Y-112458333D01*
X167648000Y-112363095D01*
X167695619Y-112315476D01*
X167790857Y-112267857D01*
X167933714Y-112267857D01*
X168028952Y-112315476D01*
X168076571Y-112363095D01*
X168124190Y-112458333D01*
X168124190Y-112839285D01*
X167600380Y-111934523D02*
X167600380Y-111315476D01*
X167981333Y-111648809D01*
X167981333Y-111505952D01*
X168028952Y-111410714D01*
X168076571Y-111363095D01*
X168171809Y-111315476D01*
X168409904Y-111315476D01*
X168505142Y-111363095D01*
X168552761Y-111410714D01*
X168600380Y-111505952D01*
X168600380Y-111791666D01*
X168552761Y-111886904D01*
X168505142Y-111934523D01*
X168600380Y-110315476D02*
X168124190Y-110648809D01*
X168600380Y-110886904D02*
X167600380Y-110886904D01*
X167600380Y-110505952D01*
X167648000Y-110410714D01*
X167695619Y-110363095D01*
X167790857Y-110315476D01*
X167933714Y-110315476D01*
X168028952Y-110363095D01*
X168076571Y-110410714D01*
X168124190Y-110505952D01*
X168124190Y-110886904D01*
X168600380Y-109363095D02*
X168600380Y-109934523D01*
X168600380Y-109648809D02*
X167600380Y-109648809D01*
X167743238Y-109744047D01*
X167838476Y-109839285D01*
X167886095Y-109934523D01*
%TO.C,R3W1*%
X128595380Y-95829285D02*
X128119190Y-96162619D01*
X128595380Y-96400714D02*
X127595380Y-96400714D01*
X127595380Y-96019761D01*
X127643000Y-95924523D01*
X127690619Y-95876904D01*
X127785857Y-95829285D01*
X127928714Y-95829285D01*
X128023952Y-95876904D01*
X128071571Y-95924523D01*
X128119190Y-96019761D01*
X128119190Y-96400714D01*
X127595380Y-95495952D02*
X127595380Y-94876904D01*
X127976333Y-95210238D01*
X127976333Y-95067380D01*
X128023952Y-94972142D01*
X128071571Y-94924523D01*
X128166809Y-94876904D01*
X128404904Y-94876904D01*
X128500142Y-94924523D01*
X128547761Y-94972142D01*
X128595380Y-95067380D01*
X128595380Y-95353095D01*
X128547761Y-95448333D01*
X128500142Y-95495952D01*
X127595380Y-94543571D02*
X128595380Y-94305476D01*
X127881095Y-94115000D01*
X128595380Y-93924523D01*
X127595380Y-93686428D01*
X128595380Y-92781666D02*
X128595380Y-93353095D01*
X128595380Y-93067380D02*
X127595380Y-93067380D01*
X127738238Y-93162619D01*
X127833476Y-93257857D01*
X127881095Y-93353095D01*
%TO.C,R3W2*%
X157170380Y-95829285D02*
X156694190Y-96162619D01*
X157170380Y-96400714D02*
X156170380Y-96400714D01*
X156170380Y-96019761D01*
X156218000Y-95924523D01*
X156265619Y-95876904D01*
X156360857Y-95829285D01*
X156503714Y-95829285D01*
X156598952Y-95876904D01*
X156646571Y-95924523D01*
X156694190Y-96019761D01*
X156694190Y-96400714D01*
X156170380Y-95495952D02*
X156170380Y-94876904D01*
X156551333Y-95210238D01*
X156551333Y-95067380D01*
X156598952Y-94972142D01*
X156646571Y-94924523D01*
X156741809Y-94876904D01*
X156979904Y-94876904D01*
X157075142Y-94924523D01*
X157122761Y-94972142D01*
X157170380Y-95067380D01*
X157170380Y-95353095D01*
X157122761Y-95448333D01*
X157075142Y-95495952D01*
X156170380Y-94543571D02*
X157170380Y-94305476D01*
X156456095Y-94115000D01*
X157170380Y-93924523D01*
X156170380Y-93686428D01*
X156265619Y-93353095D02*
X156218000Y-93305476D01*
X156170380Y-93210238D01*
X156170380Y-92972142D01*
X156218000Y-92876904D01*
X156265619Y-92829285D01*
X156360857Y-92781666D01*
X156456095Y-92781666D01*
X156598952Y-92829285D01*
X157170380Y-93400714D01*
X157170380Y-92781666D01*
%TO.C,R3W3*%
X142565380Y-112339285D02*
X142089190Y-112672619D01*
X142565380Y-112910714D02*
X141565380Y-112910714D01*
X141565380Y-112529761D01*
X141613000Y-112434523D01*
X141660619Y-112386904D01*
X141755857Y-112339285D01*
X141898714Y-112339285D01*
X141993952Y-112386904D01*
X142041571Y-112434523D01*
X142089190Y-112529761D01*
X142089190Y-112910714D01*
X141565380Y-112005952D02*
X141565380Y-111386904D01*
X141946333Y-111720238D01*
X141946333Y-111577380D01*
X141993952Y-111482142D01*
X142041571Y-111434523D01*
X142136809Y-111386904D01*
X142374904Y-111386904D01*
X142470142Y-111434523D01*
X142517761Y-111482142D01*
X142565380Y-111577380D01*
X142565380Y-111863095D01*
X142517761Y-111958333D01*
X142470142Y-112005952D01*
X141565380Y-111053571D02*
X142565380Y-110815476D01*
X141851095Y-110625000D01*
X142565380Y-110434523D01*
X141565380Y-110196428D01*
X141565380Y-109910714D02*
X141565380Y-109291666D01*
X141946333Y-109625000D01*
X141946333Y-109482142D01*
X141993952Y-109386904D01*
X142041571Y-109339285D01*
X142136809Y-109291666D01*
X142374904Y-109291666D01*
X142470142Y-109339285D01*
X142517761Y-109386904D01*
X142565380Y-109482142D01*
X142565380Y-109767857D01*
X142517761Y-109863095D01*
X142470142Y-109910714D01*
%TO.C,R4R1*%
X165425380Y-112267857D02*
X164949190Y-112601190D01*
X165425380Y-112839285D02*
X164425380Y-112839285D01*
X164425380Y-112458333D01*
X164473000Y-112363095D01*
X164520619Y-112315476D01*
X164615857Y-112267857D01*
X164758714Y-112267857D01*
X164853952Y-112315476D01*
X164901571Y-112363095D01*
X164949190Y-112458333D01*
X164949190Y-112839285D01*
X164758714Y-111410714D02*
X165425380Y-111410714D01*
X164377761Y-111648809D02*
X165092047Y-111886904D01*
X165092047Y-111267857D01*
X165425380Y-110315476D02*
X164949190Y-110648809D01*
X165425380Y-110886904D02*
X164425380Y-110886904D01*
X164425380Y-110505952D01*
X164473000Y-110410714D01*
X164520619Y-110363095D01*
X164615857Y-110315476D01*
X164758714Y-110315476D01*
X164853952Y-110363095D01*
X164901571Y-110410714D01*
X164949190Y-110505952D01*
X164949190Y-110886904D01*
X165425380Y-109363095D02*
X165425380Y-109934523D01*
X165425380Y-109648809D02*
X164425380Y-109648809D01*
X164568238Y-109744047D01*
X164663476Y-109839285D01*
X164711095Y-109934523D01*
%TO.C,R4W1*%
X125420380Y-95829285D02*
X124944190Y-96162619D01*
X125420380Y-96400714D02*
X124420380Y-96400714D01*
X124420380Y-96019761D01*
X124468000Y-95924523D01*
X124515619Y-95876904D01*
X124610857Y-95829285D01*
X124753714Y-95829285D01*
X124848952Y-95876904D01*
X124896571Y-95924523D01*
X124944190Y-96019761D01*
X124944190Y-96400714D01*
X124753714Y-94972142D02*
X125420380Y-94972142D01*
X124372761Y-95210238D02*
X125087047Y-95448333D01*
X125087047Y-94829285D01*
X124420380Y-94543571D02*
X125420380Y-94305476D01*
X124706095Y-94115000D01*
X125420380Y-93924523D01*
X124420380Y-93686428D01*
X125420380Y-92781666D02*
X125420380Y-93353095D01*
X125420380Y-93067380D02*
X124420380Y-93067380D01*
X124563238Y-93162619D01*
X124658476Y-93257857D01*
X124706095Y-93353095D01*
%TO.C,R4W2*%
X153995380Y-95829285D02*
X153519190Y-96162619D01*
X153995380Y-96400714D02*
X152995380Y-96400714D01*
X152995380Y-96019761D01*
X153043000Y-95924523D01*
X153090619Y-95876904D01*
X153185857Y-95829285D01*
X153328714Y-95829285D01*
X153423952Y-95876904D01*
X153471571Y-95924523D01*
X153519190Y-96019761D01*
X153519190Y-96400714D01*
X153328714Y-94972142D02*
X153995380Y-94972142D01*
X152947761Y-95210238D02*
X153662047Y-95448333D01*
X153662047Y-94829285D01*
X152995380Y-94543571D02*
X153995380Y-94305476D01*
X153281095Y-94115000D01*
X153995380Y-93924523D01*
X152995380Y-93686428D01*
X153090619Y-93353095D02*
X153043000Y-93305476D01*
X152995380Y-93210238D01*
X152995380Y-92972142D01*
X153043000Y-92876904D01*
X153090619Y-92829285D01*
X153185857Y-92781666D01*
X153281095Y-92781666D01*
X153423952Y-92829285D01*
X153995380Y-93400714D01*
X153995380Y-92781666D01*
%TO.C,R4W3*%
X139390380Y-112339285D02*
X138914190Y-112672619D01*
X139390380Y-112910714D02*
X138390380Y-112910714D01*
X138390380Y-112529761D01*
X138438000Y-112434523D01*
X138485619Y-112386904D01*
X138580857Y-112339285D01*
X138723714Y-112339285D01*
X138818952Y-112386904D01*
X138866571Y-112434523D01*
X138914190Y-112529761D01*
X138914190Y-112910714D01*
X138723714Y-111482142D02*
X139390380Y-111482142D01*
X138342761Y-111720238D02*
X139057047Y-111958333D01*
X139057047Y-111339285D01*
X138390380Y-111053571D02*
X139390380Y-110815476D01*
X138676095Y-110625000D01*
X139390380Y-110434523D01*
X138390380Y-110196428D01*
X138390380Y-109910714D02*
X138390380Y-109291666D01*
X138771333Y-109625000D01*
X138771333Y-109482142D01*
X138818952Y-109386904D01*
X138866571Y-109339285D01*
X138961809Y-109291666D01*
X139199904Y-109291666D01*
X139295142Y-109339285D01*
X139342761Y-109386904D01*
X139390380Y-109482142D01*
X139390380Y-109767857D01*
X139342761Y-109863095D01*
X139295142Y-109910714D01*
%TO.C,R5R1*%
X162250380Y-112267857D02*
X161774190Y-112601190D01*
X162250380Y-112839285D02*
X161250380Y-112839285D01*
X161250380Y-112458333D01*
X161298000Y-112363095D01*
X161345619Y-112315476D01*
X161440857Y-112267857D01*
X161583714Y-112267857D01*
X161678952Y-112315476D01*
X161726571Y-112363095D01*
X161774190Y-112458333D01*
X161774190Y-112839285D01*
X161250380Y-111363095D02*
X161250380Y-111839285D01*
X161726571Y-111886904D01*
X161678952Y-111839285D01*
X161631333Y-111744047D01*
X161631333Y-111505952D01*
X161678952Y-111410714D01*
X161726571Y-111363095D01*
X161821809Y-111315476D01*
X162059904Y-111315476D01*
X162155142Y-111363095D01*
X162202761Y-111410714D01*
X162250380Y-111505952D01*
X162250380Y-111744047D01*
X162202761Y-111839285D01*
X162155142Y-111886904D01*
X162250380Y-110315476D02*
X161774190Y-110648809D01*
X162250380Y-110886904D02*
X161250380Y-110886904D01*
X161250380Y-110505952D01*
X161298000Y-110410714D01*
X161345619Y-110363095D01*
X161440857Y-110315476D01*
X161583714Y-110315476D01*
X161678952Y-110363095D01*
X161726571Y-110410714D01*
X161774190Y-110505952D01*
X161774190Y-110886904D01*
X162250380Y-109363095D02*
X162250380Y-109934523D01*
X162250380Y-109648809D02*
X161250380Y-109648809D01*
X161393238Y-109744047D01*
X161488476Y-109839285D01*
X161536095Y-109934523D01*
%TO.C,R5W1*%
X122245380Y-95829285D02*
X121769190Y-96162619D01*
X122245380Y-96400714D02*
X121245380Y-96400714D01*
X121245380Y-96019761D01*
X121293000Y-95924523D01*
X121340619Y-95876904D01*
X121435857Y-95829285D01*
X121578714Y-95829285D01*
X121673952Y-95876904D01*
X121721571Y-95924523D01*
X121769190Y-96019761D01*
X121769190Y-96400714D01*
X121245380Y-94924523D02*
X121245380Y-95400714D01*
X121721571Y-95448333D01*
X121673952Y-95400714D01*
X121626333Y-95305476D01*
X121626333Y-95067380D01*
X121673952Y-94972142D01*
X121721571Y-94924523D01*
X121816809Y-94876904D01*
X122054904Y-94876904D01*
X122150142Y-94924523D01*
X122197761Y-94972142D01*
X122245380Y-95067380D01*
X122245380Y-95305476D01*
X122197761Y-95400714D01*
X122150142Y-95448333D01*
X121245380Y-94543571D02*
X122245380Y-94305476D01*
X121531095Y-94115000D01*
X122245380Y-93924523D01*
X121245380Y-93686428D01*
X122245380Y-92781666D02*
X122245380Y-93353095D01*
X122245380Y-93067380D02*
X121245380Y-93067380D01*
X121388238Y-93162619D01*
X121483476Y-93257857D01*
X121531095Y-93353095D01*
%TO.C,R5W2*%
X150820380Y-95829285D02*
X150344190Y-96162619D01*
X150820380Y-96400714D02*
X149820380Y-96400714D01*
X149820380Y-96019761D01*
X149868000Y-95924523D01*
X149915619Y-95876904D01*
X150010857Y-95829285D01*
X150153714Y-95829285D01*
X150248952Y-95876904D01*
X150296571Y-95924523D01*
X150344190Y-96019761D01*
X150344190Y-96400714D01*
X149820380Y-94924523D02*
X149820380Y-95400714D01*
X150296571Y-95448333D01*
X150248952Y-95400714D01*
X150201333Y-95305476D01*
X150201333Y-95067380D01*
X150248952Y-94972142D01*
X150296571Y-94924523D01*
X150391809Y-94876904D01*
X150629904Y-94876904D01*
X150725142Y-94924523D01*
X150772761Y-94972142D01*
X150820380Y-95067380D01*
X150820380Y-95305476D01*
X150772761Y-95400714D01*
X150725142Y-95448333D01*
X149820380Y-94543571D02*
X150820380Y-94305476D01*
X150106095Y-94115000D01*
X150820380Y-93924523D01*
X149820380Y-93686428D01*
X149915619Y-93353095D02*
X149868000Y-93305476D01*
X149820380Y-93210238D01*
X149820380Y-92972142D01*
X149868000Y-92876904D01*
X149915619Y-92829285D01*
X150010857Y-92781666D01*
X150106095Y-92781666D01*
X150248952Y-92829285D01*
X150820380Y-93400714D01*
X150820380Y-92781666D01*
%TO.C,R5W3*%
X136215380Y-112339285D02*
X135739190Y-112672619D01*
X136215380Y-112910714D02*
X135215380Y-112910714D01*
X135215380Y-112529761D01*
X135263000Y-112434523D01*
X135310619Y-112386904D01*
X135405857Y-112339285D01*
X135548714Y-112339285D01*
X135643952Y-112386904D01*
X135691571Y-112434523D01*
X135739190Y-112529761D01*
X135739190Y-112910714D01*
X135215380Y-111434523D02*
X135215380Y-111910714D01*
X135691571Y-111958333D01*
X135643952Y-111910714D01*
X135596333Y-111815476D01*
X135596333Y-111577380D01*
X135643952Y-111482142D01*
X135691571Y-111434523D01*
X135786809Y-111386904D01*
X136024904Y-111386904D01*
X136120142Y-111434523D01*
X136167761Y-111482142D01*
X136215380Y-111577380D01*
X136215380Y-111815476D01*
X136167761Y-111910714D01*
X136120142Y-111958333D01*
X135215380Y-111053571D02*
X136215380Y-110815476D01*
X135501095Y-110625000D01*
X136215380Y-110434523D01*
X135215380Y-110196428D01*
X135215380Y-109910714D02*
X135215380Y-109291666D01*
X135596333Y-109625000D01*
X135596333Y-109482142D01*
X135643952Y-109386904D01*
X135691571Y-109339285D01*
X135786809Y-109291666D01*
X136024904Y-109291666D01*
X136120142Y-109339285D01*
X136167761Y-109386904D01*
X136215380Y-109482142D01*
X136215380Y-109767857D01*
X136167761Y-109863095D01*
X136120142Y-109910714D01*
%TO.C,R6R1*%
X159075380Y-112267857D02*
X158599190Y-112601190D01*
X159075380Y-112839285D02*
X158075380Y-112839285D01*
X158075380Y-112458333D01*
X158123000Y-112363095D01*
X158170619Y-112315476D01*
X158265857Y-112267857D01*
X158408714Y-112267857D01*
X158503952Y-112315476D01*
X158551571Y-112363095D01*
X158599190Y-112458333D01*
X158599190Y-112839285D01*
X158075380Y-111410714D02*
X158075380Y-111601190D01*
X158123000Y-111696428D01*
X158170619Y-111744047D01*
X158313476Y-111839285D01*
X158503952Y-111886904D01*
X158884904Y-111886904D01*
X158980142Y-111839285D01*
X159027761Y-111791666D01*
X159075380Y-111696428D01*
X159075380Y-111505952D01*
X159027761Y-111410714D01*
X158980142Y-111363095D01*
X158884904Y-111315476D01*
X158646809Y-111315476D01*
X158551571Y-111363095D01*
X158503952Y-111410714D01*
X158456333Y-111505952D01*
X158456333Y-111696428D01*
X158503952Y-111791666D01*
X158551571Y-111839285D01*
X158646809Y-111886904D01*
X159075380Y-110315476D02*
X158599190Y-110648809D01*
X159075380Y-110886904D02*
X158075380Y-110886904D01*
X158075380Y-110505952D01*
X158123000Y-110410714D01*
X158170619Y-110363095D01*
X158265857Y-110315476D01*
X158408714Y-110315476D01*
X158503952Y-110363095D01*
X158551571Y-110410714D01*
X158599190Y-110505952D01*
X158599190Y-110886904D01*
X159075380Y-109363095D02*
X159075380Y-109934523D01*
X159075380Y-109648809D02*
X158075380Y-109648809D01*
X158218238Y-109744047D01*
X158313476Y-109839285D01*
X158361095Y-109934523D01*
%TO.C,R6W1*%
X119070380Y-95829285D02*
X118594190Y-96162619D01*
X119070380Y-96400714D02*
X118070380Y-96400714D01*
X118070380Y-96019761D01*
X118118000Y-95924523D01*
X118165619Y-95876904D01*
X118260857Y-95829285D01*
X118403714Y-95829285D01*
X118498952Y-95876904D01*
X118546571Y-95924523D01*
X118594190Y-96019761D01*
X118594190Y-96400714D01*
X118070380Y-94972142D02*
X118070380Y-95162619D01*
X118118000Y-95257857D01*
X118165619Y-95305476D01*
X118308476Y-95400714D01*
X118498952Y-95448333D01*
X118879904Y-95448333D01*
X118975142Y-95400714D01*
X119022761Y-95353095D01*
X119070380Y-95257857D01*
X119070380Y-95067380D01*
X119022761Y-94972142D01*
X118975142Y-94924523D01*
X118879904Y-94876904D01*
X118641809Y-94876904D01*
X118546571Y-94924523D01*
X118498952Y-94972142D01*
X118451333Y-95067380D01*
X118451333Y-95257857D01*
X118498952Y-95353095D01*
X118546571Y-95400714D01*
X118641809Y-95448333D01*
X118070380Y-94543571D02*
X119070380Y-94305476D01*
X118356095Y-94115000D01*
X119070380Y-93924523D01*
X118070380Y-93686428D01*
X119070380Y-92781666D02*
X119070380Y-93353095D01*
X119070380Y-93067380D02*
X118070380Y-93067380D01*
X118213238Y-93162619D01*
X118308476Y-93257857D01*
X118356095Y-93353095D01*
%TO.C,R6W2*%
X147645380Y-95829285D02*
X147169190Y-96162619D01*
X147645380Y-96400714D02*
X146645380Y-96400714D01*
X146645380Y-96019761D01*
X146693000Y-95924523D01*
X146740619Y-95876904D01*
X146835857Y-95829285D01*
X146978714Y-95829285D01*
X147073952Y-95876904D01*
X147121571Y-95924523D01*
X147169190Y-96019761D01*
X147169190Y-96400714D01*
X146645380Y-94972142D02*
X146645380Y-95162619D01*
X146693000Y-95257857D01*
X146740619Y-95305476D01*
X146883476Y-95400714D01*
X147073952Y-95448333D01*
X147454904Y-95448333D01*
X147550142Y-95400714D01*
X147597761Y-95353095D01*
X147645380Y-95257857D01*
X147645380Y-95067380D01*
X147597761Y-94972142D01*
X147550142Y-94924523D01*
X147454904Y-94876904D01*
X147216809Y-94876904D01*
X147121571Y-94924523D01*
X147073952Y-94972142D01*
X147026333Y-95067380D01*
X147026333Y-95257857D01*
X147073952Y-95353095D01*
X147121571Y-95400714D01*
X147216809Y-95448333D01*
X146645380Y-94543571D02*
X147645380Y-94305476D01*
X146931095Y-94115000D01*
X147645380Y-93924523D01*
X146645380Y-93686428D01*
X146740619Y-93353095D02*
X146693000Y-93305476D01*
X146645380Y-93210238D01*
X146645380Y-92972142D01*
X146693000Y-92876904D01*
X146740619Y-92829285D01*
X146835857Y-92781666D01*
X146931095Y-92781666D01*
X147073952Y-92829285D01*
X147645380Y-93400714D01*
X147645380Y-92781666D01*
%TO.C,R6W3*%
X133040380Y-112339285D02*
X132564190Y-112672619D01*
X133040380Y-112910714D02*
X132040380Y-112910714D01*
X132040380Y-112529761D01*
X132088000Y-112434523D01*
X132135619Y-112386904D01*
X132230857Y-112339285D01*
X132373714Y-112339285D01*
X132468952Y-112386904D01*
X132516571Y-112434523D01*
X132564190Y-112529761D01*
X132564190Y-112910714D01*
X132040380Y-111482142D02*
X132040380Y-111672619D01*
X132088000Y-111767857D01*
X132135619Y-111815476D01*
X132278476Y-111910714D01*
X132468952Y-111958333D01*
X132849904Y-111958333D01*
X132945142Y-111910714D01*
X132992761Y-111863095D01*
X133040380Y-111767857D01*
X133040380Y-111577380D01*
X132992761Y-111482142D01*
X132945142Y-111434523D01*
X132849904Y-111386904D01*
X132611809Y-111386904D01*
X132516571Y-111434523D01*
X132468952Y-111482142D01*
X132421333Y-111577380D01*
X132421333Y-111767857D01*
X132468952Y-111863095D01*
X132516571Y-111910714D01*
X132611809Y-111958333D01*
X132040380Y-111053571D02*
X133040380Y-110815476D01*
X132326095Y-110625000D01*
X133040380Y-110434523D01*
X132040380Y-110196428D01*
X132040380Y-109910714D02*
X132040380Y-109291666D01*
X132421333Y-109625000D01*
X132421333Y-109482142D01*
X132468952Y-109386904D01*
X132516571Y-109339285D01*
X132611809Y-109291666D01*
X132849904Y-109291666D01*
X132945142Y-109339285D01*
X132992761Y-109386904D01*
X133040380Y-109482142D01*
X133040380Y-109767857D01*
X132992761Y-109863095D01*
X132945142Y-109910714D01*
%TO.C,R7R1*%
X155900380Y-112267857D02*
X155424190Y-112601190D01*
X155900380Y-112839285D02*
X154900380Y-112839285D01*
X154900380Y-112458333D01*
X154948000Y-112363095D01*
X154995619Y-112315476D01*
X155090857Y-112267857D01*
X155233714Y-112267857D01*
X155328952Y-112315476D01*
X155376571Y-112363095D01*
X155424190Y-112458333D01*
X155424190Y-112839285D01*
X154900380Y-111934523D02*
X154900380Y-111267857D01*
X155900380Y-111696428D01*
X155900380Y-110315476D02*
X155424190Y-110648809D01*
X155900380Y-110886904D02*
X154900380Y-110886904D01*
X154900380Y-110505952D01*
X154948000Y-110410714D01*
X154995619Y-110363095D01*
X155090857Y-110315476D01*
X155233714Y-110315476D01*
X155328952Y-110363095D01*
X155376571Y-110410714D01*
X155424190Y-110505952D01*
X155424190Y-110886904D01*
X155900380Y-109363095D02*
X155900380Y-109934523D01*
X155900380Y-109648809D02*
X154900380Y-109648809D01*
X155043238Y-109744047D01*
X155138476Y-109839285D01*
X155186095Y-109934523D01*
%TO.C,R7W1*%
X115895380Y-95829285D02*
X115419190Y-96162619D01*
X115895380Y-96400714D02*
X114895380Y-96400714D01*
X114895380Y-96019761D01*
X114943000Y-95924523D01*
X114990619Y-95876904D01*
X115085857Y-95829285D01*
X115228714Y-95829285D01*
X115323952Y-95876904D01*
X115371571Y-95924523D01*
X115419190Y-96019761D01*
X115419190Y-96400714D01*
X114895380Y-95495952D02*
X114895380Y-94829285D01*
X115895380Y-95257857D01*
X114895380Y-94543571D02*
X115895380Y-94305476D01*
X115181095Y-94115000D01*
X115895380Y-93924523D01*
X114895380Y-93686428D01*
X115895380Y-92781666D02*
X115895380Y-93353095D01*
X115895380Y-93067380D02*
X114895380Y-93067380D01*
X115038238Y-93162619D01*
X115133476Y-93257857D01*
X115181095Y-93353095D01*
%TO.C,R7W2*%
X144470380Y-95829285D02*
X143994190Y-96162619D01*
X144470380Y-96400714D02*
X143470380Y-96400714D01*
X143470380Y-96019761D01*
X143518000Y-95924523D01*
X143565619Y-95876904D01*
X143660857Y-95829285D01*
X143803714Y-95829285D01*
X143898952Y-95876904D01*
X143946571Y-95924523D01*
X143994190Y-96019761D01*
X143994190Y-96400714D01*
X143470380Y-95495952D02*
X143470380Y-94829285D01*
X144470380Y-95257857D01*
X143470380Y-94543571D02*
X144470380Y-94305476D01*
X143756095Y-94115000D01*
X144470380Y-93924523D01*
X143470380Y-93686428D01*
X143565619Y-93353095D02*
X143518000Y-93305476D01*
X143470380Y-93210238D01*
X143470380Y-92972142D01*
X143518000Y-92876904D01*
X143565619Y-92829285D01*
X143660857Y-92781666D01*
X143756095Y-92781666D01*
X143898952Y-92829285D01*
X144470380Y-93400714D01*
X144470380Y-92781666D01*
%TO.C,R7W3*%
X129865380Y-112339285D02*
X129389190Y-112672619D01*
X129865380Y-112910714D02*
X128865380Y-112910714D01*
X128865380Y-112529761D01*
X128913000Y-112434523D01*
X128960619Y-112386904D01*
X129055857Y-112339285D01*
X129198714Y-112339285D01*
X129293952Y-112386904D01*
X129341571Y-112434523D01*
X129389190Y-112529761D01*
X129389190Y-112910714D01*
X128865380Y-112005952D02*
X128865380Y-111339285D01*
X129865380Y-111767857D01*
X128865380Y-111053571D02*
X129865380Y-110815476D01*
X129151095Y-110625000D01*
X129865380Y-110434523D01*
X128865380Y-110196428D01*
X128865380Y-109910714D02*
X128865380Y-109291666D01*
X129246333Y-109625000D01*
X129246333Y-109482142D01*
X129293952Y-109386904D01*
X129341571Y-109339285D01*
X129436809Y-109291666D01*
X129674904Y-109291666D01*
X129770142Y-109339285D01*
X129817761Y-109386904D01*
X129865380Y-109482142D01*
X129865380Y-109767857D01*
X129817761Y-109863095D01*
X129770142Y-109910714D01*
%TO.C,R8R1*%
X152725380Y-112267857D02*
X152249190Y-112601190D01*
X152725380Y-112839285D02*
X151725380Y-112839285D01*
X151725380Y-112458333D01*
X151773000Y-112363095D01*
X151820619Y-112315476D01*
X151915857Y-112267857D01*
X152058714Y-112267857D01*
X152153952Y-112315476D01*
X152201571Y-112363095D01*
X152249190Y-112458333D01*
X152249190Y-112839285D01*
X152153952Y-111696428D02*
X152106333Y-111791666D01*
X152058714Y-111839285D01*
X151963476Y-111886904D01*
X151915857Y-111886904D01*
X151820619Y-111839285D01*
X151773000Y-111791666D01*
X151725380Y-111696428D01*
X151725380Y-111505952D01*
X151773000Y-111410714D01*
X151820619Y-111363095D01*
X151915857Y-111315476D01*
X151963476Y-111315476D01*
X152058714Y-111363095D01*
X152106333Y-111410714D01*
X152153952Y-111505952D01*
X152153952Y-111696428D01*
X152201571Y-111791666D01*
X152249190Y-111839285D01*
X152344428Y-111886904D01*
X152534904Y-111886904D01*
X152630142Y-111839285D01*
X152677761Y-111791666D01*
X152725380Y-111696428D01*
X152725380Y-111505952D01*
X152677761Y-111410714D01*
X152630142Y-111363095D01*
X152534904Y-111315476D01*
X152344428Y-111315476D01*
X152249190Y-111363095D01*
X152201571Y-111410714D01*
X152153952Y-111505952D01*
X152725380Y-110315476D02*
X152249190Y-110648809D01*
X152725380Y-110886904D02*
X151725380Y-110886904D01*
X151725380Y-110505952D01*
X151773000Y-110410714D01*
X151820619Y-110363095D01*
X151915857Y-110315476D01*
X152058714Y-110315476D01*
X152153952Y-110363095D01*
X152201571Y-110410714D01*
X152249190Y-110505952D01*
X152249190Y-110886904D01*
X152725380Y-109363095D02*
X152725380Y-109934523D01*
X152725380Y-109648809D02*
X151725380Y-109648809D01*
X151868238Y-109744047D01*
X151963476Y-109839285D01*
X152011095Y-109934523D01*
%TO.C,R8W2*%
X141295380Y-95829285D02*
X140819190Y-96162619D01*
X141295380Y-96400714D02*
X140295380Y-96400714D01*
X140295380Y-96019761D01*
X140343000Y-95924523D01*
X140390619Y-95876904D01*
X140485857Y-95829285D01*
X140628714Y-95829285D01*
X140723952Y-95876904D01*
X140771571Y-95924523D01*
X140819190Y-96019761D01*
X140819190Y-96400714D01*
X140723952Y-95257857D02*
X140676333Y-95353095D01*
X140628714Y-95400714D01*
X140533476Y-95448333D01*
X140485857Y-95448333D01*
X140390619Y-95400714D01*
X140343000Y-95353095D01*
X140295380Y-95257857D01*
X140295380Y-95067380D01*
X140343000Y-94972142D01*
X140390619Y-94924523D01*
X140485857Y-94876904D01*
X140533476Y-94876904D01*
X140628714Y-94924523D01*
X140676333Y-94972142D01*
X140723952Y-95067380D01*
X140723952Y-95257857D01*
X140771571Y-95353095D01*
X140819190Y-95400714D01*
X140914428Y-95448333D01*
X141104904Y-95448333D01*
X141200142Y-95400714D01*
X141247761Y-95353095D01*
X141295380Y-95257857D01*
X141295380Y-95067380D01*
X141247761Y-94972142D01*
X141200142Y-94924523D01*
X141104904Y-94876904D01*
X140914428Y-94876904D01*
X140819190Y-94924523D01*
X140771571Y-94972142D01*
X140723952Y-95067380D01*
X140295380Y-94543571D02*
X141295380Y-94305476D01*
X140581095Y-94115000D01*
X141295380Y-93924523D01*
X140295380Y-93686428D01*
X140390619Y-93353095D02*
X140343000Y-93305476D01*
X140295380Y-93210238D01*
X140295380Y-92972142D01*
X140343000Y-92876904D01*
X140390619Y-92829285D01*
X140485857Y-92781666D01*
X140581095Y-92781666D01*
X140723952Y-92829285D01*
X141295380Y-93400714D01*
X141295380Y-92781666D01*
%TO.C,R8W3*%
X126690380Y-112339285D02*
X126214190Y-112672619D01*
X126690380Y-112910714D02*
X125690380Y-112910714D01*
X125690380Y-112529761D01*
X125738000Y-112434523D01*
X125785619Y-112386904D01*
X125880857Y-112339285D01*
X126023714Y-112339285D01*
X126118952Y-112386904D01*
X126166571Y-112434523D01*
X126214190Y-112529761D01*
X126214190Y-112910714D01*
X126118952Y-111767857D02*
X126071333Y-111863095D01*
X126023714Y-111910714D01*
X125928476Y-111958333D01*
X125880857Y-111958333D01*
X125785619Y-111910714D01*
X125738000Y-111863095D01*
X125690380Y-111767857D01*
X125690380Y-111577380D01*
X125738000Y-111482142D01*
X125785619Y-111434523D01*
X125880857Y-111386904D01*
X125928476Y-111386904D01*
X126023714Y-111434523D01*
X126071333Y-111482142D01*
X126118952Y-111577380D01*
X126118952Y-111767857D01*
X126166571Y-111863095D01*
X126214190Y-111910714D01*
X126309428Y-111958333D01*
X126499904Y-111958333D01*
X126595142Y-111910714D01*
X126642761Y-111863095D01*
X126690380Y-111767857D01*
X126690380Y-111577380D01*
X126642761Y-111482142D01*
X126595142Y-111434523D01*
X126499904Y-111386904D01*
X126309428Y-111386904D01*
X126214190Y-111434523D01*
X126166571Y-111482142D01*
X126118952Y-111577380D01*
X125690380Y-111053571D02*
X126690380Y-110815476D01*
X125976095Y-110625000D01*
X126690380Y-110434523D01*
X125690380Y-110196428D01*
X125690380Y-109910714D02*
X125690380Y-109291666D01*
X126071333Y-109625000D01*
X126071333Y-109482142D01*
X126118952Y-109386904D01*
X126166571Y-109339285D01*
X126261809Y-109291666D01*
X126499904Y-109291666D01*
X126595142Y-109339285D01*
X126642761Y-109386904D01*
X126690380Y-109482142D01*
X126690380Y-109767857D01*
X126642761Y-109863095D01*
X126595142Y-109910714D01*
%TO.C,RRM1*%
X171354904Y-102687380D02*
X171021571Y-102211190D01*
X170783476Y-102687380D02*
X170783476Y-101687380D01*
X171164428Y-101687380D01*
X171259666Y-101735000D01*
X171307285Y-101782619D01*
X171354904Y-101877857D01*
X171354904Y-102020714D01*
X171307285Y-102115952D01*
X171259666Y-102163571D01*
X171164428Y-102211190D01*
X170783476Y-102211190D01*
X172354904Y-102687380D02*
X172021571Y-102211190D01*
X171783476Y-102687380D02*
X171783476Y-101687380D01*
X172164428Y-101687380D01*
X172259666Y-101735000D01*
X172307285Y-101782619D01*
X172354904Y-101877857D01*
X172354904Y-102020714D01*
X172307285Y-102115952D01*
X172259666Y-102163571D01*
X172164428Y-102211190D01*
X171783476Y-102211190D01*
X172783476Y-102687380D02*
X172783476Y-101687380D01*
X173116809Y-102401666D01*
X173450142Y-101687380D01*
X173450142Y-102687380D01*
X174450142Y-102687380D02*
X173878714Y-102687380D01*
X174164428Y-102687380D02*
X174164428Y-101687380D01*
X174069190Y-101830238D01*
X173973952Y-101925476D01*
X173878714Y-101973095D01*
%TO.C,RWM1*%
X138120380Y-85129523D02*
X137644190Y-85462857D01*
X138120380Y-85700952D02*
X137120380Y-85700952D01*
X137120380Y-85320000D01*
X137168000Y-85224761D01*
X137215619Y-85177142D01*
X137310857Y-85129523D01*
X137453714Y-85129523D01*
X137548952Y-85177142D01*
X137596571Y-85224761D01*
X137644190Y-85320000D01*
X137644190Y-85700952D01*
X137120380Y-84796190D02*
X138120380Y-84558095D01*
X137406095Y-84367619D01*
X138120380Y-84177142D01*
X137120380Y-83939047D01*
X138120380Y-83558095D02*
X137120380Y-83558095D01*
X137834666Y-83224761D01*
X137120380Y-82891428D01*
X138120380Y-82891428D01*
X138120380Y-81891428D02*
X138120380Y-82462857D01*
X138120380Y-82177142D02*
X137120380Y-82177142D01*
X137263238Y-82272380D01*
X137358476Y-82367619D01*
X137406095Y-82462857D01*
%TO.C,RWM2*%
X138120380Y-98464523D02*
X137644190Y-98797857D01*
X138120380Y-99035952D02*
X137120380Y-99035952D01*
X137120380Y-98655000D01*
X137168000Y-98559761D01*
X137215619Y-98512142D01*
X137310857Y-98464523D01*
X137453714Y-98464523D01*
X137548952Y-98512142D01*
X137596571Y-98559761D01*
X137644190Y-98655000D01*
X137644190Y-99035952D01*
X137120380Y-98131190D02*
X138120380Y-97893095D01*
X137406095Y-97702619D01*
X138120380Y-97512142D01*
X137120380Y-97274047D01*
X138120380Y-96893095D02*
X137120380Y-96893095D01*
X137834666Y-96559761D01*
X137120380Y-96226428D01*
X138120380Y-96226428D01*
X137215619Y-95797857D02*
X137168000Y-95750238D01*
X137120380Y-95655000D01*
X137120380Y-95416904D01*
X137168000Y-95321666D01*
X137215619Y-95274047D01*
X137310857Y-95226428D01*
X137406095Y-95226428D01*
X137548952Y-95274047D01*
X138120380Y-95845476D01*
X138120380Y-95226428D01*
%TO.C,RWM3*%
X123515380Y-114974523D02*
X123039190Y-115307857D01*
X123515380Y-115545952D02*
X122515380Y-115545952D01*
X122515380Y-115165000D01*
X122563000Y-115069761D01*
X122610619Y-115022142D01*
X122705857Y-114974523D01*
X122848714Y-114974523D01*
X122943952Y-115022142D01*
X122991571Y-115069761D01*
X123039190Y-115165000D01*
X123039190Y-115545952D01*
X122515380Y-114641190D02*
X123515380Y-114403095D01*
X122801095Y-114212619D01*
X123515380Y-114022142D01*
X122515380Y-113784047D01*
X123515380Y-113403095D02*
X122515380Y-113403095D01*
X123229666Y-113069761D01*
X122515380Y-112736428D01*
X123515380Y-112736428D01*
X122515380Y-112355476D02*
X122515380Y-111736428D01*
X122896333Y-112069761D01*
X122896333Y-111926904D01*
X122943952Y-111831666D01*
X122991571Y-111784047D01*
X123086809Y-111736428D01*
X123324904Y-111736428D01*
X123420142Y-111784047D01*
X123467761Y-111831666D01*
X123515380Y-111926904D01*
X123515380Y-112212619D01*
X123467761Y-112307857D01*
X123420142Y-112355476D01*
%TO.C,ScreenConn1*%
X124111333Y-126134761D02*
X124254190Y-126182380D01*
X124492285Y-126182380D01*
X124587523Y-126134761D01*
X124635142Y-126087142D01*
X124682761Y-125991904D01*
X124682761Y-125896666D01*
X124635142Y-125801428D01*
X124587523Y-125753809D01*
X124492285Y-125706190D01*
X124301809Y-125658571D01*
X124206571Y-125610952D01*
X124158952Y-125563333D01*
X124111333Y-125468095D01*
X124111333Y-125372857D01*
X124158952Y-125277619D01*
X124206571Y-125230000D01*
X124301809Y-125182380D01*
X124539904Y-125182380D01*
X124682761Y-125230000D01*
X125539904Y-126134761D02*
X125444666Y-126182380D01*
X125254190Y-126182380D01*
X125158952Y-126134761D01*
X125111333Y-126087142D01*
X125063714Y-125991904D01*
X125063714Y-125706190D01*
X125111333Y-125610952D01*
X125158952Y-125563333D01*
X125254190Y-125515714D01*
X125444666Y-125515714D01*
X125539904Y-125563333D01*
X125968476Y-126182380D02*
X125968476Y-125515714D01*
X125968476Y-125706190D02*
X126016095Y-125610952D01*
X126063714Y-125563333D01*
X126158952Y-125515714D01*
X126254190Y-125515714D01*
X126968476Y-126134761D02*
X126873238Y-126182380D01*
X126682761Y-126182380D01*
X126587523Y-126134761D01*
X126539904Y-126039523D01*
X126539904Y-125658571D01*
X126587523Y-125563333D01*
X126682761Y-125515714D01*
X126873238Y-125515714D01*
X126968476Y-125563333D01*
X127016095Y-125658571D01*
X127016095Y-125753809D01*
X126539904Y-125849047D01*
X127825619Y-126134761D02*
X127730380Y-126182380D01*
X127539904Y-126182380D01*
X127444666Y-126134761D01*
X127397047Y-126039523D01*
X127397047Y-125658571D01*
X127444666Y-125563333D01*
X127539904Y-125515714D01*
X127730380Y-125515714D01*
X127825619Y-125563333D01*
X127873238Y-125658571D01*
X127873238Y-125753809D01*
X127397047Y-125849047D01*
X128301809Y-125515714D02*
X128301809Y-126182380D01*
X128301809Y-125610952D02*
X128349428Y-125563333D01*
X128444666Y-125515714D01*
X128587523Y-125515714D01*
X128682761Y-125563333D01*
X128730380Y-125658571D01*
X128730380Y-126182380D01*
X129778000Y-126087142D02*
X129730380Y-126134761D01*
X129587523Y-126182380D01*
X129492285Y-126182380D01*
X129349428Y-126134761D01*
X129254190Y-126039523D01*
X129206571Y-125944285D01*
X129158952Y-125753809D01*
X129158952Y-125610952D01*
X129206571Y-125420476D01*
X129254190Y-125325238D01*
X129349428Y-125230000D01*
X129492285Y-125182380D01*
X129587523Y-125182380D01*
X129730380Y-125230000D01*
X129778000Y-125277619D01*
X130349428Y-126182380D02*
X130254190Y-126134761D01*
X130206571Y-126087142D01*
X130158952Y-125991904D01*
X130158952Y-125706190D01*
X130206571Y-125610952D01*
X130254190Y-125563333D01*
X130349428Y-125515714D01*
X130492285Y-125515714D01*
X130587523Y-125563333D01*
X130635142Y-125610952D01*
X130682761Y-125706190D01*
X130682761Y-125991904D01*
X130635142Y-126087142D01*
X130587523Y-126134761D01*
X130492285Y-126182380D01*
X130349428Y-126182380D01*
X131111333Y-125515714D02*
X131111333Y-126182380D01*
X131111333Y-125610952D02*
X131158952Y-125563333D01*
X131254190Y-125515714D01*
X131397047Y-125515714D01*
X131492285Y-125563333D01*
X131539904Y-125658571D01*
X131539904Y-126182380D01*
X132016095Y-125515714D02*
X132016095Y-126182380D01*
X132016095Y-125610952D02*
X132063714Y-125563333D01*
X132158952Y-125515714D01*
X132301809Y-125515714D01*
X132397047Y-125563333D01*
X132444666Y-125658571D01*
X132444666Y-126182380D01*
X133444666Y-126182380D02*
X132873238Y-126182380D01*
X133158952Y-126182380D02*
X133158952Y-125182380D01*
X133063714Y-125325238D01*
X132968476Y-125420476D01*
X132873238Y-125468095D01*
%TO.C,WRITEMUX2*%
X162310380Y-87232619D02*
X163310380Y-86994523D01*
X162596095Y-86804047D01*
X163310380Y-86613571D01*
X162310380Y-86375476D01*
X163310380Y-85423095D02*
X162834190Y-85756428D01*
X163310380Y-85994523D02*
X162310380Y-85994523D01*
X162310380Y-85613571D01*
X162358000Y-85518333D01*
X162405619Y-85470714D01*
X162500857Y-85423095D01*
X162643714Y-85423095D01*
X162738952Y-85470714D01*
X162786571Y-85518333D01*
X162834190Y-85613571D01*
X162834190Y-85994523D01*
X163310380Y-84994523D02*
X162310380Y-84994523D01*
X162310380Y-84661190D02*
X162310380Y-84089761D01*
X163310380Y-84375476D02*
X162310380Y-84375476D01*
X162786571Y-83756428D02*
X162786571Y-83423095D01*
X163310380Y-83280238D02*
X163310380Y-83756428D01*
X162310380Y-83756428D01*
X162310380Y-83280238D01*
X163310380Y-82851666D02*
X162310380Y-82851666D01*
X163024666Y-82518333D01*
X162310380Y-82185000D01*
X163310380Y-82185000D01*
X162310380Y-81708809D02*
X163119904Y-81708809D01*
X163215142Y-81661190D01*
X163262761Y-81613571D01*
X163310380Y-81518333D01*
X163310380Y-81327857D01*
X163262761Y-81232619D01*
X163215142Y-81185000D01*
X163119904Y-81137380D01*
X162310380Y-81137380D01*
X162310380Y-80756428D02*
X163310380Y-80089761D01*
X162310380Y-80089761D02*
X163310380Y-80756428D01*
X162405619Y-79756428D02*
X162358000Y-79708809D01*
X162310380Y-79613571D01*
X162310380Y-79375476D01*
X162358000Y-79280238D01*
X162405619Y-79232619D01*
X162500857Y-79185000D01*
X162596095Y-79185000D01*
X162738952Y-79232619D01*
X163310380Y-79804047D01*
X163310380Y-79185000D01*
%TO.C,WRITEMUX3*%
X115530380Y-118728619D02*
X116530380Y-118490523D01*
X115816095Y-118300047D01*
X116530380Y-118109571D01*
X115530380Y-117871476D01*
X116530380Y-116919095D02*
X116054190Y-117252428D01*
X116530380Y-117490523D02*
X115530380Y-117490523D01*
X115530380Y-117109571D01*
X115578000Y-117014333D01*
X115625619Y-116966714D01*
X115720857Y-116919095D01*
X115863714Y-116919095D01*
X115958952Y-116966714D01*
X116006571Y-117014333D01*
X116054190Y-117109571D01*
X116054190Y-117490523D01*
X116530380Y-116490523D02*
X115530380Y-116490523D01*
X115530380Y-116157190D02*
X115530380Y-115585761D01*
X116530380Y-115871476D02*
X115530380Y-115871476D01*
X116006571Y-115252428D02*
X116006571Y-114919095D01*
X116530380Y-114776238D02*
X116530380Y-115252428D01*
X115530380Y-115252428D01*
X115530380Y-114776238D01*
X116530380Y-114347666D02*
X115530380Y-114347666D01*
X116244666Y-114014333D01*
X115530380Y-113681000D01*
X116530380Y-113681000D01*
X115530380Y-113204809D02*
X116339904Y-113204809D01*
X116435142Y-113157190D01*
X116482761Y-113109571D01*
X116530380Y-113014333D01*
X116530380Y-112823857D01*
X116482761Y-112728619D01*
X116435142Y-112681000D01*
X116339904Y-112633380D01*
X115530380Y-112633380D01*
X115530380Y-112252428D02*
X116530380Y-111585761D01*
X115530380Y-111585761D02*
X116530380Y-112252428D01*
X115530380Y-111300047D02*
X115530380Y-110681000D01*
X115911333Y-111014333D01*
X115911333Y-110871476D01*
X115958952Y-110776238D01*
X116006571Y-110728619D01*
X116101809Y-110681000D01*
X116339904Y-110681000D01*
X116435142Y-110728619D01*
X116482761Y-110776238D01*
X116530380Y-110871476D01*
X116530380Y-111157190D01*
X116482761Y-111252428D01*
X116435142Y-111300047D01*
%TD*%
M02*
