%TF.GenerationSoftware,KiCad,Pcbnew,(5.1.6)-1*%
%TF.CreationDate,2020-07-22T23:00:20+02:00*%
%TF.ProjectId,circuit,63697263-7569-4742-9e6b-696361645f70,rev?*%
%TF.SameCoordinates,Original*%
%TF.FileFunction,Copper,L1,Top*%
%TF.FilePolarity,Positive*%
%FSLAX46Y46*%
G04 Gerber Fmt 4.6, Leading zero omitted, Abs format (unit mm)*
G04 Created by KiCad (PCBNEW (5.1.6)-1) date 2020-07-22 23:00:20*
%MOMM*%
%LPD*%
G01*
G04 APERTURE LIST*
%TA.AperFunction,ComponentPad*%
%ADD10O,1.600000X1.600000*%
%TD*%
%TA.AperFunction,ComponentPad*%
%ADD11R,1.600000X1.600000*%
%TD*%
%TA.AperFunction,ComponentPad*%
%ADD12C,1.600000*%
%TD*%
%TA.AperFunction,ComponentPad*%
%ADD13R,1.700000X1.700000*%
%TD*%
%TA.AperFunction,ComponentPad*%
%ADD14O,1.700000X1.700000*%
%TD*%
%TA.AperFunction,ComponentPad*%
%ADD15O,1.727200X2.032000*%
%TD*%
%TA.AperFunction,ComponentPad*%
%ADD16C,4.064000*%
%TD*%
%TA.AperFunction,ViaPad*%
%ADD17C,0.600000*%
%TD*%
%TA.AperFunction,Conductor*%
%ADD18C,0.250000*%
%TD*%
%TA.AperFunction,Conductor*%
%ADD19C,0.254000*%
%TD*%
G04 APERTURE END LIST*
D10*
%TO.P,READMUX1,16*%
%TO.N,+5V*%
X173482000Y-80137000D03*
%TO.P,READMUX1,8*%
%TO.N,GND*%
X165862000Y-97917000D03*
%TO.P,READMUX1,15*%
%TO.N,Net-(P9-Pad3)*%
X173482000Y-82677000D03*
%TO.P,READMUX1,7*%
%TO.N,GND*%
X165862000Y-95377000D03*
%TO.P,READMUX1,14*%
%TO.N,Net-(P9-Pad2)*%
X173482000Y-85217000D03*
%TO.P,READMUX1,6*%
%TO.N,GND*%
X165862000Y-92837000D03*
%TO.P,READMUX1,13*%
%TO.N,Net-(P9-Pad1)*%
X173482000Y-87757000D03*
%TO.P,READMUX1,5*%
%TO.N,Net-(P9-Pad6)*%
X165862000Y-90297000D03*
%TO.P,READMUX1,12*%
%TO.N,Net-(P9-Pad4)*%
X173482000Y-90297000D03*
%TO.P,READMUX1,4*%
%TO.N,Net-(P9-Pad8)*%
X165862000Y-87757000D03*
%TO.P,READMUX1,11*%
%TO.N,/5(\u002A\u002A)*%
X173482000Y-92837000D03*
%TO.P,READMUX1,3*%
%TO.N,Net-(READMUX1-Pad3)*%
X165862000Y-85217000D03*
%TO.P,READMUX1,10*%
%TO.N,/6(\u002A\u002A)*%
X173482000Y-95377000D03*
%TO.P,READMUX1,2*%
%TO.N,Net-(P9-Pad7)*%
X165862000Y-82677000D03*
%TO.P,READMUX1,9*%
%TO.N,/7*%
X173482000Y-97917000D03*
D11*
%TO.P,READMUX1,1*%
%TO.N,Net-(P9-Pad5)*%
X165862000Y-80137000D03*
%TD*%
D12*
%TO.P,R8W1,1*%
%TO.N,GND*%
X112268000Y-89535000D03*
D10*
%TO.P,R8W1,2*%
%TO.N,Net-(P10-Pad8)*%
X112268000Y-99695000D03*
%TD*%
D11*
%TO.P,WRITEMUX1,1*%
%TO.N,Net-(P10-Pad5)*%
X132588000Y-79375000D03*
D10*
%TO.P,WRITEMUX1,9*%
%TO.N,/10(\u002A\u002A/SS)*%
X114808000Y-86995000D03*
%TO.P,WRITEMUX1,2*%
%TO.N,Net-(P10-Pad7)*%
X130048000Y-79375000D03*
%TO.P,WRITEMUX1,10*%
%TO.N,/9(\u002A\u002A)*%
X117348000Y-86995000D03*
%TO.P,WRITEMUX1,3*%
%TO.N,Net-(RWM1-Pad1)*%
X127508000Y-79375000D03*
%TO.P,WRITEMUX1,11*%
%TO.N,/8*%
X119888000Y-86995000D03*
%TO.P,WRITEMUX1,4*%
%TO.N,Net-(P10-Pad8)*%
X124968000Y-79375000D03*
%TO.P,WRITEMUX1,12*%
%TO.N,Net-(P10-Pad4)*%
X122428000Y-86995000D03*
%TO.P,WRITEMUX1,5*%
%TO.N,Net-(P10-Pad6)*%
X122428000Y-79375000D03*
%TO.P,WRITEMUX1,13*%
%TO.N,Net-(P10-Pad1)*%
X124968000Y-86995000D03*
%TO.P,WRITEMUX1,6*%
%TO.N,GND*%
X119888000Y-79375000D03*
%TO.P,WRITEMUX1,14*%
%TO.N,Net-(P10-Pad2)*%
X127508000Y-86995000D03*
%TO.P,WRITEMUX1,7*%
%TO.N,GND*%
X117348000Y-79375000D03*
%TO.P,WRITEMUX1,15*%
%TO.N,Net-(P10-Pad3)*%
X130048000Y-86995000D03*
%TO.P,WRITEMUX1,8*%
%TO.N,GND*%
X114808000Y-79375000D03*
%TO.P,WRITEMUX1,16*%
%TO.N,+5V*%
X132588000Y-86995000D03*
%TD*%
D13*
%TO.P,P10,1*%
%TO.N,Net-(P10-Pad1)*%
X132588000Y-102870000D03*
D14*
%TO.P,P10,2*%
%TO.N,Net-(P10-Pad2)*%
X130048000Y-102870000D03*
%TO.P,P10,3*%
%TO.N,Net-(P10-Pad3)*%
X127508000Y-102870000D03*
%TO.P,P10,4*%
%TO.N,Net-(P10-Pad4)*%
X124968000Y-102870000D03*
%TO.P,P10,5*%
%TO.N,Net-(P10-Pad5)*%
X122428000Y-102870000D03*
%TO.P,P10,6*%
%TO.N,Net-(P10-Pad6)*%
X119888000Y-102870000D03*
%TO.P,P10,7*%
%TO.N,Net-(P10-Pad7)*%
X117348000Y-102870000D03*
%TO.P,P10,8*%
%TO.N,Net-(P10-Pad8)*%
X114808000Y-102870000D03*
%TD*%
D15*
%TO.P,P1,1*%
%TO.N,N/C*%
X138938000Y-123825000D03*
%TO.P,P1,2*%
X141478000Y-123825000D03*
%TO.P,P1,3*%
X144018000Y-123825000D03*
%TO.P,P1,4*%
X146558000Y-123825000D03*
%TO.P,P1,5*%
%TO.N,+5V*%
X149098000Y-123825000D03*
%TO.P,P1,6*%
%TO.N,GND*%
X151638000Y-123825000D03*
%TO.P,P1,7*%
X154178000Y-123825000D03*
%TO.P,P1,8*%
%TO.N,N/C*%
X156718000Y-123825000D03*
%TD*%
%TO.P,P2,1*%
%TO.N,/A0*%
X161798000Y-123825000D03*
%TO.P,P2,2*%
%TO.N,N/C*%
X164338000Y-123825000D03*
%TO.P,P2,3*%
X166878000Y-123825000D03*
%TO.P,P2,4*%
X169418000Y-123825000D03*
%TO.P,P2,5*%
%TO.N,/A4(SDA)*%
X171958000Y-123825000D03*
%TO.P,P2,6*%
%TO.N,/A5(SCL)*%
X174498000Y-123825000D03*
%TD*%
%TO.P,P3,1*%
%TO.N,/A5(SCL)*%
X129794000Y-75565000D03*
%TO.P,P3,2*%
%TO.N,/A4(SDA)*%
X132334000Y-75565000D03*
%TO.P,P3,3*%
%TO.N,N/C*%
X134874000Y-75565000D03*
%TO.P,P3,4*%
%TO.N,GND*%
X137414000Y-75565000D03*
%TO.P,P3,5*%
%TO.N,/13(SCK)*%
X139954000Y-75565000D03*
%TO.P,P3,6*%
%TO.N,/12(MISO)*%
X142494000Y-75565000D03*
%TO.P,P3,7*%
%TO.N,/11(\u002A\u002A/MOSI)*%
X145034000Y-75565000D03*
%TO.P,P3,8*%
%TO.N,/10(\u002A\u002A/SS)*%
X147574000Y-75565000D03*
%TO.P,P3,9*%
%TO.N,/9(\u002A\u002A)*%
X150114000Y-75565000D03*
%TO.P,P3,10*%
%TO.N,/8*%
X152654000Y-75565000D03*
%TD*%
%TO.P,P4,1*%
%TO.N,/7*%
X156718000Y-75565000D03*
%TO.P,P4,2*%
%TO.N,/6(\u002A\u002A)*%
X159258000Y-75565000D03*
%TO.P,P4,3*%
%TO.N,/5(\u002A\u002A)*%
X161798000Y-75565000D03*
%TO.P,P4,4*%
%TO.N,N/C*%
X164338000Y-75565000D03*
%TO.P,P4,5*%
X166878000Y-75565000D03*
%TO.P,P4,6*%
X169418000Y-75565000D03*
%TO.P,P4,7*%
X171958000Y-75565000D03*
%TO.P,P4,8*%
X174498000Y-75565000D03*
%TD*%
D16*
%TO.P,P6,1*%
%TO.N,N/C*%
X177038000Y-118745000D03*
%TD*%
%TO.P,P7,1*%
%TO.N,N/C*%
X126238000Y-75565000D03*
%TD*%
%TO.P,P8,1*%
%TO.N,N/C*%
X177038000Y-90805000D03*
%TD*%
D13*
%TO.P,P9,1*%
%TO.N,Net-(P9-Pad1)*%
X173228000Y-119380000D03*
D14*
%TO.P,P9,2*%
%TO.N,Net-(P9-Pad2)*%
X170688000Y-119380000D03*
%TO.P,P9,3*%
%TO.N,Net-(P9-Pad3)*%
X168148000Y-119380000D03*
%TO.P,P9,4*%
%TO.N,Net-(P9-Pad4)*%
X165608000Y-119380000D03*
%TO.P,P9,5*%
%TO.N,Net-(P9-Pad5)*%
X163068000Y-119380000D03*
%TO.P,P9,6*%
%TO.N,Net-(P9-Pad6)*%
X160528000Y-119380000D03*
%TO.P,P9,7*%
%TO.N,Net-(P9-Pad7)*%
X157988000Y-119380000D03*
%TO.P,P9,8*%
%TO.N,Net-(P9-Pad8)*%
X155448000Y-119380000D03*
%TD*%
%TO.P,P11,8*%
%TO.N,Net-(P11-Pad8)*%
X142748000Y-102870000D03*
%TO.P,P11,7*%
%TO.N,Net-(P11-Pad7)*%
X145288000Y-102870000D03*
%TO.P,P11,6*%
%TO.N,Net-(P11-Pad6)*%
X147828000Y-102870000D03*
%TO.P,P11,5*%
%TO.N,Net-(P11-Pad5)*%
X150368000Y-102870000D03*
%TO.P,P11,4*%
%TO.N,Net-(P11-Pad4)*%
X152908000Y-102870000D03*
%TO.P,P11,3*%
%TO.N,Net-(P11-Pad3)*%
X155448000Y-102870000D03*
%TO.P,P11,2*%
%TO.N,Net-(P11-Pad2)*%
X157988000Y-102870000D03*
D13*
%TO.P,P11,1*%
%TO.N,Net-(P11-Pad1)*%
X160528000Y-102870000D03*
%TD*%
%TO.P,P12,1*%
%TO.N,Net-(P12-Pad1)*%
X150114000Y-119253000D03*
D14*
%TO.P,P12,2*%
%TO.N,Net-(P12-Pad2)*%
X147574000Y-119253000D03*
%TO.P,P12,3*%
%TO.N,Net-(P12-Pad3)*%
X145034000Y-119253000D03*
%TO.P,P12,4*%
%TO.N,Net-(P12-Pad4)*%
X142494000Y-119253000D03*
%TO.P,P12,5*%
%TO.N,Net-(P12-Pad5)*%
X139954000Y-119253000D03*
%TO.P,P12,6*%
%TO.N,Net-(P12-Pad6)*%
X137414000Y-119253000D03*
%TO.P,P12,7*%
%TO.N,Net-(P12-Pad7)*%
X134874000Y-119253000D03*
%TO.P,P12,8*%
%TO.N,Net-(P12-Pad8)*%
X132334000Y-119253000D03*
%TD*%
D12*
%TO.P,R1R1,1*%
%TO.N,GND*%
X174498000Y-106045000D03*
D10*
%TO.P,R1R1,2*%
%TO.N,Net-(P9-Pad1)*%
X174498000Y-116205000D03*
%TD*%
D12*
%TO.P,R1W1,1*%
%TO.N,GND*%
X134493000Y-89535000D03*
D10*
%TO.P,R1W1,2*%
%TO.N,Net-(P10-Pad1)*%
X134493000Y-99695000D03*
%TD*%
D12*
%TO.P,R1W2,1*%
%TO.N,GND*%
X163068000Y-89535000D03*
D10*
%TO.P,R1W2,2*%
%TO.N,Net-(P11-Pad1)*%
X163068000Y-99695000D03*
%TD*%
%TO.P,R1W3,2*%
%TO.N,Net-(P12-Pad1)*%
X148463000Y-116205000D03*
D12*
%TO.P,R1W3,1*%
%TO.N,GND*%
X148463000Y-106045000D03*
%TD*%
D10*
%TO.P,R2R1,2*%
%TO.N,Net-(P9-Pad2)*%
X171323000Y-116205000D03*
D12*
%TO.P,R2R1,1*%
%TO.N,GND*%
X171323000Y-106045000D03*
%TD*%
D10*
%TO.P,R2W1,2*%
%TO.N,Net-(P10-Pad2)*%
X131318000Y-99695000D03*
D12*
%TO.P,R2W1,1*%
%TO.N,GND*%
X131318000Y-89535000D03*
%TD*%
D10*
%TO.P,R2W2,2*%
%TO.N,Net-(P11-Pad2)*%
X159893000Y-99695000D03*
D12*
%TO.P,R2W2,1*%
%TO.N,GND*%
X159893000Y-89535000D03*
%TD*%
%TO.P,R2W3,1*%
%TO.N,GND*%
X145288000Y-106045000D03*
D10*
%TO.P,R2W3,2*%
%TO.N,Net-(P12-Pad2)*%
X145288000Y-116205000D03*
%TD*%
D12*
%TO.P,R3R1,1*%
%TO.N,GND*%
X168148000Y-106045000D03*
D10*
%TO.P,R3R1,2*%
%TO.N,Net-(P9-Pad3)*%
X168148000Y-116205000D03*
%TD*%
D12*
%TO.P,R3W1,1*%
%TO.N,GND*%
X128143000Y-89535000D03*
D10*
%TO.P,R3W1,2*%
%TO.N,Net-(P10-Pad3)*%
X128143000Y-99695000D03*
%TD*%
D12*
%TO.P,R3W2,1*%
%TO.N,GND*%
X156718000Y-89535000D03*
D10*
%TO.P,R3W2,2*%
%TO.N,Net-(P11-Pad3)*%
X156718000Y-99695000D03*
%TD*%
%TO.P,R3W3,2*%
%TO.N,Net-(P12-Pad3)*%
X142113000Y-116205000D03*
D12*
%TO.P,R3W3,1*%
%TO.N,GND*%
X142113000Y-106045000D03*
%TD*%
D10*
%TO.P,R4R1,2*%
%TO.N,Net-(P9-Pad4)*%
X164973000Y-116205000D03*
D12*
%TO.P,R4R1,1*%
%TO.N,GND*%
X164973000Y-106045000D03*
%TD*%
D10*
%TO.P,R4W1,2*%
%TO.N,Net-(P10-Pad4)*%
X124968000Y-89535000D03*
D12*
%TO.P,R4W1,1*%
%TO.N,GND*%
X124968000Y-99695000D03*
%TD*%
D10*
%TO.P,R4W2,2*%
%TO.N,Net-(P11-Pad4)*%
X153543000Y-99695000D03*
D12*
%TO.P,R4W2,1*%
%TO.N,GND*%
X153543000Y-89535000D03*
%TD*%
%TO.P,R4W3,1*%
%TO.N,GND*%
X138938000Y-106045000D03*
D10*
%TO.P,R4W3,2*%
%TO.N,Net-(P12-Pad4)*%
X138938000Y-116205000D03*
%TD*%
D12*
%TO.P,R5R1,1*%
%TO.N,GND*%
X161798000Y-106045000D03*
D10*
%TO.P,R5R1,2*%
%TO.N,Net-(P9-Pad5)*%
X161798000Y-116205000D03*
%TD*%
D12*
%TO.P,R5W1,1*%
%TO.N,GND*%
X121793000Y-89535000D03*
D10*
%TO.P,R5W1,2*%
%TO.N,Net-(P10-Pad5)*%
X121793000Y-99695000D03*
%TD*%
%TO.P,R5W2,2*%
%TO.N,Net-(P11-Pad5)*%
X150368000Y-99695000D03*
D12*
%TO.P,R5W2,1*%
%TO.N,GND*%
X150368000Y-89535000D03*
%TD*%
%TO.P,R5W3,1*%
%TO.N,GND*%
X135763000Y-106045000D03*
D10*
%TO.P,R5W3,2*%
%TO.N,Net-(P12-Pad5)*%
X135763000Y-116205000D03*
%TD*%
%TO.P,R6R1,2*%
%TO.N,Net-(P9-Pad6)*%
X158623000Y-116205000D03*
D12*
%TO.P,R6R1,1*%
%TO.N,GND*%
X158623000Y-106045000D03*
%TD*%
D10*
%TO.P,R6W1,2*%
%TO.N,Net-(P10-Pad6)*%
X118618000Y-99695000D03*
D12*
%TO.P,R6W1,1*%
%TO.N,GND*%
X118618000Y-89535000D03*
%TD*%
D10*
%TO.P,R6W2,2*%
%TO.N,Net-(P11-Pad6)*%
X147193000Y-99695000D03*
D12*
%TO.P,R6W2,1*%
%TO.N,GND*%
X147193000Y-89535000D03*
%TD*%
D10*
%TO.P,R6W3,2*%
%TO.N,Net-(P12-Pad6)*%
X132588000Y-116205000D03*
D12*
%TO.P,R6W3,1*%
%TO.N,GND*%
X132588000Y-106045000D03*
%TD*%
D10*
%TO.P,R7R1,2*%
%TO.N,Net-(P9-Pad7)*%
X155448000Y-116205000D03*
D12*
%TO.P,R7R1,1*%
%TO.N,GND*%
X155448000Y-106045000D03*
%TD*%
D10*
%TO.P,R7W1,2*%
%TO.N,Net-(P10-Pad7)*%
X115443000Y-99695000D03*
D12*
%TO.P,R7W1,1*%
%TO.N,GND*%
X115443000Y-89535000D03*
%TD*%
D10*
%TO.P,R7W2,2*%
%TO.N,Net-(P11-Pad7)*%
X144018000Y-99695000D03*
D12*
%TO.P,R7W2,1*%
%TO.N,GND*%
X144018000Y-89535000D03*
%TD*%
%TO.P,R7W3,1*%
%TO.N,GND*%
X129413000Y-106045000D03*
D10*
%TO.P,R7W3,2*%
%TO.N,Net-(P12-Pad7)*%
X129413000Y-116205000D03*
%TD*%
D12*
%TO.P,R8R1,1*%
%TO.N,GND*%
X152273000Y-106045000D03*
D10*
%TO.P,R8R1,2*%
%TO.N,Net-(P9-Pad8)*%
X152273000Y-116205000D03*
%TD*%
D12*
%TO.P,R8W2,1*%
%TO.N,GND*%
X140843000Y-89535000D03*
D10*
%TO.P,R8W2,2*%
%TO.N,Net-(P11-Pad8)*%
X140843000Y-99695000D03*
%TD*%
D12*
%TO.P,R8W3,1*%
%TO.N,GND*%
X126238000Y-106045000D03*
D10*
%TO.P,R8W3,2*%
%TO.N,Net-(P12-Pad8)*%
X126238000Y-116205000D03*
%TD*%
D12*
%TO.P,RRM1,1*%
%TO.N,Net-(READMUX1-Pad3)*%
X167513000Y-102235000D03*
D10*
%TO.P,RRM1,2*%
%TO.N,/A0*%
X177673000Y-102235000D03*
%TD*%
%TO.P,RWM1,2*%
%TO.N,/11(\u002A\u002A/MOSI)*%
X137668000Y-78740000D03*
D12*
%TO.P,RWM1,1*%
%TO.N,Net-(RWM1-Pad1)*%
X137668000Y-88900000D03*
%TD*%
%TO.P,RWM2,1*%
%TO.N,Net-(RWM2-Pad1)*%
X137668000Y-102235000D03*
D10*
%TO.P,RWM2,2*%
%TO.N,/12(MISO)*%
X137668000Y-92075000D03*
%TD*%
D12*
%TO.P,RWM3,1*%
%TO.N,Net-(RWM3-Pad1)*%
X123063000Y-118745000D03*
D10*
%TO.P,RWM3,2*%
%TO.N,/13(SCK)*%
X123063000Y-108585000D03*
%TD*%
D13*
%TO.P,ScreenConn1,1*%
%TO.N,/A5(SCL)*%
X124968000Y-123825000D03*
D14*
%TO.P,ScreenConn1,2*%
%TO.N,/A4(SDA)*%
X127508000Y-123825000D03*
%TO.P,ScreenConn1,3*%
%TO.N,+5V*%
X130048000Y-123825000D03*
%TO.P,ScreenConn1,4*%
%TO.N,GND*%
X132588000Y-123825000D03*
%TD*%
D11*
%TO.P,WRITEMUX2,1*%
%TO.N,Net-(P11-Pad5)*%
X160528000Y-79375000D03*
D10*
%TO.P,WRITEMUX2,9*%
%TO.N,/10(\u002A\u002A/SS)*%
X142748000Y-86995000D03*
%TO.P,WRITEMUX2,2*%
%TO.N,Net-(P11-Pad7)*%
X157988000Y-79375000D03*
%TO.P,WRITEMUX2,10*%
%TO.N,/9(\u002A\u002A)*%
X145288000Y-86995000D03*
%TO.P,WRITEMUX2,3*%
%TO.N,Net-(RWM2-Pad1)*%
X155448000Y-79375000D03*
%TO.P,WRITEMUX2,11*%
%TO.N,/8*%
X147828000Y-86995000D03*
%TO.P,WRITEMUX2,4*%
%TO.N,Net-(P11-Pad8)*%
X152908000Y-79375000D03*
%TO.P,WRITEMUX2,12*%
%TO.N,Net-(P11-Pad4)*%
X150368000Y-86995000D03*
%TO.P,WRITEMUX2,5*%
%TO.N,Net-(P11-Pad6)*%
X150368000Y-79375000D03*
%TO.P,WRITEMUX2,13*%
%TO.N,Net-(P11-Pad1)*%
X152908000Y-86995000D03*
%TO.P,WRITEMUX2,6*%
%TO.N,GND*%
X147828000Y-79375000D03*
%TO.P,WRITEMUX2,14*%
%TO.N,Net-(P11-Pad2)*%
X155448000Y-86995000D03*
%TO.P,WRITEMUX2,7*%
%TO.N,GND*%
X145288000Y-79375000D03*
%TO.P,WRITEMUX2,15*%
%TO.N,Net-(P11-Pad3)*%
X157988000Y-86995000D03*
%TO.P,WRITEMUX2,8*%
%TO.N,GND*%
X142748000Y-79375000D03*
%TO.P,WRITEMUX2,16*%
%TO.N,+5V*%
X160528000Y-86995000D03*
%TD*%
%TO.P,WRITEMUX3,16*%
%TO.N,+5V*%
X120142000Y-106553000D03*
%TO.P,WRITEMUX3,8*%
%TO.N,GND*%
X112522000Y-124333000D03*
%TO.P,WRITEMUX3,15*%
%TO.N,Net-(P12-Pad3)*%
X120142000Y-109093000D03*
%TO.P,WRITEMUX3,7*%
%TO.N,GND*%
X112522000Y-121793000D03*
%TO.P,WRITEMUX3,14*%
%TO.N,Net-(P12-Pad2)*%
X120142000Y-111633000D03*
%TO.P,WRITEMUX3,6*%
%TO.N,GND*%
X112522000Y-119253000D03*
%TO.P,WRITEMUX3,13*%
%TO.N,Net-(P12-Pad1)*%
X120142000Y-114173000D03*
%TO.P,WRITEMUX3,5*%
%TO.N,Net-(P12-Pad6)*%
X112522000Y-116713000D03*
%TO.P,WRITEMUX3,12*%
%TO.N,Net-(P12-Pad4)*%
X120142000Y-116713000D03*
%TO.P,WRITEMUX3,4*%
%TO.N,Net-(P12-Pad8)*%
X112522000Y-114173000D03*
%TO.P,WRITEMUX3,11*%
%TO.N,/8*%
X120142000Y-119253000D03*
%TO.P,WRITEMUX3,3*%
%TO.N,Net-(RWM3-Pad1)*%
X112522000Y-111633000D03*
%TO.P,WRITEMUX3,10*%
%TO.N,/9(\u002A\u002A)*%
X120142000Y-121793000D03*
%TO.P,WRITEMUX3,2*%
%TO.N,Net-(P12-Pad7)*%
X112522000Y-109093000D03*
%TO.P,WRITEMUX3,9*%
%TO.N,/10(\u002A\u002A/SS)*%
X120142000Y-124333000D03*
D11*
%TO.P,WRITEMUX3,1*%
%TO.N,Net-(P12-Pad5)*%
X112522000Y-106553000D03*
%TD*%
D17*
%TO.N,GND*%
X135128000Y-82550000D03*
%TO.N,/A4(SDA)*%
X175768000Y-96520000D03*
%TO.N,/A5(SCL)*%
X176403000Y-107315000D03*
%TD*%
D18*
%TO.N,+5V*%
X130048000Y-123825000D02*
X131953000Y-121920000D01*
X147193000Y-121920000D02*
X149098000Y-123825000D01*
X131953000Y-121920000D02*
X147193000Y-121920000D01*
X133698001Y-104045001D02*
X124238001Y-104045001D01*
X132588000Y-89295002D02*
X135618001Y-92325003D01*
X135618001Y-102125001D02*
X133698001Y-104045001D01*
X123508002Y-104775000D02*
X121920000Y-104775000D01*
X135618001Y-92325003D02*
X135618001Y-102125001D01*
X124238001Y-104045001D02*
X123508002Y-104775000D01*
X132588000Y-86995000D02*
X132588000Y-89295002D01*
X121920000Y-104775000D02*
X120142000Y-106553000D01*
X151638000Y-121285000D02*
X149098000Y-123825000D01*
X120269000Y-106680000D02*
X125207998Y-106680000D01*
X125842998Y-107315000D02*
X141238002Y-107315000D01*
X141238002Y-107315000D02*
X150114000Y-116190998D01*
X120142000Y-106553000D02*
X120269000Y-106680000D01*
X125207998Y-106680000D02*
X125842998Y-107315000D01*
X150114000Y-116713000D02*
X151638000Y-118237000D01*
X150114000Y-116190998D02*
X150114000Y-116713000D01*
X151638000Y-118237000D02*
X151638000Y-121285000D01*
%TO.N,GND*%
X151638000Y-123825000D02*
X154178000Y-123825000D01*
X126238000Y-106045000D02*
X158623000Y-106045000D01*
X135128000Y-88900000D02*
X134493000Y-89535000D01*
X135128000Y-82550000D02*
X135128000Y-88900000D01*
X165862000Y-92329000D02*
X163068000Y-89535000D01*
X165862000Y-97917000D02*
X165862000Y-92329000D01*
X142892999Y-99206409D02*
X142892999Y-100235001D01*
X140843000Y-89535000D02*
X140843000Y-97156410D01*
X152813001Y-122649999D02*
X151638000Y-123825000D01*
X144352997Y-101694999D02*
X145852001Y-101694999D01*
X140843000Y-97156410D02*
X142892999Y-99206409D01*
X142892999Y-100235001D02*
X144352997Y-101694999D01*
X145852001Y-101694999D02*
X146463001Y-102305999D01*
X146463001Y-102305999D02*
X146463001Y-111903589D01*
X152813001Y-118775591D02*
X152813001Y-118904001D01*
X150564009Y-116526599D02*
X152813001Y-118775591D01*
X150564009Y-116004597D02*
X150564009Y-116526599D01*
X146463001Y-111903589D02*
X150564009Y-116004597D01*
X152813001Y-118904001D02*
X152813001Y-122649999D01*
%TO.N,/A4(SDA)*%
X172593000Y-106045000D02*
X172593000Y-117729998D01*
X171958000Y-118364998D02*
X171958000Y-123825000D01*
X175768000Y-102870000D02*
X172593000Y-106045000D01*
X172593000Y-117729998D02*
X171958000Y-118364998D01*
X175768000Y-96520000D02*
X175768000Y-102870000D01*
%TO.N,/A5(SCL)*%
X172593000Y-125730000D02*
X174498000Y-123825000D01*
X124968000Y-123825000D02*
X124968000Y-124460000D01*
X124968000Y-124460000D02*
X126238000Y-125730000D01*
X126238000Y-125730000D02*
X172593000Y-125730000D01*
X176403000Y-115965002D02*
X174498000Y-117870002D01*
X174498000Y-117870002D02*
X174498000Y-123825000D01*
X176403000Y-107315000D02*
X176403000Y-115965002D01*
%TO.N,/9(\u002A\u002A)*%
X124912992Y-81095010D02*
X123247990Y-81095010D01*
X126093001Y-79915001D02*
X124912992Y-81095010D01*
X123247990Y-81095010D02*
X117348000Y-86995000D01*
X126093001Y-79198361D02*
X126093001Y-79915001D01*
X147974010Y-73425010D02*
X129603630Y-73425010D01*
X150114000Y-75565000D02*
X147974010Y-73425010D01*
X129603630Y-73425010D02*
X128595001Y-74433639D01*
X128595001Y-74433639D02*
X128595001Y-76696361D01*
X128595001Y-76696361D02*
X126093001Y-79198361D01*
X116897990Y-87445010D02*
X116897990Y-96575008D01*
X120142000Y-120904000D02*
X120142000Y-121793000D01*
X116172999Y-102495997D02*
X116172999Y-116934999D01*
X116897990Y-96575008D02*
X114173000Y-99299998D01*
X117348000Y-86995000D02*
X116897990Y-87445010D01*
X114173000Y-99299998D02*
X114173000Y-100495998D01*
X116172999Y-116934999D02*
X120142000Y-120904000D01*
X114173000Y-100495998D02*
X116172999Y-102495997D01*
%TO.N,/8*%
X152654000Y-76454000D02*
X152654000Y-75565000D01*
X151758021Y-77349979D02*
X152654000Y-76454000D01*
X131173001Y-79915001D02*
X131173001Y-78834999D01*
X131678882Y-74223990D02*
X145526338Y-74223990D01*
X119888000Y-86995000D02*
X123882990Y-83000010D01*
X128087992Y-83000010D02*
X131173001Y-79915001D01*
X131173001Y-78834999D02*
X130982610Y-78644608D01*
X123882990Y-83000010D02*
X128087992Y-83000010D01*
X130982610Y-74920262D02*
X131678882Y-74223990D01*
X147072979Y-77349979D02*
X151758021Y-77349979D01*
X130982610Y-78644608D02*
X130982610Y-74920262D01*
X145526338Y-74223990D02*
X146385390Y-75083042D01*
X146385390Y-76662390D02*
X147072979Y-77349979D01*
X146385390Y-75083042D02*
X146385390Y-76662390D01*
X116713000Y-114935000D02*
X120142000Y-118364000D01*
X118523001Y-103434001D02*
X116713000Y-105244002D01*
X119888000Y-100610500D02*
X118523001Y-101975499D01*
X119888000Y-86995000D02*
X119888000Y-100610500D01*
X120142000Y-118364000D02*
X120142000Y-119253000D01*
X118523001Y-101975499D02*
X118523001Y-103434001D01*
X116713000Y-105244002D02*
X116713000Y-114935000D01*
%TO.N,/7*%
X158959030Y-77806030D02*
X156718000Y-75565000D01*
X171202979Y-82429979D02*
X166579030Y-77806030D01*
X166579030Y-77806030D02*
X158959030Y-77806030D01*
X171202979Y-95637979D02*
X171450000Y-95885000D01*
X173482000Y-97917000D02*
X171450000Y-95885000D01*
X171202979Y-82429979D02*
X171202979Y-95637979D01*
X171450000Y-95885000D02*
X171202980Y-95637980D01*
%TO.N,/6(\u002A\u002A)*%
X161049019Y-77356019D02*
X159258000Y-75565000D01*
X166765430Y-77356019D02*
X161049019Y-77356019D01*
X171652990Y-82243579D02*
X166765430Y-77356019D01*
X171652990Y-93547990D02*
X171652990Y-92126010D01*
X173482000Y-95377000D02*
X171652990Y-93547990D01*
X171652990Y-92126010D02*
X171652990Y-82243579D01*
%TO.N,/5(\u002A\u002A)*%
X166951830Y-76906008D02*
X163139008Y-76906008D01*
X172102999Y-82057177D02*
X166951830Y-76906008D01*
X163139008Y-76906008D02*
X161798000Y-75565000D01*
X172102999Y-91457999D02*
X172102999Y-88409999D01*
X173482000Y-92837000D02*
X172102999Y-91457999D01*
X172102999Y-88409999D02*
X172102999Y-82057177D01*
%TO.N,/13(SCK)*%
X139954000Y-75565000D02*
X138499009Y-77019991D01*
X138499009Y-77019991D02*
X136211599Y-77019991D01*
X136211599Y-77019991D02*
X133857295Y-79374295D01*
X133857295Y-79374295D02*
X133713001Y-79518589D01*
X119126000Y-104521000D02*
X118618000Y-105029000D01*
X120650000Y-104521000D02*
X119126000Y-104521000D01*
X133857295Y-80290707D02*
X128278003Y-85869999D01*
X121156590Y-102402408D02*
X121156590Y-104014410D01*
X128278003Y-85869999D02*
X124427999Y-85869999D01*
X133857295Y-79374295D02*
X133857295Y-80290707D01*
X121937999Y-109710001D02*
X122364500Y-109283500D01*
X124427999Y-85869999D02*
X123842999Y-86454999D01*
X122364500Y-109283500D02*
X123063000Y-108585000D01*
X123842999Y-87483591D02*
X123392989Y-87933601D01*
X123842999Y-86454999D02*
X123842999Y-87483591D01*
X123392989Y-87933601D02*
X123392989Y-100166009D01*
X121156590Y-104014410D02*
X120650000Y-104521000D01*
X123392989Y-100166009D02*
X121156590Y-102402408D01*
X118618000Y-105029000D02*
X118618000Y-106553000D01*
X118618000Y-106553000D02*
X118618000Y-109093000D01*
X121648001Y-109999999D02*
X122364500Y-109283500D01*
X121429999Y-110218001D02*
X121648001Y-109999999D01*
X119164500Y-110218001D02*
X121429999Y-110218001D01*
X118618000Y-106553000D02*
X118618000Y-109671501D01*
X118618000Y-109671501D02*
X119164500Y-110218001D01*
%TO.N,/10(\u002A\u002A/SS)*%
X115722989Y-119405989D02*
X120142000Y-123825000D01*
X115722989Y-106324989D02*
X115722989Y-119405989D01*
X114008001Y-87794999D02*
X114008001Y-98828587D01*
X114808000Y-86995000D02*
X114008001Y-87794999D01*
X114008001Y-98828587D02*
X113632999Y-99203589D01*
X120142000Y-123825000D02*
X120142000Y-124333000D01*
X113632999Y-99203589D02*
X113632999Y-104234999D01*
X113632999Y-104234999D02*
X115722989Y-106324989D01*
%TO.N,/12(MISO)*%
X135763000Y-79375000D02*
X135763000Y-78105000D01*
X142111590Y-75565000D02*
X142494000Y-75565000D01*
X138938000Y-82550000D02*
X135763000Y-79375000D01*
X136398000Y-77470000D02*
X140206590Y-77470000D01*
X135763000Y-78105000D02*
X136398000Y-77470000D01*
X138938000Y-90805000D02*
X138938000Y-82550000D01*
X140206590Y-77470000D02*
X142111590Y-75565000D01*
X137668000Y-92075000D02*
X138938000Y-90805000D01*
%TO.N,/11(\u002A\u002A/MOSI)*%
X143764000Y-76835000D02*
X145034000Y-75565000D01*
X143682610Y-76835000D02*
X143764000Y-76835000D01*
X143682610Y-76906010D02*
X143682610Y-76835000D01*
X141406990Y-76906010D02*
X143682610Y-76906010D01*
X138303000Y-78105000D02*
X140208000Y-78105000D01*
X137668000Y-78740000D02*
X138303000Y-78105000D01*
X140208000Y-78105000D02*
X141406990Y-76906010D01*
%TO.N,Net-(P9-Pad8)*%
X156573001Y-118254999D02*
X155448000Y-119380000D01*
X156573001Y-116589997D02*
X156573001Y-118254999D01*
X162923001Y-106479997D02*
X162923001Y-110239997D01*
X162923001Y-110239997D02*
X156573001Y-116589997D01*
X167894000Y-99602588D02*
X164482999Y-103013589D01*
X164482999Y-103013589D02*
X164482999Y-104919999D01*
X164482999Y-104919999D02*
X162923001Y-106479997D01*
X167894000Y-89789000D02*
X167894000Y-93345000D01*
X165862000Y-87757000D02*
X167894000Y-89789000D01*
X167894000Y-93330998D02*
X167894000Y-93345000D01*
X167894000Y-93345000D02*
X167894000Y-99602588D01*
%TO.N,Net-(P9-Pad7)*%
X159748001Y-106429997D02*
X159748001Y-107459999D01*
X164973000Y-101204998D02*
X159748001Y-106429997D01*
X155448000Y-111760000D02*
X155448000Y-116205000D01*
X164973000Y-99060000D02*
X164973000Y-101204998D01*
X161942999Y-96664999D02*
X162750500Y-97472500D01*
X162750500Y-97472500D02*
X163385500Y-97472500D01*
X159748001Y-107459999D02*
X155448000Y-111760000D01*
X163385500Y-97472500D02*
X164973000Y-99060000D01*
X164338000Y-84201000D02*
X165862000Y-82677000D01*
X164338000Y-84709000D02*
X161942999Y-87104001D01*
X164338000Y-84201000D02*
X164338000Y-84709000D01*
X161942999Y-87104001D02*
X161942999Y-96664999D01*
%TO.N,Net-(P9-Pad6)*%
X158623000Y-117475000D02*
X160528000Y-119380000D01*
X158623000Y-116205000D02*
X158623000Y-117475000D01*
X166098001Y-108729999D02*
X158623000Y-116205000D01*
X166098001Y-102034997D02*
X166098001Y-108729999D01*
X168344011Y-99788988D02*
X166098001Y-102034997D01*
X168344011Y-88574009D02*
X168344011Y-99788988D01*
X166402001Y-86631999D02*
X168344011Y-88574009D01*
X165321999Y-86631999D02*
X166402001Y-86631999D01*
X164736999Y-87216999D02*
X165321999Y-86631999D01*
X164736999Y-89171999D02*
X164736999Y-87216999D01*
X165862000Y-90297000D02*
X164736999Y-89171999D01*
%TO.N,Net-(P9-Pad5)*%
X161798000Y-118110000D02*
X163068000Y-119380000D01*
X161798000Y-116205000D02*
X161798000Y-118110000D01*
X166548012Y-105979986D02*
X166548011Y-111454989D01*
X166548011Y-111454989D02*
X161798000Y-116205000D01*
X168794022Y-82019022D02*
X168794022Y-103733976D01*
X165862000Y-80137000D02*
X166912000Y-80137000D01*
X166912000Y-80137000D02*
X168794022Y-82019022D01*
X168794022Y-103733976D02*
X166548012Y-105979986D01*
%TO.N,Net-(P9-Pad4)*%
X166098001Y-117330001D02*
X168688001Y-117330001D01*
X168688001Y-117330001D02*
X170197999Y-115820003D01*
X164973000Y-116205000D02*
X166098001Y-117330001D01*
X164973000Y-118745000D02*
X165608000Y-119380000D01*
X164973000Y-116205000D02*
X164973000Y-118745000D01*
X174680999Y-99801999D02*
X170197999Y-104284999D01*
X173482000Y-90297000D02*
X174680999Y-91495999D01*
X174680999Y-91495999D02*
X174680999Y-99801999D01*
X170197999Y-115820003D02*
X170197999Y-104284999D01*
%TO.N,Net-(P10-Pad1)*%
X123842999Y-100235001D02*
X123842999Y-88120001D01*
X125302997Y-101694999D02*
X123842999Y-100235001D01*
X123842999Y-88120001D02*
X124968000Y-86995000D01*
X132493001Y-101694999D02*
X125302997Y-101694999D01*
X134493000Y-99695000D02*
X132493001Y-101694999D01*
%TO.N,Net-(P10-Pad2)*%
X126708001Y-87794999D02*
X127508000Y-86995000D01*
X126708001Y-99925003D02*
X126708001Y-87794999D01*
X127602999Y-100820001D02*
X126708001Y-99925003D01*
X130192999Y-100820001D02*
X127602999Y-100820001D01*
X131318000Y-99695000D02*
X130192999Y-100820001D01*
%TO.N,Net-(P10-Pad3)*%
X130048000Y-97790000D02*
X130048000Y-86995000D01*
X128143000Y-99695000D02*
X130048000Y-97790000D01*
%TO.N,Net-(P10-Pad5)*%
X131462999Y-80500001D02*
X132588000Y-79375000D01*
X131462999Y-81135001D02*
X131462999Y-80500001D01*
X128778000Y-83820000D02*
X131462999Y-81135001D01*
X121302999Y-86454999D02*
X123937998Y-83820000D01*
X121793000Y-99695000D02*
X120667999Y-98569999D01*
X123937998Y-83820000D02*
X128778000Y-83820000D01*
X120667999Y-88994999D02*
X121302999Y-88359999D01*
X120667999Y-98569999D02*
X120667999Y-88994999D01*
X121302999Y-88359999D02*
X121302999Y-86454999D01*
%TO.N,Net-(P10-Pad7)*%
X117348000Y-97790000D02*
X115443000Y-99695000D01*
X117348000Y-89139998D02*
X117348000Y-97790000D01*
X130048000Y-79375000D02*
X126873000Y-82550000D01*
X122667998Y-82550000D02*
X118473001Y-86744997D01*
X118473001Y-86744997D02*
X118473001Y-88014997D01*
X126873000Y-82550000D02*
X122667998Y-82550000D01*
X118473001Y-88014997D02*
X117348000Y-89139998D01*
%TO.N,Net-(P10-Pad8)*%
X123698000Y-80645000D02*
X124968000Y-79375000D01*
X119492998Y-80645000D02*
X123698000Y-80645000D01*
X113393001Y-98569999D02*
X113393001Y-86744997D01*
X113393001Y-86744997D02*
X119492998Y-80645000D01*
X112268000Y-99695000D02*
X113393001Y-98569999D01*
%TO.N,Net-(P11-Pad8)*%
X140843000Y-99695000D02*
X139717999Y-98569999D01*
X152908000Y-79375000D02*
X151332989Y-77799989D01*
X151332989Y-77799989D02*
X141149421Y-77799989D01*
X139717999Y-79231411D02*
X139717999Y-80154999D01*
X141149421Y-77799989D02*
X139717999Y-79231411D01*
X139717999Y-98569999D02*
X139717999Y-80154999D01*
X139717999Y-80154999D02*
X139717999Y-79865706D01*
%TO.N,Net-(P11-Pad7)*%
X152367999Y-80500001D02*
X156862999Y-80500001D01*
X151782999Y-79915001D02*
X152367999Y-80500001D01*
X151782999Y-79124997D02*
X151782999Y-79915001D01*
X150908001Y-78249999D02*
X151782999Y-79124997D01*
X142207999Y-78249999D02*
X150908001Y-78249999D01*
X141622999Y-78834999D02*
X142207999Y-78249999D01*
X156862999Y-80500001D02*
X157988000Y-79375000D01*
X141622999Y-87535001D02*
X141622999Y-78834999D01*
X142892999Y-88805001D02*
X141622999Y-87535001D01*
X142892999Y-98569999D02*
X142892999Y-88805001D01*
X144018000Y-99695000D02*
X142892999Y-98569999D01*
%TO.N,Net-(P11-Pad6)*%
X146067999Y-98569999D02*
X147193000Y-99695000D01*
X149733000Y-79375000D02*
X144162999Y-84945001D01*
X146067999Y-89919997D02*
X146067999Y-98569999D01*
X150368000Y-79375000D02*
X149733000Y-79375000D01*
X144162999Y-84945001D02*
X144162999Y-88014997D01*
X144162999Y-88014997D02*
X146067999Y-89919997D01*
%TO.N,Net-(P11-Pad5)*%
X149242999Y-98569999D02*
X150368000Y-99695000D01*
X149242999Y-89919997D02*
X149242999Y-98569999D01*
X147733001Y-88409999D02*
X149242999Y-89919997D01*
X146702999Y-87774999D02*
X147337999Y-88409999D01*
X147337999Y-88409999D02*
X147733001Y-88409999D01*
X146702999Y-86454999D02*
X146702999Y-87774999D01*
X152207987Y-80950011D02*
X146702999Y-86454999D01*
X158952989Y-80950011D02*
X152207987Y-80950011D01*
X160528000Y-79375000D02*
X158952989Y-80950011D01*
%TO.N,Net-(P11-Pad4)*%
X152417999Y-89044999D02*
X150368000Y-86995000D01*
X152417999Y-98569999D02*
X152417999Y-89044999D01*
X153543000Y-99695000D02*
X152417999Y-98569999D01*
%TO.N,Net-(P11-Pad3)*%
X157988000Y-98425000D02*
X156718000Y-99695000D01*
X157988000Y-86995000D02*
X157988000Y-98425000D01*
%TO.N,Net-(P11-Pad2)*%
X158767999Y-100820001D02*
X159893000Y-99695000D01*
X156177999Y-100820001D02*
X158767999Y-100820001D01*
X155448000Y-100090002D02*
X156177999Y-100820001D01*
X155448000Y-86995000D02*
X155448000Y-100090002D01*
%TO.N,Net-(P11-Pad1)*%
X159113001Y-86454999D02*
X158528001Y-85869999D01*
X154033001Y-85869999D02*
X152908000Y-86995000D01*
X159113001Y-87245003D02*
X159113001Y-86454999D01*
X159987999Y-88120001D02*
X159113001Y-87245003D01*
X158528001Y-85869999D02*
X154033001Y-85869999D01*
X160143003Y-88120001D02*
X159987999Y-88120001D01*
X161018001Y-88994999D02*
X160143003Y-88120001D01*
X161018001Y-97645001D02*
X161018001Y-88994999D01*
X163068000Y-99695000D02*
X161018001Y-97645001D01*
%TO.N,Net-(P12-Pad1)*%
X141386599Y-117780011D02*
X146887989Y-117780011D01*
X120650000Y-113665000D02*
X138063002Y-113665000D01*
X146887989Y-117780011D02*
X148463000Y-116205000D01*
X140537989Y-116139987D02*
X140537990Y-116931402D01*
X138063002Y-113665000D02*
X140537989Y-116139987D01*
X120142000Y-114173000D02*
X120650000Y-113665000D01*
X140537990Y-116931402D02*
X141386599Y-117780011D01*
%TO.N,Net-(P12-Pad2)*%
X144162999Y-117330001D02*
X145288000Y-116205000D01*
X120650000Y-111125000D02*
X136396590Y-111125000D01*
X120142000Y-111633000D02*
X120650000Y-111125000D01*
X136396590Y-111125000D02*
X140987999Y-115716409D01*
X140987999Y-115716409D02*
X140987999Y-116745001D01*
X141572999Y-117330001D02*
X144162999Y-117330001D01*
X140987999Y-116745001D02*
X141572999Y-117330001D01*
%TO.N,Net-(P12-Pad3)*%
X124968000Y-107950000D02*
X133858000Y-107950000D01*
X124333000Y-107315000D02*
X124968000Y-107950000D01*
X133858000Y-107950000D02*
X142113000Y-116205000D01*
X120142000Y-109093000D02*
X121920000Y-107315000D01*
X121920000Y-107315000D02*
X124333000Y-107315000D01*
%TO.N,Net-(P12-Pad4)*%
X137812999Y-115079999D02*
X138938000Y-116205000D01*
X120142000Y-116713000D02*
X121775001Y-115079999D01*
X121775001Y-115079999D02*
X137812999Y-115079999D01*
%TD*%
D19*
%TO.N,GND*%
G36*
X114962989Y-106639791D02*
G01*
X114962990Y-119368657D01*
X114959313Y-119405989D01*
X114973987Y-119554974D01*
X115017443Y-119698235D01*
X115088015Y-119830265D01*
X115159190Y-119916991D01*
X115182989Y-119945990D01*
X115211987Y-119969788D01*
X118880394Y-123638196D01*
X118870320Y-123653273D01*
X118762147Y-123914426D01*
X118707000Y-124191665D01*
X118707000Y-124474335D01*
X118762147Y-124751574D01*
X118870320Y-125012727D01*
X119027363Y-125247759D01*
X119227241Y-125447637D01*
X119462273Y-125604680D01*
X119583756Y-125655000D01*
X113066263Y-125655000D01*
X113135881Y-125630070D01*
X113377131Y-125485385D01*
X113585519Y-125296414D01*
X113753037Y-125070420D01*
X113873246Y-124816087D01*
X113913904Y-124682039D01*
X113791915Y-124460000D01*
X112649000Y-124460000D01*
X112649000Y-124480000D01*
X112395000Y-124480000D01*
X112395000Y-124460000D01*
X112375000Y-124460000D01*
X112375000Y-124206000D01*
X112395000Y-124206000D01*
X112395000Y-121920000D01*
X112649000Y-121920000D01*
X112649000Y-124206000D01*
X113791915Y-124206000D01*
X113913904Y-123983961D01*
X113873246Y-123849913D01*
X113753037Y-123595580D01*
X113585519Y-123369586D01*
X113377131Y-123180615D01*
X113181018Y-123063000D01*
X113377131Y-122945385D01*
X113585519Y-122756414D01*
X113753037Y-122530420D01*
X113873246Y-122276087D01*
X113913904Y-122142039D01*
X113791915Y-121920000D01*
X112649000Y-121920000D01*
X112395000Y-121920000D01*
X112375000Y-121920000D01*
X112375000Y-121666000D01*
X112395000Y-121666000D01*
X112395000Y-119380000D01*
X112649000Y-119380000D01*
X112649000Y-121666000D01*
X113791915Y-121666000D01*
X113913904Y-121443961D01*
X113873246Y-121309913D01*
X113753037Y-121055580D01*
X113585519Y-120829586D01*
X113377131Y-120640615D01*
X113181018Y-120523000D01*
X113377131Y-120405385D01*
X113585519Y-120216414D01*
X113753037Y-119990420D01*
X113873246Y-119736087D01*
X113913904Y-119602039D01*
X113791915Y-119380000D01*
X112649000Y-119380000D01*
X112395000Y-119380000D01*
X112375000Y-119380000D01*
X112375000Y-119126000D01*
X112395000Y-119126000D01*
X112395000Y-119106000D01*
X112649000Y-119106000D01*
X112649000Y-119126000D01*
X113791915Y-119126000D01*
X113913904Y-118903961D01*
X113873246Y-118769913D01*
X113753037Y-118515580D01*
X113585519Y-118289586D01*
X113377131Y-118100615D01*
X113191135Y-117989067D01*
X113201727Y-117984680D01*
X113436759Y-117827637D01*
X113636637Y-117627759D01*
X113793680Y-117392727D01*
X113901853Y-117131574D01*
X113957000Y-116854335D01*
X113957000Y-116571665D01*
X113901853Y-116294426D01*
X113793680Y-116033273D01*
X113636637Y-115798241D01*
X113436759Y-115598363D01*
X113204241Y-115443000D01*
X113436759Y-115287637D01*
X113636637Y-115087759D01*
X113793680Y-114852727D01*
X113901853Y-114591574D01*
X113957000Y-114314335D01*
X113957000Y-114031665D01*
X113901853Y-113754426D01*
X113793680Y-113493273D01*
X113636637Y-113258241D01*
X113436759Y-113058363D01*
X113204241Y-112903000D01*
X113436759Y-112747637D01*
X113636637Y-112547759D01*
X113793680Y-112312727D01*
X113901853Y-112051574D01*
X113957000Y-111774335D01*
X113957000Y-111491665D01*
X113901853Y-111214426D01*
X113793680Y-110953273D01*
X113636637Y-110718241D01*
X113436759Y-110518363D01*
X113204241Y-110363000D01*
X113436759Y-110207637D01*
X113636637Y-110007759D01*
X113793680Y-109772727D01*
X113901853Y-109511574D01*
X113957000Y-109234335D01*
X113957000Y-108951665D01*
X113901853Y-108674426D01*
X113793680Y-108413273D01*
X113636637Y-108178241D01*
X113438039Y-107979643D01*
X113446482Y-107978812D01*
X113566180Y-107942502D01*
X113676494Y-107883537D01*
X113773185Y-107804185D01*
X113852537Y-107707494D01*
X113911502Y-107597180D01*
X113947812Y-107477482D01*
X113960072Y-107353000D01*
X113960072Y-105753000D01*
X113947812Y-105628518D01*
X113946112Y-105622913D01*
X114962989Y-106639791D01*
G37*
X114962989Y-106639791D02*
X114962990Y-119368657D01*
X114959313Y-119405989D01*
X114973987Y-119554974D01*
X115017443Y-119698235D01*
X115088015Y-119830265D01*
X115159190Y-119916991D01*
X115182989Y-119945990D01*
X115211987Y-119969788D01*
X118880394Y-123638196D01*
X118870320Y-123653273D01*
X118762147Y-123914426D01*
X118707000Y-124191665D01*
X118707000Y-124474335D01*
X118762147Y-124751574D01*
X118870320Y-125012727D01*
X119027363Y-125247759D01*
X119227241Y-125447637D01*
X119462273Y-125604680D01*
X119583756Y-125655000D01*
X113066263Y-125655000D01*
X113135881Y-125630070D01*
X113377131Y-125485385D01*
X113585519Y-125296414D01*
X113753037Y-125070420D01*
X113873246Y-124816087D01*
X113913904Y-124682039D01*
X113791915Y-124460000D01*
X112649000Y-124460000D01*
X112649000Y-124480000D01*
X112395000Y-124480000D01*
X112395000Y-124460000D01*
X112375000Y-124460000D01*
X112375000Y-124206000D01*
X112395000Y-124206000D01*
X112395000Y-121920000D01*
X112649000Y-121920000D01*
X112649000Y-124206000D01*
X113791915Y-124206000D01*
X113913904Y-123983961D01*
X113873246Y-123849913D01*
X113753037Y-123595580D01*
X113585519Y-123369586D01*
X113377131Y-123180615D01*
X113181018Y-123063000D01*
X113377131Y-122945385D01*
X113585519Y-122756414D01*
X113753037Y-122530420D01*
X113873246Y-122276087D01*
X113913904Y-122142039D01*
X113791915Y-121920000D01*
X112649000Y-121920000D01*
X112395000Y-121920000D01*
X112375000Y-121920000D01*
X112375000Y-121666000D01*
X112395000Y-121666000D01*
X112395000Y-119380000D01*
X112649000Y-119380000D01*
X112649000Y-121666000D01*
X113791915Y-121666000D01*
X113913904Y-121443961D01*
X113873246Y-121309913D01*
X113753037Y-121055580D01*
X113585519Y-120829586D01*
X113377131Y-120640615D01*
X113181018Y-120523000D01*
X113377131Y-120405385D01*
X113585519Y-120216414D01*
X113753037Y-119990420D01*
X113873246Y-119736087D01*
X113913904Y-119602039D01*
X113791915Y-119380000D01*
X112649000Y-119380000D01*
X112395000Y-119380000D01*
X112375000Y-119380000D01*
X112375000Y-119126000D01*
X112395000Y-119126000D01*
X112395000Y-119106000D01*
X112649000Y-119106000D01*
X112649000Y-119126000D01*
X113791915Y-119126000D01*
X113913904Y-118903961D01*
X113873246Y-118769913D01*
X113753037Y-118515580D01*
X113585519Y-118289586D01*
X113377131Y-118100615D01*
X113191135Y-117989067D01*
X113201727Y-117984680D01*
X113436759Y-117827637D01*
X113636637Y-117627759D01*
X113793680Y-117392727D01*
X113901853Y-117131574D01*
X113957000Y-116854335D01*
X113957000Y-116571665D01*
X113901853Y-116294426D01*
X113793680Y-116033273D01*
X113636637Y-115798241D01*
X113436759Y-115598363D01*
X113204241Y-115443000D01*
X113436759Y-115287637D01*
X113636637Y-115087759D01*
X113793680Y-114852727D01*
X113901853Y-114591574D01*
X113957000Y-114314335D01*
X113957000Y-114031665D01*
X113901853Y-113754426D01*
X113793680Y-113493273D01*
X113636637Y-113258241D01*
X113436759Y-113058363D01*
X113204241Y-112903000D01*
X113436759Y-112747637D01*
X113636637Y-112547759D01*
X113793680Y-112312727D01*
X113901853Y-112051574D01*
X113957000Y-111774335D01*
X113957000Y-111491665D01*
X113901853Y-111214426D01*
X113793680Y-110953273D01*
X113636637Y-110718241D01*
X113436759Y-110518363D01*
X113204241Y-110363000D01*
X113436759Y-110207637D01*
X113636637Y-110007759D01*
X113793680Y-109772727D01*
X113901853Y-109511574D01*
X113957000Y-109234335D01*
X113957000Y-108951665D01*
X113901853Y-108674426D01*
X113793680Y-108413273D01*
X113636637Y-108178241D01*
X113438039Y-107979643D01*
X113446482Y-107978812D01*
X113566180Y-107942502D01*
X113676494Y-107883537D01*
X113773185Y-107804185D01*
X113852537Y-107707494D01*
X113911502Y-107597180D01*
X113947812Y-107477482D01*
X113960072Y-107353000D01*
X113960072Y-105753000D01*
X113947812Y-105628518D01*
X113946112Y-105622913D01*
X114962989Y-106639791D01*
G36*
X149253363Y-87909759D02*
G01*
X149453241Y-88109637D01*
X149687128Y-88265915D01*
X149626486Y-88298329D01*
X149554903Y-88542298D01*
X150368000Y-89355395D01*
X150382143Y-89341253D01*
X150561748Y-89520858D01*
X150547605Y-89535000D01*
X151360702Y-90348097D01*
X151604671Y-90276514D01*
X151658000Y-90163809D01*
X151657999Y-98532677D01*
X151654323Y-98569999D01*
X151657999Y-98607321D01*
X151657999Y-98607331D01*
X151668996Y-98718984D01*
X151705375Y-98838912D01*
X151712453Y-98862245D01*
X151783025Y-98994275D01*
X151822870Y-99042825D01*
X151877998Y-99110000D01*
X151907001Y-99133803D01*
X152144312Y-99371113D01*
X152108000Y-99553665D01*
X152108000Y-99836335D01*
X152163147Y-100113574D01*
X152271320Y-100374727D01*
X152428363Y-100609759D01*
X152628241Y-100809637D01*
X152863273Y-100966680D01*
X153124426Y-101074853D01*
X153401665Y-101130000D01*
X153684335Y-101130000D01*
X153961574Y-101074853D01*
X154222727Y-100966680D01*
X154457759Y-100809637D01*
X154657637Y-100609759D01*
X154772320Y-100438123D01*
X154813026Y-100514278D01*
X154844530Y-100552665D01*
X154908000Y-100630003D01*
X154936997Y-100653801D01*
X155614204Y-101331009D01*
X155637998Y-101360002D01*
X155666991Y-101383796D01*
X155666995Y-101383800D01*
X155692195Y-101404481D01*
X155594260Y-101385000D01*
X155301740Y-101385000D01*
X155014842Y-101442068D01*
X154744589Y-101554010D01*
X154501368Y-101716525D01*
X154294525Y-101923368D01*
X154178000Y-102097760D01*
X154061475Y-101923368D01*
X153854632Y-101716525D01*
X153611411Y-101554010D01*
X153341158Y-101442068D01*
X153054260Y-101385000D01*
X152761740Y-101385000D01*
X152474842Y-101442068D01*
X152204589Y-101554010D01*
X151961368Y-101716525D01*
X151754525Y-101923368D01*
X151638000Y-102097760D01*
X151521475Y-101923368D01*
X151314632Y-101716525D01*
X151071411Y-101554010D01*
X150801158Y-101442068D01*
X150514260Y-101385000D01*
X150221740Y-101385000D01*
X149934842Y-101442068D01*
X149664589Y-101554010D01*
X149421368Y-101716525D01*
X149214525Y-101923368D01*
X149098000Y-102097760D01*
X148981475Y-101923368D01*
X148774632Y-101716525D01*
X148531411Y-101554010D01*
X148261158Y-101442068D01*
X147974260Y-101385000D01*
X147681740Y-101385000D01*
X147394842Y-101442068D01*
X147124589Y-101554010D01*
X146881368Y-101716525D01*
X146674525Y-101923368D01*
X146558000Y-102097760D01*
X146441475Y-101923368D01*
X146234632Y-101716525D01*
X145991411Y-101554010D01*
X145721158Y-101442068D01*
X145434260Y-101385000D01*
X145141740Y-101385000D01*
X144854842Y-101442068D01*
X144584589Y-101554010D01*
X144341368Y-101716525D01*
X144134525Y-101923368D01*
X144018000Y-102097760D01*
X143901475Y-101923368D01*
X143694632Y-101716525D01*
X143451411Y-101554010D01*
X143181158Y-101442068D01*
X142894260Y-101385000D01*
X142601740Y-101385000D01*
X142314842Y-101442068D01*
X142044589Y-101554010D01*
X141801368Y-101716525D01*
X141594525Y-101923368D01*
X141432010Y-102166589D01*
X141320068Y-102436842D01*
X141263000Y-102723740D01*
X141263000Y-103016260D01*
X141320068Y-103303158D01*
X141432010Y-103573411D01*
X141594525Y-103816632D01*
X141801368Y-104023475D01*
X142044589Y-104185990D01*
X142314842Y-104297932D01*
X142601740Y-104355000D01*
X142894260Y-104355000D01*
X143181158Y-104297932D01*
X143451411Y-104185990D01*
X143694632Y-104023475D01*
X143901475Y-103816632D01*
X144018000Y-103642240D01*
X144134525Y-103816632D01*
X144341368Y-104023475D01*
X144584589Y-104185990D01*
X144854842Y-104297932D01*
X145141740Y-104355000D01*
X145434260Y-104355000D01*
X145721158Y-104297932D01*
X145991411Y-104185990D01*
X146234632Y-104023475D01*
X146441475Y-103816632D01*
X146558000Y-103642240D01*
X146674525Y-103816632D01*
X146881368Y-104023475D01*
X147124589Y-104185990D01*
X147394842Y-104297932D01*
X147681740Y-104355000D01*
X147974260Y-104355000D01*
X148261158Y-104297932D01*
X148531411Y-104185990D01*
X148774632Y-104023475D01*
X148981475Y-103816632D01*
X149098000Y-103642240D01*
X149214525Y-103816632D01*
X149421368Y-104023475D01*
X149664589Y-104185990D01*
X149934842Y-104297932D01*
X150221740Y-104355000D01*
X150514260Y-104355000D01*
X150801158Y-104297932D01*
X151071411Y-104185990D01*
X151314632Y-104023475D01*
X151521475Y-103816632D01*
X151638000Y-103642240D01*
X151754525Y-103816632D01*
X151961368Y-104023475D01*
X152204589Y-104185990D01*
X152474842Y-104297932D01*
X152761740Y-104355000D01*
X153054260Y-104355000D01*
X153341158Y-104297932D01*
X153611411Y-104185990D01*
X153854632Y-104023475D01*
X154061475Y-103816632D01*
X154178000Y-103642240D01*
X154294525Y-103816632D01*
X154501368Y-104023475D01*
X154744589Y-104185990D01*
X155014842Y-104297932D01*
X155301740Y-104355000D01*
X155594260Y-104355000D01*
X155881158Y-104297932D01*
X156151411Y-104185990D01*
X156394632Y-104023475D01*
X156601475Y-103816632D01*
X156718000Y-103642240D01*
X156834525Y-103816632D01*
X157041368Y-104023475D01*
X157284589Y-104185990D01*
X157554842Y-104297932D01*
X157841740Y-104355000D01*
X158134260Y-104355000D01*
X158421158Y-104297932D01*
X158691411Y-104185990D01*
X158934632Y-104023475D01*
X159066487Y-103891620D01*
X159088498Y-103964180D01*
X159147463Y-104074494D01*
X159226815Y-104171185D01*
X159323506Y-104250537D01*
X159433820Y-104309502D01*
X159553518Y-104345812D01*
X159678000Y-104358072D01*
X160745124Y-104358072D01*
X159813313Y-105289884D01*
X159615702Y-105231903D01*
X158802605Y-106045000D01*
X158816748Y-106059143D01*
X158637143Y-106238748D01*
X158623000Y-106224605D01*
X157809903Y-107037702D01*
X157881486Y-107281671D01*
X158136996Y-107402571D01*
X158411184Y-107471300D01*
X158650120Y-107483078D01*
X154937003Y-111196196D01*
X154907999Y-111219999D01*
X154863693Y-111273987D01*
X154813026Y-111335724D01*
X154769451Y-111417246D01*
X154742454Y-111467754D01*
X154698997Y-111611015D01*
X154688000Y-111722668D01*
X154688000Y-111722678D01*
X154684324Y-111760000D01*
X154688000Y-111797323D01*
X154688001Y-114986956D01*
X154533241Y-115090363D01*
X154333363Y-115290241D01*
X154176320Y-115525273D01*
X154068147Y-115786426D01*
X154013000Y-116063665D01*
X154013000Y-116346335D01*
X154068147Y-116623574D01*
X154176320Y-116884727D01*
X154333363Y-117119759D01*
X154533241Y-117319637D01*
X154768273Y-117476680D01*
X155029426Y-117584853D01*
X155306665Y-117640000D01*
X155589335Y-117640000D01*
X155813002Y-117595509D01*
X155813002Y-117938511D01*
X155594260Y-117895000D01*
X155301740Y-117895000D01*
X155014842Y-117952068D01*
X154744589Y-118064010D01*
X154501368Y-118226525D01*
X154294525Y-118433368D01*
X154132010Y-118676589D01*
X154020068Y-118946842D01*
X153963000Y-119233740D01*
X153963000Y-119526260D01*
X154020068Y-119813158D01*
X154132010Y-120083411D01*
X154294525Y-120326632D01*
X154501368Y-120533475D01*
X154744589Y-120695990D01*
X155014842Y-120807932D01*
X155301740Y-120865000D01*
X155594260Y-120865000D01*
X155881158Y-120807932D01*
X156151411Y-120695990D01*
X156394632Y-120533475D01*
X156601475Y-120326632D01*
X156718000Y-120152240D01*
X156834525Y-120326632D01*
X157041368Y-120533475D01*
X157284589Y-120695990D01*
X157554842Y-120807932D01*
X157841740Y-120865000D01*
X158134260Y-120865000D01*
X158421158Y-120807932D01*
X158691411Y-120695990D01*
X158934632Y-120533475D01*
X159141475Y-120326632D01*
X159258000Y-120152240D01*
X159374525Y-120326632D01*
X159581368Y-120533475D01*
X159824589Y-120695990D01*
X160094842Y-120807932D01*
X160381740Y-120865000D01*
X160674260Y-120865000D01*
X160961158Y-120807932D01*
X161231411Y-120695990D01*
X161474632Y-120533475D01*
X161681475Y-120326632D01*
X161798000Y-120152240D01*
X161914525Y-120326632D01*
X162121368Y-120533475D01*
X162364589Y-120695990D01*
X162634842Y-120807932D01*
X162921740Y-120865000D01*
X163214260Y-120865000D01*
X163501158Y-120807932D01*
X163771411Y-120695990D01*
X164014632Y-120533475D01*
X164221475Y-120326632D01*
X164338000Y-120152240D01*
X164454525Y-120326632D01*
X164661368Y-120533475D01*
X164904589Y-120695990D01*
X165174842Y-120807932D01*
X165461740Y-120865000D01*
X165754260Y-120865000D01*
X166041158Y-120807932D01*
X166311411Y-120695990D01*
X166554632Y-120533475D01*
X166761475Y-120326632D01*
X166878000Y-120152240D01*
X166994525Y-120326632D01*
X167201368Y-120533475D01*
X167444589Y-120695990D01*
X167714842Y-120807932D01*
X168001740Y-120865000D01*
X168294260Y-120865000D01*
X168581158Y-120807932D01*
X168851411Y-120695990D01*
X169094632Y-120533475D01*
X169301475Y-120326632D01*
X169418000Y-120152240D01*
X169534525Y-120326632D01*
X169741368Y-120533475D01*
X169984589Y-120695990D01*
X170254842Y-120807932D01*
X170541740Y-120865000D01*
X170834260Y-120865000D01*
X171121158Y-120807932D01*
X171198000Y-120776103D01*
X171198001Y-122379584D01*
X171121394Y-122420531D01*
X170893203Y-122607803D01*
X170705931Y-122835995D01*
X170688000Y-122869541D01*
X170670069Y-122835994D01*
X170482797Y-122607803D01*
X170254605Y-122420531D01*
X169994263Y-122281375D01*
X169711776Y-122195684D01*
X169418000Y-122166749D01*
X169124223Y-122195684D01*
X168841736Y-122281375D01*
X168581394Y-122420531D01*
X168353203Y-122607803D01*
X168165931Y-122835995D01*
X168148000Y-122869541D01*
X168130069Y-122835994D01*
X167942797Y-122607803D01*
X167714605Y-122420531D01*
X167454263Y-122281375D01*
X167171776Y-122195684D01*
X166878000Y-122166749D01*
X166584223Y-122195684D01*
X166301736Y-122281375D01*
X166041394Y-122420531D01*
X165813203Y-122607803D01*
X165625931Y-122835995D01*
X165608000Y-122869541D01*
X165590069Y-122835994D01*
X165402797Y-122607803D01*
X165174605Y-122420531D01*
X164914263Y-122281375D01*
X164631776Y-122195684D01*
X164338000Y-122166749D01*
X164044223Y-122195684D01*
X163761736Y-122281375D01*
X163501394Y-122420531D01*
X163273203Y-122607803D01*
X163085931Y-122835995D01*
X163068000Y-122869541D01*
X163050069Y-122835994D01*
X162862797Y-122607803D01*
X162634605Y-122420531D01*
X162374263Y-122281375D01*
X162091776Y-122195684D01*
X161798000Y-122166749D01*
X161504223Y-122195684D01*
X161221736Y-122281375D01*
X160961394Y-122420531D01*
X160733203Y-122607803D01*
X160545931Y-122835995D01*
X160406775Y-123096337D01*
X160321084Y-123378824D01*
X160299400Y-123598982D01*
X160299400Y-124051019D01*
X160321084Y-124271177D01*
X160406775Y-124553664D01*
X160545931Y-124814006D01*
X160673952Y-124970000D01*
X157842048Y-124970000D01*
X157970069Y-124814006D01*
X158109225Y-124553663D01*
X158194916Y-124271176D01*
X158216600Y-124051018D01*
X158216600Y-123598981D01*
X158194916Y-123378823D01*
X158109225Y-123096336D01*
X157970069Y-122835994D01*
X157782797Y-122607803D01*
X157554605Y-122420531D01*
X157294263Y-122281375D01*
X157011776Y-122195684D01*
X156718000Y-122166749D01*
X156424223Y-122195684D01*
X156141736Y-122281375D01*
X155881394Y-122420531D01*
X155653203Y-122607803D01*
X155465931Y-122835995D01*
X155444576Y-122875947D01*
X155296486Y-122673271D01*
X155080035Y-122474267D01*
X154828919Y-122321314D01*
X154552789Y-122220291D01*
X154537026Y-122217642D01*
X154305000Y-122338783D01*
X154305000Y-123698000D01*
X154325000Y-123698000D01*
X154325000Y-123952000D01*
X154305000Y-123952000D01*
X154305000Y-123972000D01*
X154051000Y-123972000D01*
X154051000Y-123952000D01*
X151765000Y-123952000D01*
X151765000Y-123972000D01*
X151511000Y-123972000D01*
X151511000Y-123952000D01*
X151491000Y-123952000D01*
X151491000Y-123698000D01*
X151511000Y-123698000D01*
X151511000Y-123678000D01*
X151765000Y-123678000D01*
X151765000Y-123698000D01*
X154051000Y-123698000D01*
X154051000Y-122338783D01*
X153818974Y-122217642D01*
X153803211Y-122220291D01*
X153527081Y-122321314D01*
X153275965Y-122474267D01*
X153059514Y-122673271D01*
X152908000Y-122880633D01*
X152756486Y-122673271D01*
X152540035Y-122474267D01*
X152288919Y-122321314D01*
X152012789Y-122220291D01*
X151997026Y-122217642D01*
X151765002Y-122338782D01*
X151765002Y-122232800D01*
X152149008Y-121848795D01*
X152178001Y-121825001D01*
X152201795Y-121796008D01*
X152201799Y-121796004D01*
X152272973Y-121709277D01*
X152272974Y-121709276D01*
X152343546Y-121577247D01*
X152387003Y-121433986D01*
X152398000Y-121322333D01*
X152398000Y-121322324D01*
X152401676Y-121285001D01*
X152398000Y-121247678D01*
X152398000Y-118274322D01*
X152401676Y-118236999D01*
X152398000Y-118199676D01*
X152398000Y-118199667D01*
X152387003Y-118088014D01*
X152343546Y-117944753D01*
X152272974Y-117812724D01*
X152246127Y-117780011D01*
X152201799Y-117725996D01*
X152201795Y-117725992D01*
X152178001Y-117696999D01*
X152149009Y-117673206D01*
X152111864Y-117636061D01*
X152131665Y-117640000D01*
X152414335Y-117640000D01*
X152691574Y-117584853D01*
X152952727Y-117476680D01*
X153187759Y-117319637D01*
X153387637Y-117119759D01*
X153544680Y-116884727D01*
X153652853Y-116623574D01*
X153708000Y-116346335D01*
X153708000Y-116063665D01*
X153652853Y-115786426D01*
X153544680Y-115525273D01*
X153387637Y-115290241D01*
X153187759Y-115090363D01*
X152952727Y-114933320D01*
X152691574Y-114825147D01*
X152414335Y-114770000D01*
X152131665Y-114770000D01*
X151854426Y-114825147D01*
X151593273Y-114933320D01*
X151358241Y-115090363D01*
X151158363Y-115290241D01*
X151001320Y-115525273D01*
X150893147Y-115786426D01*
X150850504Y-116000806D01*
X150819546Y-115898751D01*
X150748974Y-115766722D01*
X150654001Y-115650997D01*
X150625004Y-115627200D01*
X142444370Y-107446567D01*
X142463130Y-107443787D01*
X142729292Y-107348603D01*
X142854514Y-107281671D01*
X142926097Y-107037702D01*
X144474903Y-107037702D01*
X144546486Y-107281671D01*
X144801996Y-107402571D01*
X145076184Y-107471300D01*
X145358512Y-107485217D01*
X145638130Y-107443787D01*
X145904292Y-107348603D01*
X146029514Y-107281671D01*
X146101097Y-107037702D01*
X147649903Y-107037702D01*
X147721486Y-107281671D01*
X147976996Y-107402571D01*
X148251184Y-107471300D01*
X148533512Y-107485217D01*
X148813130Y-107443787D01*
X149079292Y-107348603D01*
X149204514Y-107281671D01*
X149276097Y-107037702D01*
X151459903Y-107037702D01*
X151531486Y-107281671D01*
X151786996Y-107402571D01*
X152061184Y-107471300D01*
X152343512Y-107485217D01*
X152623130Y-107443787D01*
X152889292Y-107348603D01*
X153014514Y-107281671D01*
X153086097Y-107037702D01*
X154634903Y-107037702D01*
X154706486Y-107281671D01*
X154961996Y-107402571D01*
X155236184Y-107471300D01*
X155518512Y-107485217D01*
X155798130Y-107443787D01*
X156064292Y-107348603D01*
X156189514Y-107281671D01*
X156261097Y-107037702D01*
X155448000Y-106224605D01*
X154634903Y-107037702D01*
X153086097Y-107037702D01*
X152273000Y-106224605D01*
X151459903Y-107037702D01*
X149276097Y-107037702D01*
X148463000Y-106224605D01*
X147649903Y-107037702D01*
X146101097Y-107037702D01*
X145288000Y-106224605D01*
X144474903Y-107037702D01*
X142926097Y-107037702D01*
X142113000Y-106224605D01*
X142098858Y-106238748D01*
X141919253Y-106059143D01*
X141933395Y-106045000D01*
X142292605Y-106045000D01*
X143105702Y-106858097D01*
X143349671Y-106786514D01*
X143470571Y-106531004D01*
X143539300Y-106256816D01*
X143546265Y-106115512D01*
X143847783Y-106115512D01*
X143889213Y-106395130D01*
X143984397Y-106661292D01*
X144051329Y-106786514D01*
X144295298Y-106858097D01*
X145108395Y-106045000D01*
X145467605Y-106045000D01*
X146280702Y-106858097D01*
X146524671Y-106786514D01*
X146645571Y-106531004D01*
X146714300Y-106256816D01*
X146721265Y-106115512D01*
X147022783Y-106115512D01*
X147064213Y-106395130D01*
X147159397Y-106661292D01*
X147226329Y-106786514D01*
X147470298Y-106858097D01*
X148283395Y-106045000D01*
X148642605Y-106045000D01*
X149455702Y-106858097D01*
X149699671Y-106786514D01*
X149820571Y-106531004D01*
X149889300Y-106256816D01*
X149896265Y-106115512D01*
X150832783Y-106115512D01*
X150874213Y-106395130D01*
X150969397Y-106661292D01*
X151036329Y-106786514D01*
X151280298Y-106858097D01*
X152093395Y-106045000D01*
X152452605Y-106045000D01*
X153265702Y-106858097D01*
X153509671Y-106786514D01*
X153630571Y-106531004D01*
X153699300Y-106256816D01*
X153706265Y-106115512D01*
X154007783Y-106115512D01*
X154049213Y-106395130D01*
X154144397Y-106661292D01*
X154211329Y-106786514D01*
X154455298Y-106858097D01*
X155268395Y-106045000D01*
X155627605Y-106045000D01*
X156440702Y-106858097D01*
X156684671Y-106786514D01*
X156805571Y-106531004D01*
X156874300Y-106256816D01*
X156881265Y-106115512D01*
X157182783Y-106115512D01*
X157224213Y-106395130D01*
X157319397Y-106661292D01*
X157386329Y-106786514D01*
X157630298Y-106858097D01*
X158443395Y-106045000D01*
X157630298Y-105231903D01*
X157386329Y-105303486D01*
X157265429Y-105558996D01*
X157196700Y-105833184D01*
X157182783Y-106115512D01*
X156881265Y-106115512D01*
X156888217Y-105974488D01*
X156846787Y-105694870D01*
X156751603Y-105428708D01*
X156684671Y-105303486D01*
X156440702Y-105231903D01*
X155627605Y-106045000D01*
X155268395Y-106045000D01*
X154455298Y-105231903D01*
X154211329Y-105303486D01*
X154090429Y-105558996D01*
X154021700Y-105833184D01*
X154007783Y-106115512D01*
X153706265Y-106115512D01*
X153713217Y-105974488D01*
X153671787Y-105694870D01*
X153576603Y-105428708D01*
X153509671Y-105303486D01*
X153265702Y-105231903D01*
X152452605Y-106045000D01*
X152093395Y-106045000D01*
X151280298Y-105231903D01*
X151036329Y-105303486D01*
X150915429Y-105558996D01*
X150846700Y-105833184D01*
X150832783Y-106115512D01*
X149896265Y-106115512D01*
X149903217Y-105974488D01*
X149861787Y-105694870D01*
X149766603Y-105428708D01*
X149699671Y-105303486D01*
X149455702Y-105231903D01*
X148642605Y-106045000D01*
X148283395Y-106045000D01*
X147470298Y-105231903D01*
X147226329Y-105303486D01*
X147105429Y-105558996D01*
X147036700Y-105833184D01*
X147022783Y-106115512D01*
X146721265Y-106115512D01*
X146728217Y-105974488D01*
X146686787Y-105694870D01*
X146591603Y-105428708D01*
X146524671Y-105303486D01*
X146280702Y-105231903D01*
X145467605Y-106045000D01*
X145108395Y-106045000D01*
X144295298Y-105231903D01*
X144051329Y-105303486D01*
X143930429Y-105558996D01*
X143861700Y-105833184D01*
X143847783Y-106115512D01*
X143546265Y-106115512D01*
X143553217Y-105974488D01*
X143511787Y-105694870D01*
X143416603Y-105428708D01*
X143349671Y-105303486D01*
X143105702Y-105231903D01*
X142292605Y-106045000D01*
X141933395Y-106045000D01*
X141120298Y-105231903D01*
X140876329Y-105303486D01*
X140755429Y-105558996D01*
X140686700Y-105833184D01*
X140672783Y-106115512D01*
X140714213Y-106395130D01*
X140771385Y-106555000D01*
X140284217Y-106555000D01*
X140295571Y-106531004D01*
X140364300Y-106256816D01*
X140378217Y-105974488D01*
X140336787Y-105694870D01*
X140241603Y-105428708D01*
X140174671Y-105303486D01*
X139930702Y-105231903D01*
X139117605Y-106045000D01*
X139131748Y-106059143D01*
X138952143Y-106238748D01*
X138938000Y-106224605D01*
X138923858Y-106238748D01*
X138744253Y-106059143D01*
X138758395Y-106045000D01*
X137945298Y-105231903D01*
X137701329Y-105303486D01*
X137580429Y-105558996D01*
X137511700Y-105833184D01*
X137497783Y-106115512D01*
X137539213Y-106395130D01*
X137596385Y-106555000D01*
X137109217Y-106555000D01*
X137120571Y-106531004D01*
X137189300Y-106256816D01*
X137203217Y-105974488D01*
X137161787Y-105694870D01*
X137066603Y-105428708D01*
X136999671Y-105303486D01*
X136755702Y-105231903D01*
X135942605Y-106045000D01*
X135956748Y-106059143D01*
X135777143Y-106238748D01*
X135763000Y-106224605D01*
X135748858Y-106238748D01*
X135569253Y-106059143D01*
X135583395Y-106045000D01*
X134770298Y-105231903D01*
X134526329Y-105303486D01*
X134405429Y-105558996D01*
X134336700Y-105833184D01*
X134322783Y-106115512D01*
X134364213Y-106395130D01*
X134421385Y-106555000D01*
X133934217Y-106555000D01*
X133945571Y-106531004D01*
X134014300Y-106256816D01*
X134028217Y-105974488D01*
X133986787Y-105694870D01*
X133891603Y-105428708D01*
X133824671Y-105303486D01*
X133580702Y-105231903D01*
X132767605Y-106045000D01*
X132781748Y-106059143D01*
X132602143Y-106238748D01*
X132588000Y-106224605D01*
X132573858Y-106238748D01*
X132394253Y-106059143D01*
X132408395Y-106045000D01*
X131595298Y-105231903D01*
X131351329Y-105303486D01*
X131230429Y-105558996D01*
X131161700Y-105833184D01*
X131147783Y-106115512D01*
X131189213Y-106395130D01*
X131246385Y-106555000D01*
X130759217Y-106555000D01*
X130770571Y-106531004D01*
X130839300Y-106256816D01*
X130853217Y-105974488D01*
X130811787Y-105694870D01*
X130716603Y-105428708D01*
X130649671Y-105303486D01*
X130405702Y-105231903D01*
X129592605Y-106045000D01*
X129606748Y-106059143D01*
X129427143Y-106238748D01*
X129413000Y-106224605D01*
X129398858Y-106238748D01*
X129219253Y-106059143D01*
X129233395Y-106045000D01*
X128420298Y-105231903D01*
X128176329Y-105303486D01*
X128055429Y-105558996D01*
X127986700Y-105833184D01*
X127972783Y-106115512D01*
X128014213Y-106395130D01*
X128071385Y-106555000D01*
X127584217Y-106555000D01*
X127595571Y-106531004D01*
X127664300Y-106256816D01*
X127678217Y-105974488D01*
X127636787Y-105694870D01*
X127541603Y-105428708D01*
X127474671Y-105303486D01*
X127230702Y-105231903D01*
X126417605Y-106045000D01*
X126431748Y-106059143D01*
X126252143Y-106238748D01*
X126238000Y-106224605D01*
X126223858Y-106238748D01*
X126044253Y-106059143D01*
X126058395Y-106045000D01*
X125245298Y-105231903D01*
X125001329Y-105303486D01*
X124880429Y-105558996D01*
X124811700Y-105833184D01*
X124807421Y-105920000D01*
X121849802Y-105920000D01*
X122234802Y-105535000D01*
X123470680Y-105535000D01*
X123508002Y-105538676D01*
X123545324Y-105535000D01*
X123545335Y-105535000D01*
X123656988Y-105524003D01*
X123800249Y-105480546D01*
X123932278Y-105409974D01*
X124048003Y-105315001D01*
X124071805Y-105285998D01*
X124552803Y-104805001D01*
X125502712Y-104805001D01*
X125496486Y-104808329D01*
X125424903Y-105052298D01*
X126238000Y-105865395D01*
X127051097Y-105052298D01*
X126979514Y-104808329D01*
X126972481Y-104805001D01*
X128677712Y-104805001D01*
X128671486Y-104808329D01*
X128599903Y-105052298D01*
X129413000Y-105865395D01*
X130226097Y-105052298D01*
X130154514Y-104808329D01*
X130147481Y-104805001D01*
X131852712Y-104805001D01*
X131846486Y-104808329D01*
X131774903Y-105052298D01*
X132588000Y-105865395D01*
X133401097Y-105052298D01*
X134949903Y-105052298D01*
X135763000Y-105865395D01*
X136576097Y-105052298D01*
X138124903Y-105052298D01*
X138938000Y-105865395D01*
X139751097Y-105052298D01*
X141299903Y-105052298D01*
X142113000Y-105865395D01*
X142926097Y-105052298D01*
X144474903Y-105052298D01*
X145288000Y-105865395D01*
X146101097Y-105052298D01*
X147649903Y-105052298D01*
X148463000Y-105865395D01*
X149276097Y-105052298D01*
X151459903Y-105052298D01*
X152273000Y-105865395D01*
X153086097Y-105052298D01*
X154634903Y-105052298D01*
X155448000Y-105865395D01*
X156261097Y-105052298D01*
X157809903Y-105052298D01*
X158623000Y-105865395D01*
X159436097Y-105052298D01*
X159364514Y-104808329D01*
X159109004Y-104687429D01*
X158834816Y-104618700D01*
X158552488Y-104604783D01*
X158272870Y-104646213D01*
X158006708Y-104741397D01*
X157881486Y-104808329D01*
X157809903Y-105052298D01*
X156261097Y-105052298D01*
X156189514Y-104808329D01*
X155934004Y-104687429D01*
X155659816Y-104618700D01*
X155377488Y-104604783D01*
X155097870Y-104646213D01*
X154831708Y-104741397D01*
X154706486Y-104808329D01*
X154634903Y-105052298D01*
X153086097Y-105052298D01*
X153014514Y-104808329D01*
X152759004Y-104687429D01*
X152484816Y-104618700D01*
X152202488Y-104604783D01*
X151922870Y-104646213D01*
X151656708Y-104741397D01*
X151531486Y-104808329D01*
X151459903Y-105052298D01*
X149276097Y-105052298D01*
X149204514Y-104808329D01*
X148949004Y-104687429D01*
X148674816Y-104618700D01*
X148392488Y-104604783D01*
X148112870Y-104646213D01*
X147846708Y-104741397D01*
X147721486Y-104808329D01*
X147649903Y-105052298D01*
X146101097Y-105052298D01*
X146029514Y-104808329D01*
X145774004Y-104687429D01*
X145499816Y-104618700D01*
X145217488Y-104604783D01*
X144937870Y-104646213D01*
X144671708Y-104741397D01*
X144546486Y-104808329D01*
X144474903Y-105052298D01*
X142926097Y-105052298D01*
X142854514Y-104808329D01*
X142599004Y-104687429D01*
X142324816Y-104618700D01*
X142042488Y-104604783D01*
X141762870Y-104646213D01*
X141496708Y-104741397D01*
X141371486Y-104808329D01*
X141299903Y-105052298D01*
X139751097Y-105052298D01*
X139679514Y-104808329D01*
X139424004Y-104687429D01*
X139149816Y-104618700D01*
X138867488Y-104604783D01*
X138587870Y-104646213D01*
X138321708Y-104741397D01*
X138196486Y-104808329D01*
X138124903Y-105052298D01*
X136576097Y-105052298D01*
X136504514Y-104808329D01*
X136249004Y-104687429D01*
X135974816Y-104618700D01*
X135692488Y-104604783D01*
X135412870Y-104646213D01*
X135146708Y-104741397D01*
X135021486Y-104808329D01*
X134949903Y-105052298D01*
X133401097Y-105052298D01*
X133329514Y-104808329D01*
X133322481Y-104805001D01*
X133660679Y-104805001D01*
X133698001Y-104808677D01*
X133735323Y-104805001D01*
X133735334Y-104805001D01*
X133846987Y-104794004D01*
X133990248Y-104750547D01*
X134122277Y-104679975D01*
X134238002Y-104585002D01*
X134261805Y-104555998D01*
X136129004Y-102688800D01*
X136158002Y-102665002D01*
X136220118Y-102589314D01*
X136252975Y-102549278D01*
X136263488Y-102529609D01*
X136288147Y-102653574D01*
X136396320Y-102914727D01*
X136553363Y-103149759D01*
X136753241Y-103349637D01*
X136988273Y-103506680D01*
X137249426Y-103614853D01*
X137526665Y-103670000D01*
X137809335Y-103670000D01*
X138086574Y-103614853D01*
X138347727Y-103506680D01*
X138582759Y-103349637D01*
X138782637Y-103149759D01*
X138939680Y-102914727D01*
X139047853Y-102653574D01*
X139103000Y-102376335D01*
X139103000Y-102093665D01*
X139047853Y-101816426D01*
X138939680Y-101555273D01*
X138782637Y-101320241D01*
X138582759Y-101120363D01*
X138347727Y-100963320D01*
X138086574Y-100855147D01*
X137809335Y-100800000D01*
X137526665Y-100800000D01*
X137249426Y-100855147D01*
X136988273Y-100963320D01*
X136753241Y-101120363D01*
X136553363Y-101320241D01*
X136396320Y-101555273D01*
X136378001Y-101599499D01*
X136378001Y-92710501D01*
X136396320Y-92754727D01*
X136553363Y-92989759D01*
X136753241Y-93189637D01*
X136988273Y-93346680D01*
X137249426Y-93454853D01*
X137526665Y-93510000D01*
X137809335Y-93510000D01*
X138086574Y-93454853D01*
X138347727Y-93346680D01*
X138582759Y-93189637D01*
X138782637Y-92989759D01*
X138939680Y-92754727D01*
X138957999Y-92710501D01*
X138957999Y-98532677D01*
X138954323Y-98569999D01*
X138957999Y-98607321D01*
X138957999Y-98607331D01*
X138968996Y-98718984D01*
X139005375Y-98838912D01*
X139012453Y-98862245D01*
X139083025Y-98994275D01*
X139122870Y-99042825D01*
X139177998Y-99110000D01*
X139207001Y-99133803D01*
X139444312Y-99371113D01*
X139408000Y-99553665D01*
X139408000Y-99836335D01*
X139463147Y-100113574D01*
X139571320Y-100374727D01*
X139728363Y-100609759D01*
X139928241Y-100809637D01*
X140163273Y-100966680D01*
X140424426Y-101074853D01*
X140701665Y-101130000D01*
X140984335Y-101130000D01*
X141261574Y-101074853D01*
X141522727Y-100966680D01*
X141757759Y-100809637D01*
X141957637Y-100609759D01*
X142114680Y-100374727D01*
X142222853Y-100113574D01*
X142278000Y-99836335D01*
X142278000Y-99553665D01*
X142222853Y-99276426D01*
X142114680Y-99015273D01*
X141957637Y-98780241D01*
X141757759Y-98580363D01*
X141522727Y-98423320D01*
X141261574Y-98315147D01*
X140984335Y-98260000D01*
X140701665Y-98260000D01*
X140519113Y-98296312D01*
X140477999Y-98255198D01*
X140477999Y-90922902D01*
X140631184Y-90961300D01*
X140913512Y-90975217D01*
X141193130Y-90933787D01*
X141459292Y-90838603D01*
X141584514Y-90771671D01*
X141656097Y-90527702D01*
X140843000Y-89714605D01*
X140828858Y-89728748D01*
X140649253Y-89549143D01*
X140663395Y-89535000D01*
X140649253Y-89520858D01*
X140828858Y-89341253D01*
X140843000Y-89355395D01*
X140857143Y-89341253D01*
X141036748Y-89520858D01*
X141022605Y-89535000D01*
X141835702Y-90348097D01*
X142079671Y-90276514D01*
X142133000Y-90163809D01*
X142132999Y-98532677D01*
X142129323Y-98569999D01*
X142132999Y-98607321D01*
X142132999Y-98607331D01*
X142143996Y-98718984D01*
X142180375Y-98838912D01*
X142187453Y-98862245D01*
X142258025Y-98994275D01*
X142297870Y-99042825D01*
X142352998Y-99110000D01*
X142382001Y-99133803D01*
X142619312Y-99371113D01*
X142583000Y-99553665D01*
X142583000Y-99836335D01*
X142638147Y-100113574D01*
X142746320Y-100374727D01*
X142903363Y-100609759D01*
X143103241Y-100809637D01*
X143338273Y-100966680D01*
X143599426Y-101074853D01*
X143876665Y-101130000D01*
X144159335Y-101130000D01*
X144436574Y-101074853D01*
X144697727Y-100966680D01*
X144932759Y-100809637D01*
X145132637Y-100609759D01*
X145289680Y-100374727D01*
X145397853Y-100113574D01*
X145453000Y-99836335D01*
X145453000Y-99553665D01*
X145397853Y-99276426D01*
X145289680Y-99015273D01*
X145132637Y-98780241D01*
X144932759Y-98580363D01*
X144697727Y-98423320D01*
X144436574Y-98315147D01*
X144159335Y-98260000D01*
X143876665Y-98260000D01*
X143694113Y-98296312D01*
X143652999Y-98255198D01*
X143652999Y-90922902D01*
X143806184Y-90961300D01*
X144088512Y-90975217D01*
X144368130Y-90933787D01*
X144634292Y-90838603D01*
X144759514Y-90771671D01*
X144831097Y-90527702D01*
X144018000Y-89714605D01*
X144003858Y-89728748D01*
X143824253Y-89549143D01*
X143838395Y-89535000D01*
X143824253Y-89520858D01*
X144003858Y-89341253D01*
X144018000Y-89355395D01*
X144032143Y-89341253D01*
X144211748Y-89520858D01*
X144197605Y-89535000D01*
X145010702Y-90348097D01*
X145254671Y-90276514D01*
X145285198Y-90211998D01*
X145307999Y-90234799D01*
X145308000Y-98532667D01*
X145304323Y-98569999D01*
X145308000Y-98607331D01*
X145308000Y-98607332D01*
X145317354Y-98702298D01*
X145318997Y-98718984D01*
X145362453Y-98862245D01*
X145433025Y-98994275D01*
X145486964Y-99059999D01*
X145527999Y-99110000D01*
X145556997Y-99133798D01*
X145794312Y-99371113D01*
X145758000Y-99553665D01*
X145758000Y-99836335D01*
X145813147Y-100113574D01*
X145921320Y-100374727D01*
X146078363Y-100609759D01*
X146278241Y-100809637D01*
X146513273Y-100966680D01*
X146774426Y-101074853D01*
X147051665Y-101130000D01*
X147334335Y-101130000D01*
X147611574Y-101074853D01*
X147872727Y-100966680D01*
X148107759Y-100809637D01*
X148307637Y-100609759D01*
X148464680Y-100374727D01*
X148572853Y-100113574D01*
X148628000Y-99836335D01*
X148628000Y-99553665D01*
X148572853Y-99276426D01*
X148464680Y-99015273D01*
X148307637Y-98780241D01*
X148107759Y-98580363D01*
X147872727Y-98423320D01*
X147611574Y-98315147D01*
X147334335Y-98260000D01*
X147051665Y-98260000D01*
X146869113Y-98296312D01*
X146827999Y-98255198D01*
X146827999Y-90922902D01*
X146981184Y-90961300D01*
X147263512Y-90975217D01*
X147543130Y-90933787D01*
X147809292Y-90838603D01*
X147934514Y-90771671D01*
X148006097Y-90527702D01*
X147193000Y-89714605D01*
X147178858Y-89728748D01*
X146999253Y-89549143D01*
X147013395Y-89535000D01*
X146200298Y-88721903D01*
X146002688Y-88779884D01*
X145615727Y-88392924D01*
X145706574Y-88374853D01*
X145967727Y-88266680D01*
X146068231Y-88199526D01*
X146125236Y-88268986D01*
X146162999Y-88315000D01*
X146191997Y-88338798D01*
X146383440Y-88530242D01*
X146379903Y-88542298D01*
X147193000Y-89355395D01*
X147207143Y-89341253D01*
X147386748Y-89520858D01*
X147372605Y-89535000D01*
X148185702Y-90348097D01*
X148429671Y-90276514D01*
X148460198Y-90211998D01*
X148482999Y-90234799D01*
X148483000Y-98532667D01*
X148479323Y-98569999D01*
X148483000Y-98607331D01*
X148483000Y-98607332D01*
X148492354Y-98702298D01*
X148493997Y-98718984D01*
X148537453Y-98862245D01*
X148608025Y-98994275D01*
X148661964Y-99059999D01*
X148702999Y-99110000D01*
X148731997Y-99133798D01*
X148969312Y-99371113D01*
X148933000Y-99553665D01*
X148933000Y-99836335D01*
X148988147Y-100113574D01*
X149096320Y-100374727D01*
X149253363Y-100609759D01*
X149453241Y-100809637D01*
X149688273Y-100966680D01*
X149949426Y-101074853D01*
X150226665Y-101130000D01*
X150509335Y-101130000D01*
X150786574Y-101074853D01*
X151047727Y-100966680D01*
X151282759Y-100809637D01*
X151482637Y-100609759D01*
X151639680Y-100374727D01*
X151747853Y-100113574D01*
X151803000Y-99836335D01*
X151803000Y-99553665D01*
X151747853Y-99276426D01*
X151639680Y-99015273D01*
X151482637Y-98780241D01*
X151282759Y-98580363D01*
X151047727Y-98423320D01*
X150786574Y-98315147D01*
X150509335Y-98260000D01*
X150226665Y-98260000D01*
X150044113Y-98296312D01*
X150002999Y-98255198D01*
X150002999Y-90922902D01*
X150156184Y-90961300D01*
X150438512Y-90975217D01*
X150718130Y-90933787D01*
X150984292Y-90838603D01*
X151109514Y-90771671D01*
X151181097Y-90527702D01*
X150368000Y-89714605D01*
X150353858Y-89728748D01*
X150174253Y-89549143D01*
X150188395Y-89535000D01*
X149375298Y-88721903D01*
X149177688Y-88779884D01*
X148601696Y-88203892D01*
X148742759Y-88109637D01*
X148942637Y-87909759D01*
X149098000Y-87677241D01*
X149253363Y-87909759D01*
G37*
X149253363Y-87909759D02*
X149453241Y-88109637D01*
X149687128Y-88265915D01*
X149626486Y-88298329D01*
X149554903Y-88542298D01*
X150368000Y-89355395D01*
X150382143Y-89341253D01*
X150561748Y-89520858D01*
X150547605Y-89535000D01*
X151360702Y-90348097D01*
X151604671Y-90276514D01*
X151658000Y-90163809D01*
X151657999Y-98532677D01*
X151654323Y-98569999D01*
X151657999Y-98607321D01*
X151657999Y-98607331D01*
X151668996Y-98718984D01*
X151705375Y-98838912D01*
X151712453Y-98862245D01*
X151783025Y-98994275D01*
X151822870Y-99042825D01*
X151877998Y-99110000D01*
X151907001Y-99133803D01*
X152144312Y-99371113D01*
X152108000Y-99553665D01*
X152108000Y-99836335D01*
X152163147Y-100113574D01*
X152271320Y-100374727D01*
X152428363Y-100609759D01*
X152628241Y-100809637D01*
X152863273Y-100966680D01*
X153124426Y-101074853D01*
X153401665Y-101130000D01*
X153684335Y-101130000D01*
X153961574Y-101074853D01*
X154222727Y-100966680D01*
X154457759Y-100809637D01*
X154657637Y-100609759D01*
X154772320Y-100438123D01*
X154813026Y-100514278D01*
X154844530Y-100552665D01*
X154908000Y-100630003D01*
X154936997Y-100653801D01*
X155614204Y-101331009D01*
X155637998Y-101360002D01*
X155666991Y-101383796D01*
X155666995Y-101383800D01*
X155692195Y-101404481D01*
X155594260Y-101385000D01*
X155301740Y-101385000D01*
X155014842Y-101442068D01*
X154744589Y-101554010D01*
X154501368Y-101716525D01*
X154294525Y-101923368D01*
X154178000Y-102097760D01*
X154061475Y-101923368D01*
X153854632Y-101716525D01*
X153611411Y-101554010D01*
X153341158Y-101442068D01*
X153054260Y-101385000D01*
X152761740Y-101385000D01*
X152474842Y-101442068D01*
X152204589Y-101554010D01*
X151961368Y-101716525D01*
X151754525Y-101923368D01*
X151638000Y-102097760D01*
X151521475Y-101923368D01*
X151314632Y-101716525D01*
X151071411Y-101554010D01*
X150801158Y-101442068D01*
X150514260Y-101385000D01*
X150221740Y-101385000D01*
X149934842Y-101442068D01*
X149664589Y-101554010D01*
X149421368Y-101716525D01*
X149214525Y-101923368D01*
X149098000Y-102097760D01*
X148981475Y-101923368D01*
X148774632Y-101716525D01*
X148531411Y-101554010D01*
X148261158Y-101442068D01*
X147974260Y-101385000D01*
X147681740Y-101385000D01*
X147394842Y-101442068D01*
X147124589Y-101554010D01*
X146881368Y-101716525D01*
X146674525Y-101923368D01*
X146558000Y-102097760D01*
X146441475Y-101923368D01*
X146234632Y-101716525D01*
X145991411Y-101554010D01*
X145721158Y-101442068D01*
X145434260Y-101385000D01*
X145141740Y-101385000D01*
X144854842Y-101442068D01*
X144584589Y-101554010D01*
X144341368Y-101716525D01*
X144134525Y-101923368D01*
X144018000Y-102097760D01*
X143901475Y-101923368D01*
X143694632Y-101716525D01*
X143451411Y-101554010D01*
X143181158Y-101442068D01*
X142894260Y-101385000D01*
X142601740Y-101385000D01*
X142314842Y-101442068D01*
X142044589Y-101554010D01*
X141801368Y-101716525D01*
X141594525Y-101923368D01*
X141432010Y-102166589D01*
X141320068Y-102436842D01*
X141263000Y-102723740D01*
X141263000Y-103016260D01*
X141320068Y-103303158D01*
X141432010Y-103573411D01*
X141594525Y-103816632D01*
X141801368Y-104023475D01*
X142044589Y-104185990D01*
X142314842Y-104297932D01*
X142601740Y-104355000D01*
X142894260Y-104355000D01*
X143181158Y-104297932D01*
X143451411Y-104185990D01*
X143694632Y-104023475D01*
X143901475Y-103816632D01*
X144018000Y-103642240D01*
X144134525Y-103816632D01*
X144341368Y-104023475D01*
X144584589Y-104185990D01*
X144854842Y-104297932D01*
X145141740Y-104355000D01*
X145434260Y-104355000D01*
X145721158Y-104297932D01*
X145991411Y-104185990D01*
X146234632Y-104023475D01*
X146441475Y-103816632D01*
X146558000Y-103642240D01*
X146674525Y-103816632D01*
X146881368Y-104023475D01*
X147124589Y-104185990D01*
X147394842Y-104297932D01*
X147681740Y-104355000D01*
X147974260Y-104355000D01*
X148261158Y-104297932D01*
X148531411Y-104185990D01*
X148774632Y-104023475D01*
X148981475Y-103816632D01*
X149098000Y-103642240D01*
X149214525Y-103816632D01*
X149421368Y-104023475D01*
X149664589Y-104185990D01*
X149934842Y-104297932D01*
X150221740Y-104355000D01*
X150514260Y-104355000D01*
X150801158Y-104297932D01*
X151071411Y-104185990D01*
X151314632Y-104023475D01*
X151521475Y-103816632D01*
X151638000Y-103642240D01*
X151754525Y-103816632D01*
X151961368Y-104023475D01*
X152204589Y-104185990D01*
X152474842Y-104297932D01*
X152761740Y-104355000D01*
X153054260Y-104355000D01*
X153341158Y-104297932D01*
X153611411Y-104185990D01*
X153854632Y-104023475D01*
X154061475Y-103816632D01*
X154178000Y-103642240D01*
X154294525Y-103816632D01*
X154501368Y-104023475D01*
X154744589Y-104185990D01*
X155014842Y-104297932D01*
X155301740Y-104355000D01*
X155594260Y-104355000D01*
X155881158Y-104297932D01*
X156151411Y-104185990D01*
X156394632Y-104023475D01*
X156601475Y-103816632D01*
X156718000Y-103642240D01*
X156834525Y-103816632D01*
X157041368Y-104023475D01*
X157284589Y-104185990D01*
X157554842Y-104297932D01*
X157841740Y-104355000D01*
X158134260Y-104355000D01*
X158421158Y-104297932D01*
X158691411Y-104185990D01*
X158934632Y-104023475D01*
X159066487Y-103891620D01*
X159088498Y-103964180D01*
X159147463Y-104074494D01*
X159226815Y-104171185D01*
X159323506Y-104250537D01*
X159433820Y-104309502D01*
X159553518Y-104345812D01*
X159678000Y-104358072D01*
X160745124Y-104358072D01*
X159813313Y-105289884D01*
X159615702Y-105231903D01*
X158802605Y-106045000D01*
X158816748Y-106059143D01*
X158637143Y-106238748D01*
X158623000Y-106224605D01*
X157809903Y-107037702D01*
X157881486Y-107281671D01*
X158136996Y-107402571D01*
X158411184Y-107471300D01*
X158650120Y-107483078D01*
X154937003Y-111196196D01*
X154907999Y-111219999D01*
X154863693Y-111273987D01*
X154813026Y-111335724D01*
X154769451Y-111417246D01*
X154742454Y-111467754D01*
X154698997Y-111611015D01*
X154688000Y-111722668D01*
X154688000Y-111722678D01*
X154684324Y-111760000D01*
X154688000Y-111797323D01*
X154688001Y-114986956D01*
X154533241Y-115090363D01*
X154333363Y-115290241D01*
X154176320Y-115525273D01*
X154068147Y-115786426D01*
X154013000Y-116063665D01*
X154013000Y-116346335D01*
X154068147Y-116623574D01*
X154176320Y-116884727D01*
X154333363Y-117119759D01*
X154533241Y-117319637D01*
X154768273Y-117476680D01*
X155029426Y-117584853D01*
X155306665Y-117640000D01*
X155589335Y-117640000D01*
X155813002Y-117595509D01*
X155813002Y-117938511D01*
X155594260Y-117895000D01*
X155301740Y-117895000D01*
X155014842Y-117952068D01*
X154744589Y-118064010D01*
X154501368Y-118226525D01*
X154294525Y-118433368D01*
X154132010Y-118676589D01*
X154020068Y-118946842D01*
X153963000Y-119233740D01*
X153963000Y-119526260D01*
X154020068Y-119813158D01*
X154132010Y-120083411D01*
X154294525Y-120326632D01*
X154501368Y-120533475D01*
X154744589Y-120695990D01*
X155014842Y-120807932D01*
X155301740Y-120865000D01*
X155594260Y-120865000D01*
X155881158Y-120807932D01*
X156151411Y-120695990D01*
X156394632Y-120533475D01*
X156601475Y-120326632D01*
X156718000Y-120152240D01*
X156834525Y-120326632D01*
X157041368Y-120533475D01*
X157284589Y-120695990D01*
X157554842Y-120807932D01*
X157841740Y-120865000D01*
X158134260Y-120865000D01*
X158421158Y-120807932D01*
X158691411Y-120695990D01*
X158934632Y-120533475D01*
X159141475Y-120326632D01*
X159258000Y-120152240D01*
X159374525Y-120326632D01*
X159581368Y-120533475D01*
X159824589Y-120695990D01*
X160094842Y-120807932D01*
X160381740Y-120865000D01*
X160674260Y-120865000D01*
X160961158Y-120807932D01*
X161231411Y-120695990D01*
X161474632Y-120533475D01*
X161681475Y-120326632D01*
X161798000Y-120152240D01*
X161914525Y-120326632D01*
X162121368Y-120533475D01*
X162364589Y-120695990D01*
X162634842Y-120807932D01*
X162921740Y-120865000D01*
X163214260Y-120865000D01*
X163501158Y-120807932D01*
X163771411Y-120695990D01*
X164014632Y-120533475D01*
X164221475Y-120326632D01*
X164338000Y-120152240D01*
X164454525Y-120326632D01*
X164661368Y-120533475D01*
X164904589Y-120695990D01*
X165174842Y-120807932D01*
X165461740Y-120865000D01*
X165754260Y-120865000D01*
X166041158Y-120807932D01*
X166311411Y-120695990D01*
X166554632Y-120533475D01*
X166761475Y-120326632D01*
X166878000Y-120152240D01*
X166994525Y-120326632D01*
X167201368Y-120533475D01*
X167444589Y-120695990D01*
X167714842Y-120807932D01*
X168001740Y-120865000D01*
X168294260Y-120865000D01*
X168581158Y-120807932D01*
X168851411Y-120695990D01*
X169094632Y-120533475D01*
X169301475Y-120326632D01*
X169418000Y-120152240D01*
X169534525Y-120326632D01*
X169741368Y-120533475D01*
X169984589Y-120695990D01*
X170254842Y-120807932D01*
X170541740Y-120865000D01*
X170834260Y-120865000D01*
X171121158Y-120807932D01*
X171198000Y-120776103D01*
X171198001Y-122379584D01*
X171121394Y-122420531D01*
X170893203Y-122607803D01*
X170705931Y-122835995D01*
X170688000Y-122869541D01*
X170670069Y-122835994D01*
X170482797Y-122607803D01*
X170254605Y-122420531D01*
X169994263Y-122281375D01*
X169711776Y-122195684D01*
X169418000Y-122166749D01*
X169124223Y-122195684D01*
X168841736Y-122281375D01*
X168581394Y-122420531D01*
X168353203Y-122607803D01*
X168165931Y-122835995D01*
X168148000Y-122869541D01*
X168130069Y-122835994D01*
X167942797Y-122607803D01*
X167714605Y-122420531D01*
X167454263Y-122281375D01*
X167171776Y-122195684D01*
X166878000Y-122166749D01*
X166584223Y-122195684D01*
X166301736Y-122281375D01*
X166041394Y-122420531D01*
X165813203Y-122607803D01*
X165625931Y-122835995D01*
X165608000Y-122869541D01*
X165590069Y-122835994D01*
X165402797Y-122607803D01*
X165174605Y-122420531D01*
X164914263Y-122281375D01*
X164631776Y-122195684D01*
X164338000Y-122166749D01*
X164044223Y-122195684D01*
X163761736Y-122281375D01*
X163501394Y-122420531D01*
X163273203Y-122607803D01*
X163085931Y-122835995D01*
X163068000Y-122869541D01*
X163050069Y-122835994D01*
X162862797Y-122607803D01*
X162634605Y-122420531D01*
X162374263Y-122281375D01*
X162091776Y-122195684D01*
X161798000Y-122166749D01*
X161504223Y-122195684D01*
X161221736Y-122281375D01*
X160961394Y-122420531D01*
X160733203Y-122607803D01*
X160545931Y-122835995D01*
X160406775Y-123096337D01*
X160321084Y-123378824D01*
X160299400Y-123598982D01*
X160299400Y-124051019D01*
X160321084Y-124271177D01*
X160406775Y-124553664D01*
X160545931Y-124814006D01*
X160673952Y-124970000D01*
X157842048Y-124970000D01*
X157970069Y-124814006D01*
X158109225Y-124553663D01*
X158194916Y-124271176D01*
X158216600Y-124051018D01*
X158216600Y-123598981D01*
X158194916Y-123378823D01*
X158109225Y-123096336D01*
X157970069Y-122835994D01*
X157782797Y-122607803D01*
X157554605Y-122420531D01*
X157294263Y-122281375D01*
X157011776Y-122195684D01*
X156718000Y-122166749D01*
X156424223Y-122195684D01*
X156141736Y-122281375D01*
X155881394Y-122420531D01*
X155653203Y-122607803D01*
X155465931Y-122835995D01*
X155444576Y-122875947D01*
X155296486Y-122673271D01*
X155080035Y-122474267D01*
X154828919Y-122321314D01*
X154552789Y-122220291D01*
X154537026Y-122217642D01*
X154305000Y-122338783D01*
X154305000Y-123698000D01*
X154325000Y-123698000D01*
X154325000Y-123952000D01*
X154305000Y-123952000D01*
X154305000Y-123972000D01*
X154051000Y-123972000D01*
X154051000Y-123952000D01*
X151765000Y-123952000D01*
X151765000Y-123972000D01*
X151511000Y-123972000D01*
X151511000Y-123952000D01*
X151491000Y-123952000D01*
X151491000Y-123698000D01*
X151511000Y-123698000D01*
X151511000Y-123678000D01*
X151765000Y-123678000D01*
X151765000Y-123698000D01*
X154051000Y-123698000D01*
X154051000Y-122338783D01*
X153818974Y-122217642D01*
X153803211Y-122220291D01*
X153527081Y-122321314D01*
X153275965Y-122474267D01*
X153059514Y-122673271D01*
X152908000Y-122880633D01*
X152756486Y-122673271D01*
X152540035Y-122474267D01*
X152288919Y-122321314D01*
X152012789Y-122220291D01*
X151997026Y-122217642D01*
X151765002Y-122338782D01*
X151765002Y-122232800D01*
X152149008Y-121848795D01*
X152178001Y-121825001D01*
X152201795Y-121796008D01*
X152201799Y-121796004D01*
X152272973Y-121709277D01*
X152272974Y-121709276D01*
X152343546Y-121577247D01*
X152387003Y-121433986D01*
X152398000Y-121322333D01*
X152398000Y-121322324D01*
X152401676Y-121285001D01*
X152398000Y-121247678D01*
X152398000Y-118274322D01*
X152401676Y-118236999D01*
X152398000Y-118199676D01*
X152398000Y-118199667D01*
X152387003Y-118088014D01*
X152343546Y-117944753D01*
X152272974Y-117812724D01*
X152246127Y-117780011D01*
X152201799Y-117725996D01*
X152201795Y-117725992D01*
X152178001Y-117696999D01*
X152149009Y-117673206D01*
X152111864Y-117636061D01*
X152131665Y-117640000D01*
X152414335Y-117640000D01*
X152691574Y-117584853D01*
X152952727Y-117476680D01*
X153187759Y-117319637D01*
X153387637Y-117119759D01*
X153544680Y-116884727D01*
X153652853Y-116623574D01*
X153708000Y-116346335D01*
X153708000Y-116063665D01*
X153652853Y-115786426D01*
X153544680Y-115525273D01*
X153387637Y-115290241D01*
X153187759Y-115090363D01*
X152952727Y-114933320D01*
X152691574Y-114825147D01*
X152414335Y-114770000D01*
X152131665Y-114770000D01*
X151854426Y-114825147D01*
X151593273Y-114933320D01*
X151358241Y-115090363D01*
X151158363Y-115290241D01*
X151001320Y-115525273D01*
X150893147Y-115786426D01*
X150850504Y-116000806D01*
X150819546Y-115898751D01*
X150748974Y-115766722D01*
X150654001Y-115650997D01*
X150625004Y-115627200D01*
X142444370Y-107446567D01*
X142463130Y-107443787D01*
X142729292Y-107348603D01*
X142854514Y-107281671D01*
X142926097Y-107037702D01*
X144474903Y-107037702D01*
X144546486Y-107281671D01*
X144801996Y-107402571D01*
X145076184Y-107471300D01*
X145358512Y-107485217D01*
X145638130Y-107443787D01*
X145904292Y-107348603D01*
X146029514Y-107281671D01*
X146101097Y-107037702D01*
X147649903Y-107037702D01*
X147721486Y-107281671D01*
X147976996Y-107402571D01*
X148251184Y-107471300D01*
X148533512Y-107485217D01*
X148813130Y-107443787D01*
X149079292Y-107348603D01*
X149204514Y-107281671D01*
X149276097Y-107037702D01*
X151459903Y-107037702D01*
X151531486Y-107281671D01*
X151786996Y-107402571D01*
X152061184Y-107471300D01*
X152343512Y-107485217D01*
X152623130Y-107443787D01*
X152889292Y-107348603D01*
X153014514Y-107281671D01*
X153086097Y-107037702D01*
X154634903Y-107037702D01*
X154706486Y-107281671D01*
X154961996Y-107402571D01*
X155236184Y-107471300D01*
X155518512Y-107485217D01*
X155798130Y-107443787D01*
X156064292Y-107348603D01*
X156189514Y-107281671D01*
X156261097Y-107037702D01*
X155448000Y-106224605D01*
X154634903Y-107037702D01*
X153086097Y-107037702D01*
X152273000Y-106224605D01*
X151459903Y-107037702D01*
X149276097Y-107037702D01*
X148463000Y-106224605D01*
X147649903Y-107037702D01*
X146101097Y-107037702D01*
X145288000Y-106224605D01*
X144474903Y-107037702D01*
X142926097Y-107037702D01*
X142113000Y-106224605D01*
X142098858Y-106238748D01*
X141919253Y-106059143D01*
X141933395Y-106045000D01*
X142292605Y-106045000D01*
X143105702Y-106858097D01*
X143349671Y-106786514D01*
X143470571Y-106531004D01*
X143539300Y-106256816D01*
X143546265Y-106115512D01*
X143847783Y-106115512D01*
X143889213Y-106395130D01*
X143984397Y-106661292D01*
X144051329Y-106786514D01*
X144295298Y-106858097D01*
X145108395Y-106045000D01*
X145467605Y-106045000D01*
X146280702Y-106858097D01*
X146524671Y-106786514D01*
X146645571Y-106531004D01*
X146714300Y-106256816D01*
X146721265Y-106115512D01*
X147022783Y-106115512D01*
X147064213Y-106395130D01*
X147159397Y-106661292D01*
X147226329Y-106786514D01*
X147470298Y-106858097D01*
X148283395Y-106045000D01*
X148642605Y-106045000D01*
X149455702Y-106858097D01*
X149699671Y-106786514D01*
X149820571Y-106531004D01*
X149889300Y-106256816D01*
X149896265Y-106115512D01*
X150832783Y-106115512D01*
X150874213Y-106395130D01*
X150969397Y-106661292D01*
X151036329Y-106786514D01*
X151280298Y-106858097D01*
X152093395Y-106045000D01*
X152452605Y-106045000D01*
X153265702Y-106858097D01*
X153509671Y-106786514D01*
X153630571Y-106531004D01*
X153699300Y-106256816D01*
X153706265Y-106115512D01*
X154007783Y-106115512D01*
X154049213Y-106395130D01*
X154144397Y-106661292D01*
X154211329Y-106786514D01*
X154455298Y-106858097D01*
X155268395Y-106045000D01*
X155627605Y-106045000D01*
X156440702Y-106858097D01*
X156684671Y-106786514D01*
X156805571Y-106531004D01*
X156874300Y-106256816D01*
X156881265Y-106115512D01*
X157182783Y-106115512D01*
X157224213Y-106395130D01*
X157319397Y-106661292D01*
X157386329Y-106786514D01*
X157630298Y-106858097D01*
X158443395Y-106045000D01*
X157630298Y-105231903D01*
X157386329Y-105303486D01*
X157265429Y-105558996D01*
X157196700Y-105833184D01*
X157182783Y-106115512D01*
X156881265Y-106115512D01*
X156888217Y-105974488D01*
X156846787Y-105694870D01*
X156751603Y-105428708D01*
X156684671Y-105303486D01*
X156440702Y-105231903D01*
X155627605Y-106045000D01*
X155268395Y-106045000D01*
X154455298Y-105231903D01*
X154211329Y-105303486D01*
X154090429Y-105558996D01*
X154021700Y-105833184D01*
X154007783Y-106115512D01*
X153706265Y-106115512D01*
X153713217Y-105974488D01*
X153671787Y-105694870D01*
X153576603Y-105428708D01*
X153509671Y-105303486D01*
X153265702Y-105231903D01*
X152452605Y-106045000D01*
X152093395Y-106045000D01*
X151280298Y-105231903D01*
X151036329Y-105303486D01*
X150915429Y-105558996D01*
X150846700Y-105833184D01*
X150832783Y-106115512D01*
X149896265Y-106115512D01*
X149903217Y-105974488D01*
X149861787Y-105694870D01*
X149766603Y-105428708D01*
X149699671Y-105303486D01*
X149455702Y-105231903D01*
X148642605Y-106045000D01*
X148283395Y-106045000D01*
X147470298Y-105231903D01*
X147226329Y-105303486D01*
X147105429Y-105558996D01*
X147036700Y-105833184D01*
X147022783Y-106115512D01*
X146721265Y-106115512D01*
X146728217Y-105974488D01*
X146686787Y-105694870D01*
X146591603Y-105428708D01*
X146524671Y-105303486D01*
X146280702Y-105231903D01*
X145467605Y-106045000D01*
X145108395Y-106045000D01*
X144295298Y-105231903D01*
X144051329Y-105303486D01*
X143930429Y-105558996D01*
X143861700Y-105833184D01*
X143847783Y-106115512D01*
X143546265Y-106115512D01*
X143553217Y-105974488D01*
X143511787Y-105694870D01*
X143416603Y-105428708D01*
X143349671Y-105303486D01*
X143105702Y-105231903D01*
X142292605Y-106045000D01*
X141933395Y-106045000D01*
X141120298Y-105231903D01*
X140876329Y-105303486D01*
X140755429Y-105558996D01*
X140686700Y-105833184D01*
X140672783Y-106115512D01*
X140714213Y-106395130D01*
X140771385Y-106555000D01*
X140284217Y-106555000D01*
X140295571Y-106531004D01*
X140364300Y-106256816D01*
X140378217Y-105974488D01*
X140336787Y-105694870D01*
X140241603Y-105428708D01*
X140174671Y-105303486D01*
X139930702Y-105231903D01*
X139117605Y-106045000D01*
X139131748Y-106059143D01*
X138952143Y-106238748D01*
X138938000Y-106224605D01*
X138923858Y-106238748D01*
X138744253Y-106059143D01*
X138758395Y-106045000D01*
X137945298Y-105231903D01*
X137701329Y-105303486D01*
X137580429Y-105558996D01*
X137511700Y-105833184D01*
X137497783Y-106115512D01*
X137539213Y-106395130D01*
X137596385Y-106555000D01*
X137109217Y-106555000D01*
X137120571Y-106531004D01*
X137189300Y-106256816D01*
X137203217Y-105974488D01*
X137161787Y-105694870D01*
X137066603Y-105428708D01*
X136999671Y-105303486D01*
X136755702Y-105231903D01*
X135942605Y-106045000D01*
X135956748Y-106059143D01*
X135777143Y-106238748D01*
X135763000Y-106224605D01*
X135748858Y-106238748D01*
X135569253Y-106059143D01*
X135583395Y-106045000D01*
X134770298Y-105231903D01*
X134526329Y-105303486D01*
X134405429Y-105558996D01*
X134336700Y-105833184D01*
X134322783Y-106115512D01*
X134364213Y-106395130D01*
X134421385Y-106555000D01*
X133934217Y-106555000D01*
X133945571Y-106531004D01*
X134014300Y-106256816D01*
X134028217Y-105974488D01*
X133986787Y-105694870D01*
X133891603Y-105428708D01*
X133824671Y-105303486D01*
X133580702Y-105231903D01*
X132767605Y-106045000D01*
X132781748Y-106059143D01*
X132602143Y-106238748D01*
X132588000Y-106224605D01*
X132573858Y-106238748D01*
X132394253Y-106059143D01*
X132408395Y-106045000D01*
X131595298Y-105231903D01*
X131351329Y-105303486D01*
X131230429Y-105558996D01*
X131161700Y-105833184D01*
X131147783Y-106115512D01*
X131189213Y-106395130D01*
X131246385Y-106555000D01*
X130759217Y-106555000D01*
X130770571Y-106531004D01*
X130839300Y-106256816D01*
X130853217Y-105974488D01*
X130811787Y-105694870D01*
X130716603Y-105428708D01*
X130649671Y-105303486D01*
X130405702Y-105231903D01*
X129592605Y-106045000D01*
X129606748Y-106059143D01*
X129427143Y-106238748D01*
X129413000Y-106224605D01*
X129398858Y-106238748D01*
X129219253Y-106059143D01*
X129233395Y-106045000D01*
X128420298Y-105231903D01*
X128176329Y-105303486D01*
X128055429Y-105558996D01*
X127986700Y-105833184D01*
X127972783Y-106115512D01*
X128014213Y-106395130D01*
X128071385Y-106555000D01*
X127584217Y-106555000D01*
X127595571Y-106531004D01*
X127664300Y-106256816D01*
X127678217Y-105974488D01*
X127636787Y-105694870D01*
X127541603Y-105428708D01*
X127474671Y-105303486D01*
X127230702Y-105231903D01*
X126417605Y-106045000D01*
X126431748Y-106059143D01*
X126252143Y-106238748D01*
X126238000Y-106224605D01*
X126223858Y-106238748D01*
X126044253Y-106059143D01*
X126058395Y-106045000D01*
X125245298Y-105231903D01*
X125001329Y-105303486D01*
X124880429Y-105558996D01*
X124811700Y-105833184D01*
X124807421Y-105920000D01*
X121849802Y-105920000D01*
X122234802Y-105535000D01*
X123470680Y-105535000D01*
X123508002Y-105538676D01*
X123545324Y-105535000D01*
X123545335Y-105535000D01*
X123656988Y-105524003D01*
X123800249Y-105480546D01*
X123932278Y-105409974D01*
X124048003Y-105315001D01*
X124071805Y-105285998D01*
X124552803Y-104805001D01*
X125502712Y-104805001D01*
X125496486Y-104808329D01*
X125424903Y-105052298D01*
X126238000Y-105865395D01*
X127051097Y-105052298D01*
X126979514Y-104808329D01*
X126972481Y-104805001D01*
X128677712Y-104805001D01*
X128671486Y-104808329D01*
X128599903Y-105052298D01*
X129413000Y-105865395D01*
X130226097Y-105052298D01*
X130154514Y-104808329D01*
X130147481Y-104805001D01*
X131852712Y-104805001D01*
X131846486Y-104808329D01*
X131774903Y-105052298D01*
X132588000Y-105865395D01*
X133401097Y-105052298D01*
X134949903Y-105052298D01*
X135763000Y-105865395D01*
X136576097Y-105052298D01*
X138124903Y-105052298D01*
X138938000Y-105865395D01*
X139751097Y-105052298D01*
X141299903Y-105052298D01*
X142113000Y-105865395D01*
X142926097Y-105052298D01*
X144474903Y-105052298D01*
X145288000Y-105865395D01*
X146101097Y-105052298D01*
X147649903Y-105052298D01*
X148463000Y-105865395D01*
X149276097Y-105052298D01*
X151459903Y-105052298D01*
X152273000Y-105865395D01*
X153086097Y-105052298D01*
X154634903Y-105052298D01*
X155448000Y-105865395D01*
X156261097Y-105052298D01*
X157809903Y-105052298D01*
X158623000Y-105865395D01*
X159436097Y-105052298D01*
X159364514Y-104808329D01*
X159109004Y-104687429D01*
X158834816Y-104618700D01*
X158552488Y-104604783D01*
X158272870Y-104646213D01*
X158006708Y-104741397D01*
X157881486Y-104808329D01*
X157809903Y-105052298D01*
X156261097Y-105052298D01*
X156189514Y-104808329D01*
X155934004Y-104687429D01*
X155659816Y-104618700D01*
X155377488Y-104604783D01*
X155097870Y-104646213D01*
X154831708Y-104741397D01*
X154706486Y-104808329D01*
X154634903Y-105052298D01*
X153086097Y-105052298D01*
X153014514Y-104808329D01*
X152759004Y-104687429D01*
X152484816Y-104618700D01*
X152202488Y-104604783D01*
X151922870Y-104646213D01*
X151656708Y-104741397D01*
X151531486Y-104808329D01*
X151459903Y-105052298D01*
X149276097Y-105052298D01*
X149204514Y-104808329D01*
X148949004Y-104687429D01*
X148674816Y-104618700D01*
X148392488Y-104604783D01*
X148112870Y-104646213D01*
X147846708Y-104741397D01*
X147721486Y-104808329D01*
X147649903Y-105052298D01*
X146101097Y-105052298D01*
X146029514Y-104808329D01*
X145774004Y-104687429D01*
X145499816Y-104618700D01*
X145217488Y-104604783D01*
X144937870Y-104646213D01*
X144671708Y-104741397D01*
X144546486Y-104808329D01*
X144474903Y-105052298D01*
X142926097Y-105052298D01*
X142854514Y-104808329D01*
X142599004Y-104687429D01*
X142324816Y-104618700D01*
X142042488Y-104604783D01*
X141762870Y-104646213D01*
X141496708Y-104741397D01*
X141371486Y-104808329D01*
X141299903Y-105052298D01*
X139751097Y-105052298D01*
X139679514Y-104808329D01*
X139424004Y-104687429D01*
X139149816Y-104618700D01*
X138867488Y-104604783D01*
X138587870Y-104646213D01*
X138321708Y-104741397D01*
X138196486Y-104808329D01*
X138124903Y-105052298D01*
X136576097Y-105052298D01*
X136504514Y-104808329D01*
X136249004Y-104687429D01*
X135974816Y-104618700D01*
X135692488Y-104604783D01*
X135412870Y-104646213D01*
X135146708Y-104741397D01*
X135021486Y-104808329D01*
X134949903Y-105052298D01*
X133401097Y-105052298D01*
X133329514Y-104808329D01*
X133322481Y-104805001D01*
X133660679Y-104805001D01*
X133698001Y-104808677D01*
X133735323Y-104805001D01*
X133735334Y-104805001D01*
X133846987Y-104794004D01*
X133990248Y-104750547D01*
X134122277Y-104679975D01*
X134238002Y-104585002D01*
X134261805Y-104555998D01*
X136129004Y-102688800D01*
X136158002Y-102665002D01*
X136220118Y-102589314D01*
X136252975Y-102549278D01*
X136263488Y-102529609D01*
X136288147Y-102653574D01*
X136396320Y-102914727D01*
X136553363Y-103149759D01*
X136753241Y-103349637D01*
X136988273Y-103506680D01*
X137249426Y-103614853D01*
X137526665Y-103670000D01*
X137809335Y-103670000D01*
X138086574Y-103614853D01*
X138347727Y-103506680D01*
X138582759Y-103349637D01*
X138782637Y-103149759D01*
X138939680Y-102914727D01*
X139047853Y-102653574D01*
X139103000Y-102376335D01*
X139103000Y-102093665D01*
X139047853Y-101816426D01*
X138939680Y-101555273D01*
X138782637Y-101320241D01*
X138582759Y-101120363D01*
X138347727Y-100963320D01*
X138086574Y-100855147D01*
X137809335Y-100800000D01*
X137526665Y-100800000D01*
X137249426Y-100855147D01*
X136988273Y-100963320D01*
X136753241Y-101120363D01*
X136553363Y-101320241D01*
X136396320Y-101555273D01*
X136378001Y-101599499D01*
X136378001Y-92710501D01*
X136396320Y-92754727D01*
X136553363Y-92989759D01*
X136753241Y-93189637D01*
X136988273Y-93346680D01*
X137249426Y-93454853D01*
X137526665Y-93510000D01*
X137809335Y-93510000D01*
X138086574Y-93454853D01*
X138347727Y-93346680D01*
X138582759Y-93189637D01*
X138782637Y-92989759D01*
X138939680Y-92754727D01*
X138957999Y-92710501D01*
X138957999Y-98532677D01*
X138954323Y-98569999D01*
X138957999Y-98607321D01*
X138957999Y-98607331D01*
X138968996Y-98718984D01*
X139005375Y-98838912D01*
X139012453Y-98862245D01*
X139083025Y-98994275D01*
X139122870Y-99042825D01*
X139177998Y-99110000D01*
X139207001Y-99133803D01*
X139444312Y-99371113D01*
X139408000Y-99553665D01*
X139408000Y-99836335D01*
X139463147Y-100113574D01*
X139571320Y-100374727D01*
X139728363Y-100609759D01*
X139928241Y-100809637D01*
X140163273Y-100966680D01*
X140424426Y-101074853D01*
X140701665Y-101130000D01*
X140984335Y-101130000D01*
X141261574Y-101074853D01*
X141522727Y-100966680D01*
X141757759Y-100809637D01*
X141957637Y-100609759D01*
X142114680Y-100374727D01*
X142222853Y-100113574D01*
X142278000Y-99836335D01*
X142278000Y-99553665D01*
X142222853Y-99276426D01*
X142114680Y-99015273D01*
X141957637Y-98780241D01*
X141757759Y-98580363D01*
X141522727Y-98423320D01*
X141261574Y-98315147D01*
X140984335Y-98260000D01*
X140701665Y-98260000D01*
X140519113Y-98296312D01*
X140477999Y-98255198D01*
X140477999Y-90922902D01*
X140631184Y-90961300D01*
X140913512Y-90975217D01*
X141193130Y-90933787D01*
X141459292Y-90838603D01*
X141584514Y-90771671D01*
X141656097Y-90527702D01*
X140843000Y-89714605D01*
X140828858Y-89728748D01*
X140649253Y-89549143D01*
X140663395Y-89535000D01*
X140649253Y-89520858D01*
X140828858Y-89341253D01*
X140843000Y-89355395D01*
X140857143Y-89341253D01*
X141036748Y-89520858D01*
X141022605Y-89535000D01*
X141835702Y-90348097D01*
X142079671Y-90276514D01*
X142133000Y-90163809D01*
X142132999Y-98532677D01*
X142129323Y-98569999D01*
X142132999Y-98607321D01*
X142132999Y-98607331D01*
X142143996Y-98718984D01*
X142180375Y-98838912D01*
X142187453Y-98862245D01*
X142258025Y-98994275D01*
X142297870Y-99042825D01*
X142352998Y-99110000D01*
X142382001Y-99133803D01*
X142619312Y-99371113D01*
X142583000Y-99553665D01*
X142583000Y-99836335D01*
X142638147Y-100113574D01*
X142746320Y-100374727D01*
X142903363Y-100609759D01*
X143103241Y-100809637D01*
X143338273Y-100966680D01*
X143599426Y-101074853D01*
X143876665Y-101130000D01*
X144159335Y-101130000D01*
X144436574Y-101074853D01*
X144697727Y-100966680D01*
X144932759Y-100809637D01*
X145132637Y-100609759D01*
X145289680Y-100374727D01*
X145397853Y-100113574D01*
X145453000Y-99836335D01*
X145453000Y-99553665D01*
X145397853Y-99276426D01*
X145289680Y-99015273D01*
X145132637Y-98780241D01*
X144932759Y-98580363D01*
X144697727Y-98423320D01*
X144436574Y-98315147D01*
X144159335Y-98260000D01*
X143876665Y-98260000D01*
X143694113Y-98296312D01*
X143652999Y-98255198D01*
X143652999Y-90922902D01*
X143806184Y-90961300D01*
X144088512Y-90975217D01*
X144368130Y-90933787D01*
X144634292Y-90838603D01*
X144759514Y-90771671D01*
X144831097Y-90527702D01*
X144018000Y-89714605D01*
X144003858Y-89728748D01*
X143824253Y-89549143D01*
X143838395Y-89535000D01*
X143824253Y-89520858D01*
X144003858Y-89341253D01*
X144018000Y-89355395D01*
X144032143Y-89341253D01*
X144211748Y-89520858D01*
X144197605Y-89535000D01*
X145010702Y-90348097D01*
X145254671Y-90276514D01*
X145285198Y-90211998D01*
X145307999Y-90234799D01*
X145308000Y-98532667D01*
X145304323Y-98569999D01*
X145308000Y-98607331D01*
X145308000Y-98607332D01*
X145317354Y-98702298D01*
X145318997Y-98718984D01*
X145362453Y-98862245D01*
X145433025Y-98994275D01*
X145486964Y-99059999D01*
X145527999Y-99110000D01*
X145556997Y-99133798D01*
X145794312Y-99371113D01*
X145758000Y-99553665D01*
X145758000Y-99836335D01*
X145813147Y-100113574D01*
X145921320Y-100374727D01*
X146078363Y-100609759D01*
X146278241Y-100809637D01*
X146513273Y-100966680D01*
X146774426Y-101074853D01*
X147051665Y-101130000D01*
X147334335Y-101130000D01*
X147611574Y-101074853D01*
X147872727Y-100966680D01*
X148107759Y-100809637D01*
X148307637Y-100609759D01*
X148464680Y-100374727D01*
X148572853Y-100113574D01*
X148628000Y-99836335D01*
X148628000Y-99553665D01*
X148572853Y-99276426D01*
X148464680Y-99015273D01*
X148307637Y-98780241D01*
X148107759Y-98580363D01*
X147872727Y-98423320D01*
X147611574Y-98315147D01*
X147334335Y-98260000D01*
X147051665Y-98260000D01*
X146869113Y-98296312D01*
X146827999Y-98255198D01*
X146827999Y-90922902D01*
X146981184Y-90961300D01*
X147263512Y-90975217D01*
X147543130Y-90933787D01*
X147809292Y-90838603D01*
X147934514Y-90771671D01*
X148006097Y-90527702D01*
X147193000Y-89714605D01*
X147178858Y-89728748D01*
X146999253Y-89549143D01*
X147013395Y-89535000D01*
X146200298Y-88721903D01*
X146002688Y-88779884D01*
X145615727Y-88392924D01*
X145706574Y-88374853D01*
X145967727Y-88266680D01*
X146068231Y-88199526D01*
X146125236Y-88268986D01*
X146162999Y-88315000D01*
X146191997Y-88338798D01*
X146383440Y-88530242D01*
X146379903Y-88542298D01*
X147193000Y-89355395D01*
X147207143Y-89341253D01*
X147386748Y-89520858D01*
X147372605Y-89535000D01*
X148185702Y-90348097D01*
X148429671Y-90276514D01*
X148460198Y-90211998D01*
X148482999Y-90234799D01*
X148483000Y-98532667D01*
X148479323Y-98569999D01*
X148483000Y-98607331D01*
X148483000Y-98607332D01*
X148492354Y-98702298D01*
X148493997Y-98718984D01*
X148537453Y-98862245D01*
X148608025Y-98994275D01*
X148661964Y-99059999D01*
X148702999Y-99110000D01*
X148731997Y-99133798D01*
X148969312Y-99371113D01*
X148933000Y-99553665D01*
X148933000Y-99836335D01*
X148988147Y-100113574D01*
X149096320Y-100374727D01*
X149253363Y-100609759D01*
X149453241Y-100809637D01*
X149688273Y-100966680D01*
X149949426Y-101074853D01*
X150226665Y-101130000D01*
X150509335Y-101130000D01*
X150786574Y-101074853D01*
X151047727Y-100966680D01*
X151282759Y-100809637D01*
X151482637Y-100609759D01*
X151639680Y-100374727D01*
X151747853Y-100113574D01*
X151803000Y-99836335D01*
X151803000Y-99553665D01*
X151747853Y-99276426D01*
X151639680Y-99015273D01*
X151482637Y-98780241D01*
X151282759Y-98580363D01*
X151047727Y-98423320D01*
X150786574Y-98315147D01*
X150509335Y-98260000D01*
X150226665Y-98260000D01*
X150044113Y-98296312D01*
X150002999Y-98255198D01*
X150002999Y-90922902D01*
X150156184Y-90961300D01*
X150438512Y-90975217D01*
X150718130Y-90933787D01*
X150984292Y-90838603D01*
X151109514Y-90771671D01*
X151181097Y-90527702D01*
X150368000Y-89714605D01*
X150353858Y-89728748D01*
X150174253Y-89549143D01*
X150188395Y-89535000D01*
X149375298Y-88721903D01*
X149177688Y-88779884D01*
X148601696Y-88203892D01*
X148742759Y-88109637D01*
X148942637Y-87909759D01*
X149098000Y-87677241D01*
X149253363Y-87909759D01*
G36*
X137685931Y-122835995D02*
G01*
X137546775Y-123096337D01*
X137461084Y-123378824D01*
X137439400Y-123598982D01*
X137439400Y-124051019D01*
X137461084Y-124271177D01*
X137546775Y-124553664D01*
X137685931Y-124814006D01*
X137813952Y-124970000D01*
X133524705Y-124970000D01*
X133588269Y-124922588D01*
X133783178Y-124706355D01*
X133932157Y-124456252D01*
X134029481Y-124181891D01*
X133908814Y-123952000D01*
X132715000Y-123952000D01*
X132715000Y-123972000D01*
X132461000Y-123972000D01*
X132461000Y-123952000D01*
X132441000Y-123952000D01*
X132441000Y-123698000D01*
X132461000Y-123698000D01*
X132461000Y-123678000D01*
X132715000Y-123678000D01*
X132715000Y-123698000D01*
X133908814Y-123698000D01*
X134029481Y-123468109D01*
X133932157Y-123193748D01*
X133783178Y-122943645D01*
X133588269Y-122727412D01*
X133524705Y-122680000D01*
X137813953Y-122680000D01*
X137685931Y-122835995D01*
G37*
X137685931Y-122835995D02*
X137546775Y-123096337D01*
X137461084Y-123378824D01*
X137439400Y-123598982D01*
X137439400Y-124051019D01*
X137461084Y-124271177D01*
X137546775Y-124553664D01*
X137685931Y-124814006D01*
X137813952Y-124970000D01*
X133524705Y-124970000D01*
X133588269Y-124922588D01*
X133783178Y-124706355D01*
X133932157Y-124456252D01*
X134029481Y-124181891D01*
X133908814Y-123952000D01*
X132715000Y-123952000D01*
X132715000Y-123972000D01*
X132461000Y-123972000D01*
X132461000Y-123952000D01*
X132441000Y-123952000D01*
X132441000Y-123698000D01*
X132461000Y-123698000D01*
X132461000Y-123678000D01*
X132715000Y-123678000D01*
X132715000Y-123698000D01*
X133908814Y-123698000D01*
X134029481Y-123468109D01*
X133932157Y-123193748D01*
X133783178Y-122943645D01*
X133588269Y-122727412D01*
X133524705Y-122680000D01*
X137813953Y-122680000D01*
X137685931Y-122835995D01*
G36*
X169448997Y-104136013D02*
G01*
X169441592Y-104211201D01*
X169434323Y-104284999D01*
X169438000Y-104322331D01*
X169438000Y-105403258D01*
X169384671Y-105303486D01*
X169140702Y-105231903D01*
X168327605Y-106045000D01*
X169140702Y-106858097D01*
X169384671Y-106786514D01*
X169438000Y-106673809D01*
X169437999Y-115505201D01*
X169418978Y-115524222D01*
X169262637Y-115290241D01*
X169062759Y-115090363D01*
X168827727Y-114933320D01*
X168566574Y-114825147D01*
X168289335Y-114770000D01*
X168006665Y-114770000D01*
X167729426Y-114825147D01*
X167468273Y-114933320D01*
X167233241Y-115090363D01*
X167033363Y-115290241D01*
X166876320Y-115525273D01*
X166768147Y-115786426D01*
X166713000Y-116063665D01*
X166713000Y-116346335D01*
X166757491Y-116570001D01*
X166412803Y-116570001D01*
X166371688Y-116528886D01*
X166408000Y-116346335D01*
X166408000Y-116063665D01*
X166352853Y-115786426D01*
X166244680Y-115525273D01*
X166087637Y-115290241D01*
X165887759Y-115090363D01*
X165652727Y-114933320D01*
X165391574Y-114825147D01*
X165114335Y-114770000D01*
X164831665Y-114770000D01*
X164554426Y-114825147D01*
X164293273Y-114933320D01*
X164058241Y-115090363D01*
X163858363Y-115290241D01*
X163701320Y-115525273D01*
X163593147Y-115786426D01*
X163538000Y-116063665D01*
X163538000Y-116346335D01*
X163593147Y-116623574D01*
X163701320Y-116884727D01*
X163858363Y-117119759D01*
X164058241Y-117319637D01*
X164213000Y-117423044D01*
X164213001Y-118424894D01*
X164014632Y-118226525D01*
X163771411Y-118064010D01*
X163501158Y-117952068D01*
X163214260Y-117895000D01*
X162921740Y-117895000D01*
X162701592Y-117938791D01*
X162558000Y-117795199D01*
X162558000Y-117423043D01*
X162712759Y-117319637D01*
X162912637Y-117119759D01*
X163069680Y-116884727D01*
X163177853Y-116623574D01*
X163233000Y-116346335D01*
X163233000Y-116063665D01*
X163196688Y-115881113D01*
X167059018Y-112018784D01*
X167088011Y-111994990D01*
X167111805Y-111965997D01*
X167111810Y-111965992D01*
X167182985Y-111879266D01*
X167253557Y-111747236D01*
X167297013Y-111603975D01*
X167311687Y-111454989D01*
X167308010Y-111417656D01*
X167308012Y-107064595D01*
X167334903Y-107037704D01*
X167406486Y-107281671D01*
X167661996Y-107402571D01*
X167936184Y-107471300D01*
X168218512Y-107485217D01*
X168498130Y-107443787D01*
X168764292Y-107348603D01*
X168889514Y-107281671D01*
X168961097Y-107037702D01*
X168148000Y-106224605D01*
X168133858Y-106238748D01*
X167954253Y-106059143D01*
X167968395Y-106045000D01*
X167954253Y-106030858D01*
X168133858Y-105851253D01*
X168148000Y-105865395D01*
X168961097Y-105052298D01*
X168889514Y-104808329D01*
X168824998Y-104777802D01*
X169305025Y-104297775D01*
X169334023Y-104273977D01*
X169428996Y-104158252D01*
X169459644Y-104100915D01*
X169448997Y-104136013D01*
G37*
X169448997Y-104136013D02*
X169441592Y-104211201D01*
X169434323Y-104284999D01*
X169438000Y-104322331D01*
X169438000Y-105403258D01*
X169384671Y-105303486D01*
X169140702Y-105231903D01*
X168327605Y-106045000D01*
X169140702Y-106858097D01*
X169384671Y-106786514D01*
X169438000Y-106673809D01*
X169437999Y-115505201D01*
X169418978Y-115524222D01*
X169262637Y-115290241D01*
X169062759Y-115090363D01*
X168827727Y-114933320D01*
X168566574Y-114825147D01*
X168289335Y-114770000D01*
X168006665Y-114770000D01*
X167729426Y-114825147D01*
X167468273Y-114933320D01*
X167233241Y-115090363D01*
X167033363Y-115290241D01*
X166876320Y-115525273D01*
X166768147Y-115786426D01*
X166713000Y-116063665D01*
X166713000Y-116346335D01*
X166757491Y-116570001D01*
X166412803Y-116570001D01*
X166371688Y-116528886D01*
X166408000Y-116346335D01*
X166408000Y-116063665D01*
X166352853Y-115786426D01*
X166244680Y-115525273D01*
X166087637Y-115290241D01*
X165887759Y-115090363D01*
X165652727Y-114933320D01*
X165391574Y-114825147D01*
X165114335Y-114770000D01*
X164831665Y-114770000D01*
X164554426Y-114825147D01*
X164293273Y-114933320D01*
X164058241Y-115090363D01*
X163858363Y-115290241D01*
X163701320Y-115525273D01*
X163593147Y-115786426D01*
X163538000Y-116063665D01*
X163538000Y-116346335D01*
X163593147Y-116623574D01*
X163701320Y-116884727D01*
X163858363Y-117119759D01*
X164058241Y-117319637D01*
X164213000Y-117423044D01*
X164213001Y-118424894D01*
X164014632Y-118226525D01*
X163771411Y-118064010D01*
X163501158Y-117952068D01*
X163214260Y-117895000D01*
X162921740Y-117895000D01*
X162701592Y-117938791D01*
X162558000Y-117795199D01*
X162558000Y-117423043D01*
X162712759Y-117319637D01*
X162912637Y-117119759D01*
X163069680Y-116884727D01*
X163177853Y-116623574D01*
X163233000Y-116346335D01*
X163233000Y-116063665D01*
X163196688Y-115881113D01*
X167059018Y-112018784D01*
X167088011Y-111994990D01*
X167111805Y-111965997D01*
X167111810Y-111965992D01*
X167182985Y-111879266D01*
X167253557Y-111747236D01*
X167297013Y-111603975D01*
X167311687Y-111454989D01*
X167308010Y-111417656D01*
X167308012Y-107064595D01*
X167334903Y-107037704D01*
X167406486Y-107281671D01*
X167661996Y-107402571D01*
X167936184Y-107471300D01*
X168218512Y-107485217D01*
X168498130Y-107443787D01*
X168764292Y-107348603D01*
X168889514Y-107281671D01*
X168961097Y-107037702D01*
X168148000Y-106224605D01*
X168133858Y-106238748D01*
X167954253Y-106059143D01*
X167968395Y-106045000D01*
X167954253Y-106030858D01*
X168133858Y-105851253D01*
X168148000Y-105865395D01*
X168961097Y-105052298D01*
X168889514Y-104808329D01*
X168824998Y-104777802D01*
X169305025Y-104297775D01*
X169334023Y-104273977D01*
X169428996Y-104158252D01*
X169459644Y-104100915D01*
X169448997Y-104136013D01*
G36*
X178868000Y-116803293D02*
G01*
X178738113Y-116673406D01*
X178301298Y-116381536D01*
X177815935Y-116180492D01*
X177300677Y-116078000D01*
X177155548Y-116078000D01*
X177163000Y-116002335D01*
X177163000Y-116002325D01*
X177166676Y-115965002D01*
X177163000Y-115927679D01*
X177163000Y-107860535D01*
X177231586Y-107757889D01*
X177302068Y-107587729D01*
X177338000Y-107407089D01*
X177338000Y-107222911D01*
X177302068Y-107042271D01*
X177231586Y-106872111D01*
X177129262Y-106718972D01*
X176999028Y-106588738D01*
X176845889Y-106486414D01*
X176675729Y-106415932D01*
X176495089Y-106380000D01*
X176310911Y-106380000D01*
X176130271Y-106415932D01*
X175960111Y-106486414D01*
X175838092Y-106567944D01*
X175855571Y-106531004D01*
X175924300Y-106256816D01*
X175938217Y-105974488D01*
X175896787Y-105694870D01*
X175801603Y-105428708D01*
X175734671Y-105303486D01*
X175490702Y-105231903D01*
X174677605Y-106045000D01*
X174691748Y-106059143D01*
X174512143Y-106238748D01*
X174498000Y-106224605D01*
X173684903Y-107037702D01*
X173756486Y-107281671D01*
X174011996Y-107402571D01*
X174286184Y-107471300D01*
X174568512Y-107485217D01*
X174848130Y-107443787D01*
X175114292Y-107348603D01*
X175239514Y-107281671D01*
X175311097Y-107037704D01*
X175427370Y-107153977D01*
X175495206Y-107086141D01*
X175468000Y-107222911D01*
X175468000Y-107407089D01*
X175503932Y-107587729D01*
X175574414Y-107757889D01*
X175643000Y-107860536D01*
X175643001Y-115335684D01*
X175612637Y-115290241D01*
X175412759Y-115090363D01*
X175177727Y-114933320D01*
X174916574Y-114825147D01*
X174639335Y-114770000D01*
X174356665Y-114770000D01*
X174079426Y-114825147D01*
X173818273Y-114933320D01*
X173583241Y-115090363D01*
X173383363Y-115290241D01*
X173353000Y-115335683D01*
X173353000Y-106813411D01*
X173505298Y-106858097D01*
X174318395Y-106045000D01*
X174304253Y-106030858D01*
X174483858Y-105851253D01*
X174498000Y-105865395D01*
X175311097Y-105052298D01*
X175239514Y-104808329D01*
X175012085Y-104700716D01*
X176279003Y-103433799D01*
X176308001Y-103410001D01*
X176334332Y-103377917D01*
X176402974Y-103294277D01*
X176473546Y-103162247D01*
X176492731Y-103099002D01*
X176502634Y-103066355D01*
X176558363Y-103149759D01*
X176758241Y-103349637D01*
X176993273Y-103506680D01*
X177254426Y-103614853D01*
X177531665Y-103670000D01*
X177814335Y-103670000D01*
X178091574Y-103614853D01*
X178352727Y-103506680D01*
X178587759Y-103349637D01*
X178787637Y-103149759D01*
X178868001Y-103029486D01*
X178868000Y-116803293D01*
G37*
X178868000Y-116803293D02*
X178738113Y-116673406D01*
X178301298Y-116381536D01*
X177815935Y-116180492D01*
X177300677Y-116078000D01*
X177155548Y-116078000D01*
X177163000Y-116002335D01*
X177163000Y-116002325D01*
X177166676Y-115965002D01*
X177163000Y-115927679D01*
X177163000Y-107860535D01*
X177231586Y-107757889D01*
X177302068Y-107587729D01*
X177338000Y-107407089D01*
X177338000Y-107222911D01*
X177302068Y-107042271D01*
X177231586Y-106872111D01*
X177129262Y-106718972D01*
X176999028Y-106588738D01*
X176845889Y-106486414D01*
X176675729Y-106415932D01*
X176495089Y-106380000D01*
X176310911Y-106380000D01*
X176130271Y-106415932D01*
X175960111Y-106486414D01*
X175838092Y-106567944D01*
X175855571Y-106531004D01*
X175924300Y-106256816D01*
X175938217Y-105974488D01*
X175896787Y-105694870D01*
X175801603Y-105428708D01*
X175734671Y-105303486D01*
X175490702Y-105231903D01*
X174677605Y-106045000D01*
X174691748Y-106059143D01*
X174512143Y-106238748D01*
X174498000Y-106224605D01*
X173684903Y-107037702D01*
X173756486Y-107281671D01*
X174011996Y-107402571D01*
X174286184Y-107471300D01*
X174568512Y-107485217D01*
X174848130Y-107443787D01*
X175114292Y-107348603D01*
X175239514Y-107281671D01*
X175311097Y-107037704D01*
X175427370Y-107153977D01*
X175495206Y-107086141D01*
X175468000Y-107222911D01*
X175468000Y-107407089D01*
X175503932Y-107587729D01*
X175574414Y-107757889D01*
X175643000Y-107860536D01*
X175643001Y-115335684D01*
X175612637Y-115290241D01*
X175412759Y-115090363D01*
X175177727Y-114933320D01*
X174916574Y-114825147D01*
X174639335Y-114770000D01*
X174356665Y-114770000D01*
X174079426Y-114825147D01*
X173818273Y-114933320D01*
X173583241Y-115090363D01*
X173383363Y-115290241D01*
X173353000Y-115335683D01*
X173353000Y-106813411D01*
X173505298Y-106858097D01*
X174318395Y-106045000D01*
X174304253Y-106030858D01*
X174483858Y-105851253D01*
X174498000Y-105865395D01*
X175311097Y-105052298D01*
X175239514Y-104808329D01*
X175012085Y-104700716D01*
X176279003Y-103433799D01*
X176308001Y-103410001D01*
X176334332Y-103377917D01*
X176402974Y-103294277D01*
X176473546Y-103162247D01*
X176492731Y-103099002D01*
X176502634Y-103066355D01*
X176558363Y-103149759D01*
X176758241Y-103349637D01*
X176993273Y-103506680D01*
X177254426Y-103614853D01*
X177531665Y-103670000D01*
X177814335Y-103670000D01*
X178091574Y-103614853D01*
X178352727Y-103506680D01*
X178587759Y-103349637D01*
X178787637Y-103149759D01*
X178868001Y-103029486D01*
X178868000Y-116803293D01*
G36*
X163723000Y-104605196D02*
G01*
X163026970Y-105301226D01*
X162790702Y-105231903D01*
X161977605Y-106045000D01*
X161991748Y-106059143D01*
X161812143Y-106238748D01*
X161798000Y-106224605D01*
X160984903Y-107037702D01*
X161056486Y-107281671D01*
X161311996Y-107402571D01*
X161586184Y-107471300D01*
X161868512Y-107485217D01*
X162148130Y-107443787D01*
X162163001Y-107438469D01*
X162163002Y-109925194D01*
X156656892Y-115431304D01*
X156562637Y-115290241D01*
X156362759Y-115090363D01*
X156208000Y-114986957D01*
X156208000Y-112074801D01*
X160259004Y-108023798D01*
X160288002Y-108000000D01*
X160382975Y-107884275D01*
X160453547Y-107752246D01*
X160497004Y-107608985D01*
X160508001Y-107497332D01*
X160508001Y-107497324D01*
X160511677Y-107459999D01*
X160508001Y-107422674D01*
X160508001Y-106744798D01*
X160528223Y-106724576D01*
X160561329Y-106786514D01*
X160805298Y-106858097D01*
X161618395Y-106045000D01*
X161604253Y-106030858D01*
X161783858Y-105851253D01*
X161798000Y-105865395D01*
X162611097Y-105052298D01*
X162539514Y-104808329D01*
X162474998Y-104777802D01*
X163722999Y-103529801D01*
X163723000Y-104605196D01*
G37*
X163723000Y-104605196D02*
X163026970Y-105301226D01*
X162790702Y-105231903D01*
X161977605Y-106045000D01*
X161991748Y-106059143D01*
X161812143Y-106238748D01*
X161798000Y-106224605D01*
X160984903Y-107037702D01*
X161056486Y-107281671D01*
X161311996Y-107402571D01*
X161586184Y-107471300D01*
X161868512Y-107485217D01*
X162148130Y-107443787D01*
X162163001Y-107438469D01*
X162163002Y-109925194D01*
X156656892Y-115431304D01*
X156562637Y-115290241D01*
X156362759Y-115090363D01*
X156208000Y-114986957D01*
X156208000Y-112074801D01*
X160259004Y-108023798D01*
X160288002Y-108000000D01*
X160382975Y-107884275D01*
X160453547Y-107752246D01*
X160497004Y-107608985D01*
X160508001Y-107497332D01*
X160508001Y-107497324D01*
X160511677Y-107459999D01*
X160508001Y-107422674D01*
X160508001Y-106744798D01*
X160528223Y-106724576D01*
X160561329Y-106786514D01*
X160805298Y-106858097D01*
X161618395Y-106045000D01*
X161604253Y-106030858D01*
X161783858Y-105851253D01*
X161798000Y-105865395D01*
X162611097Y-105052298D01*
X162539514Y-104808329D01*
X162474998Y-104777802D01*
X163722999Y-103529801D01*
X163723000Y-104605196D01*
G36*
X165166748Y-106030858D02*
G01*
X165152605Y-106045000D01*
X165166748Y-106059143D01*
X164987143Y-106238748D01*
X164973000Y-106224605D01*
X164159903Y-107037702D01*
X164231486Y-107281671D01*
X164486996Y-107402571D01*
X164761184Y-107471300D01*
X165043512Y-107485217D01*
X165323130Y-107443787D01*
X165338002Y-107438469D01*
X165338002Y-108415196D01*
X163683001Y-110070197D01*
X163683001Y-106794798D01*
X163720639Y-106757160D01*
X163736329Y-106786514D01*
X163980298Y-106858097D01*
X164793395Y-106045000D01*
X164779253Y-106030858D01*
X164958858Y-105851253D01*
X164973000Y-105865395D01*
X164987143Y-105851253D01*
X165166748Y-106030858D01*
G37*
X165166748Y-106030858D02*
X165152605Y-106045000D01*
X165166748Y-106059143D01*
X164987143Y-106238748D01*
X164973000Y-106224605D01*
X164159903Y-107037702D01*
X164231486Y-107281671D01*
X164486996Y-107402571D01*
X164761184Y-107471300D01*
X165043512Y-107485217D01*
X165323130Y-107443787D01*
X165338002Y-107438469D01*
X165338002Y-108415196D01*
X163683001Y-110070197D01*
X163683001Y-106794798D01*
X163720639Y-106757160D01*
X163736329Y-106786514D01*
X163980298Y-106858097D01*
X164793395Y-106045000D01*
X164779253Y-106030858D01*
X164958858Y-105851253D01*
X164973000Y-105865395D01*
X164987143Y-105851253D01*
X165166748Y-106030858D01*
G36*
X175008001Y-102555197D02*
G01*
X172327758Y-105235440D01*
X172315702Y-105231903D01*
X171502605Y-106045000D01*
X171516748Y-106059143D01*
X171337143Y-106238748D01*
X171323000Y-106224605D01*
X171308858Y-106238748D01*
X171129253Y-106059143D01*
X171143395Y-106045000D01*
X171129253Y-106030858D01*
X171308858Y-105851253D01*
X171323000Y-105865395D01*
X172136097Y-105052298D01*
X172064514Y-104808329D01*
X171809004Y-104687429D01*
X171534816Y-104618700D01*
X171252488Y-104604783D01*
X170972870Y-104646213D01*
X170957999Y-104651531D01*
X170957999Y-104599800D01*
X175008001Y-100549800D01*
X175008001Y-102555197D01*
G37*
X175008001Y-102555197D02*
X172327758Y-105235440D01*
X172315702Y-105231903D01*
X171502605Y-106045000D01*
X171516748Y-106059143D01*
X171337143Y-106238748D01*
X171323000Y-106224605D01*
X171308858Y-106238748D01*
X171129253Y-106059143D01*
X171143395Y-106045000D01*
X171129253Y-106030858D01*
X171308858Y-105851253D01*
X171323000Y-105865395D01*
X172136097Y-105052298D01*
X172064514Y-104808329D01*
X171809004Y-104687429D01*
X171534816Y-104618700D01*
X171252488Y-104604783D01*
X170972870Y-104646213D01*
X170957999Y-104651531D01*
X170957999Y-104599800D01*
X175008001Y-100549800D01*
X175008001Y-102555197D01*
G36*
X159137884Y-88344688D02*
G01*
X159079903Y-88542298D01*
X159893000Y-89355395D01*
X159907143Y-89341253D01*
X160086748Y-89520858D01*
X160072605Y-89535000D01*
X160086748Y-89549143D01*
X159907143Y-89728748D01*
X159893000Y-89714605D01*
X159079903Y-90527702D01*
X159151486Y-90771671D01*
X159406996Y-90892571D01*
X159681184Y-90961300D01*
X159963512Y-90975217D01*
X160243130Y-90933787D01*
X160258002Y-90928469D01*
X160258001Y-97607679D01*
X160254325Y-97645001D01*
X160258001Y-97682323D01*
X160258001Y-97682333D01*
X160268998Y-97793986D01*
X160306313Y-97917000D01*
X160312455Y-97937247D01*
X160383027Y-98069277D01*
X160414375Y-98107474D01*
X160478000Y-98185002D01*
X160507003Y-98208805D01*
X161669312Y-99371114D01*
X161633000Y-99553665D01*
X161633000Y-99836335D01*
X161688147Y-100113574D01*
X161796320Y-100374727D01*
X161953363Y-100609759D01*
X162153241Y-100809637D01*
X162388273Y-100966680D01*
X162649426Y-101074853D01*
X162926665Y-101130000D01*
X163209335Y-101130000D01*
X163486574Y-101074853D01*
X163747727Y-100966680D01*
X163982759Y-100809637D01*
X164182637Y-100609759D01*
X164213001Y-100564316D01*
X164213001Y-100890194D01*
X162016072Y-103087124D01*
X162016072Y-102020000D01*
X162003812Y-101895518D01*
X161967502Y-101775820D01*
X161908537Y-101665506D01*
X161829185Y-101568815D01*
X161732494Y-101489463D01*
X161622180Y-101430498D01*
X161502482Y-101394188D01*
X161378000Y-101381928D01*
X159678000Y-101381928D01*
X159553518Y-101394188D01*
X159433820Y-101430498D01*
X159323506Y-101489463D01*
X159226815Y-101568815D01*
X159147463Y-101665506D01*
X159088498Y-101775820D01*
X159066487Y-101848380D01*
X158934632Y-101716525D01*
X158730309Y-101580001D01*
X158730677Y-101580001D01*
X158767999Y-101583677D01*
X158805321Y-101580001D01*
X158805332Y-101580001D01*
X158916985Y-101569004D01*
X159060246Y-101525547D01*
X159192275Y-101454975D01*
X159308000Y-101360002D01*
X159331803Y-101330999D01*
X159569113Y-101093688D01*
X159751665Y-101130000D01*
X160034335Y-101130000D01*
X160311574Y-101074853D01*
X160572727Y-100966680D01*
X160807759Y-100809637D01*
X161007637Y-100609759D01*
X161164680Y-100374727D01*
X161272853Y-100113574D01*
X161328000Y-99836335D01*
X161328000Y-99553665D01*
X161272853Y-99276426D01*
X161164680Y-99015273D01*
X161007637Y-98780241D01*
X160807759Y-98580363D01*
X160572727Y-98423320D01*
X160311574Y-98315147D01*
X160034335Y-98260000D01*
X159751665Y-98260000D01*
X159474426Y-98315147D01*
X159213273Y-98423320D01*
X158978241Y-98580363D01*
X158778363Y-98780241D01*
X158621320Y-99015273D01*
X158513147Y-99276426D01*
X158458000Y-99553665D01*
X158458000Y-99836335D01*
X158494312Y-100018887D01*
X158453198Y-100060001D01*
X158108509Y-100060001D01*
X158153000Y-99836335D01*
X158153000Y-99553665D01*
X158116688Y-99371114D01*
X158499003Y-98988799D01*
X158528001Y-98965001D01*
X158622974Y-98849276D01*
X158693546Y-98717247D01*
X158737003Y-98573986D01*
X158748000Y-98462333D01*
X158748000Y-98462324D01*
X158751676Y-98425001D01*
X158748000Y-98387678D01*
X158748000Y-90303411D01*
X158900298Y-90348097D01*
X159713395Y-89535000D01*
X158900298Y-88721903D01*
X158748000Y-88766589D01*
X158748000Y-88213043D01*
X158902759Y-88109637D01*
X158902796Y-88109600D01*
X159137884Y-88344688D01*
G37*
X159137884Y-88344688D02*
X159079903Y-88542298D01*
X159893000Y-89355395D01*
X159907143Y-89341253D01*
X160086748Y-89520858D01*
X160072605Y-89535000D01*
X160086748Y-89549143D01*
X159907143Y-89728748D01*
X159893000Y-89714605D01*
X159079903Y-90527702D01*
X159151486Y-90771671D01*
X159406996Y-90892571D01*
X159681184Y-90961300D01*
X159963512Y-90975217D01*
X160243130Y-90933787D01*
X160258002Y-90928469D01*
X160258001Y-97607679D01*
X160254325Y-97645001D01*
X160258001Y-97682323D01*
X160258001Y-97682333D01*
X160268998Y-97793986D01*
X160306313Y-97917000D01*
X160312455Y-97937247D01*
X160383027Y-98069277D01*
X160414375Y-98107474D01*
X160478000Y-98185002D01*
X160507003Y-98208805D01*
X161669312Y-99371114D01*
X161633000Y-99553665D01*
X161633000Y-99836335D01*
X161688147Y-100113574D01*
X161796320Y-100374727D01*
X161953363Y-100609759D01*
X162153241Y-100809637D01*
X162388273Y-100966680D01*
X162649426Y-101074853D01*
X162926665Y-101130000D01*
X163209335Y-101130000D01*
X163486574Y-101074853D01*
X163747727Y-100966680D01*
X163982759Y-100809637D01*
X164182637Y-100609759D01*
X164213001Y-100564316D01*
X164213001Y-100890194D01*
X162016072Y-103087124D01*
X162016072Y-102020000D01*
X162003812Y-101895518D01*
X161967502Y-101775820D01*
X161908537Y-101665506D01*
X161829185Y-101568815D01*
X161732494Y-101489463D01*
X161622180Y-101430498D01*
X161502482Y-101394188D01*
X161378000Y-101381928D01*
X159678000Y-101381928D01*
X159553518Y-101394188D01*
X159433820Y-101430498D01*
X159323506Y-101489463D01*
X159226815Y-101568815D01*
X159147463Y-101665506D01*
X159088498Y-101775820D01*
X159066487Y-101848380D01*
X158934632Y-101716525D01*
X158730309Y-101580001D01*
X158730677Y-101580001D01*
X158767999Y-101583677D01*
X158805321Y-101580001D01*
X158805332Y-101580001D01*
X158916985Y-101569004D01*
X159060246Y-101525547D01*
X159192275Y-101454975D01*
X159308000Y-101360002D01*
X159331803Y-101330999D01*
X159569113Y-101093688D01*
X159751665Y-101130000D01*
X160034335Y-101130000D01*
X160311574Y-101074853D01*
X160572727Y-100966680D01*
X160807759Y-100809637D01*
X161007637Y-100609759D01*
X161164680Y-100374727D01*
X161272853Y-100113574D01*
X161328000Y-99836335D01*
X161328000Y-99553665D01*
X161272853Y-99276426D01*
X161164680Y-99015273D01*
X161007637Y-98780241D01*
X160807759Y-98580363D01*
X160572727Y-98423320D01*
X160311574Y-98315147D01*
X160034335Y-98260000D01*
X159751665Y-98260000D01*
X159474426Y-98315147D01*
X159213273Y-98423320D01*
X158978241Y-98580363D01*
X158778363Y-98780241D01*
X158621320Y-99015273D01*
X158513147Y-99276426D01*
X158458000Y-99553665D01*
X158458000Y-99836335D01*
X158494312Y-100018887D01*
X158453198Y-100060001D01*
X158108509Y-100060001D01*
X158153000Y-99836335D01*
X158153000Y-99553665D01*
X158116688Y-99371114D01*
X158499003Y-98988799D01*
X158528001Y-98965001D01*
X158622974Y-98849276D01*
X158693546Y-98717247D01*
X158737003Y-98573986D01*
X158748000Y-98462333D01*
X158748000Y-98462324D01*
X158751676Y-98425001D01*
X158748000Y-98387678D01*
X158748000Y-90303411D01*
X158900298Y-90348097D01*
X159713395Y-89535000D01*
X158900298Y-88721903D01*
X158748000Y-88766589D01*
X158748000Y-88213043D01*
X158902759Y-88109637D01*
X158902796Y-88109600D01*
X159137884Y-88344688D01*
G36*
X131511748Y-89520858D02*
G01*
X131497605Y-89535000D01*
X132310702Y-90348097D01*
X132508313Y-90290116D01*
X134858001Y-92639805D01*
X134858002Y-98304491D01*
X134634335Y-98260000D01*
X134351665Y-98260000D01*
X134074426Y-98315147D01*
X133813273Y-98423320D01*
X133578241Y-98580363D01*
X133378363Y-98780241D01*
X133221320Y-99015273D01*
X133113147Y-99276426D01*
X133058000Y-99553665D01*
X133058000Y-99836335D01*
X133094312Y-100018886D01*
X132178200Y-100934999D01*
X132045141Y-100934999D01*
X132232759Y-100809637D01*
X132432637Y-100609759D01*
X132589680Y-100374727D01*
X132697853Y-100113574D01*
X132753000Y-99836335D01*
X132753000Y-99553665D01*
X132697853Y-99276426D01*
X132589680Y-99015273D01*
X132432637Y-98780241D01*
X132232759Y-98580363D01*
X131997727Y-98423320D01*
X131736574Y-98315147D01*
X131459335Y-98260000D01*
X131176665Y-98260000D01*
X130899426Y-98315147D01*
X130638273Y-98423320D01*
X130403241Y-98580363D01*
X130203363Y-98780241D01*
X130046320Y-99015273D01*
X129938147Y-99276426D01*
X129883000Y-99553665D01*
X129883000Y-99836335D01*
X129919312Y-100018887D01*
X129878198Y-100060001D01*
X129533509Y-100060001D01*
X129578000Y-99836335D01*
X129578000Y-99553665D01*
X129541688Y-99371114D01*
X130559004Y-98353798D01*
X130588001Y-98330001D01*
X130682974Y-98214276D01*
X130753546Y-98082247D01*
X130797003Y-97938986D01*
X130808000Y-97827333D01*
X130808000Y-97827323D01*
X130811676Y-97790000D01*
X130808000Y-97752677D01*
X130808000Y-90881217D01*
X130831996Y-90892571D01*
X131106184Y-90961300D01*
X131388512Y-90975217D01*
X131668130Y-90933787D01*
X131934292Y-90838603D01*
X132059514Y-90771671D01*
X132131097Y-90527702D01*
X131318000Y-89714605D01*
X131303858Y-89728748D01*
X131124253Y-89549143D01*
X131138395Y-89535000D01*
X131124253Y-89520858D01*
X131303858Y-89341253D01*
X131318000Y-89355395D01*
X131332143Y-89341253D01*
X131511748Y-89520858D01*
G37*
X131511748Y-89520858D02*
X131497605Y-89535000D01*
X132310702Y-90348097D01*
X132508313Y-90290116D01*
X134858001Y-92639805D01*
X134858002Y-98304491D01*
X134634335Y-98260000D01*
X134351665Y-98260000D01*
X134074426Y-98315147D01*
X133813273Y-98423320D01*
X133578241Y-98580363D01*
X133378363Y-98780241D01*
X133221320Y-99015273D01*
X133113147Y-99276426D01*
X133058000Y-99553665D01*
X133058000Y-99836335D01*
X133094312Y-100018886D01*
X132178200Y-100934999D01*
X132045141Y-100934999D01*
X132232759Y-100809637D01*
X132432637Y-100609759D01*
X132589680Y-100374727D01*
X132697853Y-100113574D01*
X132753000Y-99836335D01*
X132753000Y-99553665D01*
X132697853Y-99276426D01*
X132589680Y-99015273D01*
X132432637Y-98780241D01*
X132232759Y-98580363D01*
X131997727Y-98423320D01*
X131736574Y-98315147D01*
X131459335Y-98260000D01*
X131176665Y-98260000D01*
X130899426Y-98315147D01*
X130638273Y-98423320D01*
X130403241Y-98580363D01*
X130203363Y-98780241D01*
X130046320Y-99015273D01*
X129938147Y-99276426D01*
X129883000Y-99553665D01*
X129883000Y-99836335D01*
X129919312Y-100018887D01*
X129878198Y-100060001D01*
X129533509Y-100060001D01*
X129578000Y-99836335D01*
X129578000Y-99553665D01*
X129541688Y-99371114D01*
X130559004Y-98353798D01*
X130588001Y-98330001D01*
X130682974Y-98214276D01*
X130753546Y-98082247D01*
X130797003Y-97938986D01*
X130808000Y-97827333D01*
X130808000Y-97827323D01*
X130811676Y-97790000D01*
X130808000Y-97752677D01*
X130808000Y-90881217D01*
X130831996Y-90892571D01*
X131106184Y-90961300D01*
X131388512Y-90975217D01*
X131668130Y-90933787D01*
X131934292Y-90838603D01*
X132059514Y-90771671D01*
X132131097Y-90527702D01*
X131318000Y-89714605D01*
X131303858Y-89728748D01*
X131124253Y-89549143D01*
X131138395Y-89535000D01*
X131124253Y-89520858D01*
X131303858Y-89341253D01*
X131318000Y-89355395D01*
X131332143Y-89341253D01*
X131511748Y-89520858D01*
G36*
X125161748Y-99680858D02*
G01*
X125147605Y-99695000D01*
X125960702Y-100508097D01*
X126156273Y-100450714D01*
X126168000Y-100465004D01*
X126197003Y-100488806D01*
X126643195Y-100934999D01*
X125703288Y-100934999D01*
X125709514Y-100931671D01*
X125781097Y-100687702D01*
X124968000Y-99874605D01*
X124953858Y-99888748D01*
X124774253Y-99709143D01*
X124788395Y-99695000D01*
X124774253Y-99680858D01*
X124953858Y-99501253D01*
X124968000Y-99515395D01*
X124982143Y-99501253D01*
X125161748Y-99680858D01*
G37*
X125161748Y-99680858D02*
X125147605Y-99695000D01*
X125960702Y-100508097D01*
X126156273Y-100450714D01*
X126168000Y-100465004D01*
X126197003Y-100488806D01*
X126643195Y-100934999D01*
X125703288Y-100934999D01*
X125709514Y-100931671D01*
X125781097Y-100687702D01*
X124968000Y-99874605D01*
X124953858Y-99888748D01*
X124774253Y-99709143D01*
X124788395Y-99695000D01*
X124774253Y-99680858D01*
X124953858Y-99501253D01*
X124968000Y-99515395D01*
X124982143Y-99501253D01*
X125161748Y-99680858D01*
G36*
X163261748Y-89520858D02*
G01*
X163247605Y-89535000D01*
X164060702Y-90348097D01*
X164304671Y-90276514D01*
X164425571Y-90021004D01*
X164442734Y-89952535D01*
X164463312Y-89973113D01*
X164427000Y-90155665D01*
X164427000Y-90438335D01*
X164482147Y-90715574D01*
X164590320Y-90976727D01*
X164747363Y-91211759D01*
X164947241Y-91411637D01*
X165182273Y-91568680D01*
X165192865Y-91573067D01*
X165006869Y-91684615D01*
X164798481Y-91873586D01*
X164630963Y-92099580D01*
X164510754Y-92353913D01*
X164470096Y-92487961D01*
X164592085Y-92710000D01*
X165735000Y-92710000D01*
X165735000Y-92690000D01*
X165989000Y-92690000D01*
X165989000Y-92710000D01*
X166009000Y-92710000D01*
X166009000Y-92964000D01*
X165989000Y-92964000D01*
X165989000Y-95250000D01*
X166009000Y-95250000D01*
X166009000Y-95504000D01*
X165989000Y-95504000D01*
X165989000Y-97790000D01*
X166009000Y-97790000D01*
X166009000Y-98044000D01*
X165989000Y-98044000D01*
X165989000Y-99187624D01*
X166211040Y-99308909D01*
X166475881Y-99214070D01*
X166717131Y-99069385D01*
X166925519Y-98880414D01*
X167093037Y-98654420D01*
X167134001Y-98567750D01*
X167134001Y-99287785D01*
X165733000Y-100688786D01*
X165733000Y-99188716D01*
X165735000Y-99187624D01*
X165735000Y-99077016D01*
X165736676Y-99059999D01*
X165735000Y-99042982D01*
X165735000Y-98044000D01*
X165715000Y-98044000D01*
X165715000Y-97790000D01*
X165735000Y-97790000D01*
X165735000Y-95504000D01*
X164592085Y-95504000D01*
X164470096Y-95726039D01*
X164510754Y-95860087D01*
X164630963Y-96114420D01*
X164798481Y-96340414D01*
X165006869Y-96529385D01*
X165202982Y-96647000D01*
X165006869Y-96764615D01*
X164798481Y-96953586D01*
X164630963Y-97179580D01*
X164510754Y-97433913D01*
X164490032Y-97502231D01*
X163949304Y-96961503D01*
X163925501Y-96932499D01*
X163809776Y-96837526D01*
X163677747Y-96766954D01*
X163534486Y-96723497D01*
X163422833Y-96712500D01*
X163422822Y-96712500D01*
X163385500Y-96708824D01*
X163348178Y-96712500D01*
X163065302Y-96712500D01*
X162702999Y-96350198D01*
X162702999Y-93186039D01*
X164470096Y-93186039D01*
X164510754Y-93320087D01*
X164630963Y-93574420D01*
X164798481Y-93800414D01*
X165006869Y-93989385D01*
X165202982Y-94107000D01*
X165006869Y-94224615D01*
X164798481Y-94413586D01*
X164630963Y-94639580D01*
X164510754Y-94893913D01*
X164470096Y-95027961D01*
X164592085Y-95250000D01*
X165735000Y-95250000D01*
X165735000Y-92964000D01*
X164592085Y-92964000D01*
X164470096Y-93186039D01*
X162702999Y-93186039D01*
X162702999Y-90922902D01*
X162856184Y-90961300D01*
X163138512Y-90975217D01*
X163418130Y-90933787D01*
X163684292Y-90838603D01*
X163809514Y-90771671D01*
X163881097Y-90527702D01*
X163068000Y-89714605D01*
X163053858Y-89728748D01*
X162874253Y-89549143D01*
X162888395Y-89535000D01*
X162874253Y-89520858D01*
X163053858Y-89341253D01*
X163068000Y-89355395D01*
X163082143Y-89341253D01*
X163261748Y-89520858D01*
G37*
X163261748Y-89520858D02*
X163247605Y-89535000D01*
X164060702Y-90348097D01*
X164304671Y-90276514D01*
X164425571Y-90021004D01*
X164442734Y-89952535D01*
X164463312Y-89973113D01*
X164427000Y-90155665D01*
X164427000Y-90438335D01*
X164482147Y-90715574D01*
X164590320Y-90976727D01*
X164747363Y-91211759D01*
X164947241Y-91411637D01*
X165182273Y-91568680D01*
X165192865Y-91573067D01*
X165006869Y-91684615D01*
X164798481Y-91873586D01*
X164630963Y-92099580D01*
X164510754Y-92353913D01*
X164470096Y-92487961D01*
X164592085Y-92710000D01*
X165735000Y-92710000D01*
X165735000Y-92690000D01*
X165989000Y-92690000D01*
X165989000Y-92710000D01*
X166009000Y-92710000D01*
X166009000Y-92964000D01*
X165989000Y-92964000D01*
X165989000Y-95250000D01*
X166009000Y-95250000D01*
X166009000Y-95504000D01*
X165989000Y-95504000D01*
X165989000Y-97790000D01*
X166009000Y-97790000D01*
X166009000Y-98044000D01*
X165989000Y-98044000D01*
X165989000Y-99187624D01*
X166211040Y-99308909D01*
X166475881Y-99214070D01*
X166717131Y-99069385D01*
X166925519Y-98880414D01*
X167093037Y-98654420D01*
X167134001Y-98567750D01*
X167134001Y-99287785D01*
X165733000Y-100688786D01*
X165733000Y-99188716D01*
X165735000Y-99187624D01*
X165735000Y-99077016D01*
X165736676Y-99059999D01*
X165735000Y-99042982D01*
X165735000Y-98044000D01*
X165715000Y-98044000D01*
X165715000Y-97790000D01*
X165735000Y-97790000D01*
X165735000Y-95504000D01*
X164592085Y-95504000D01*
X164470096Y-95726039D01*
X164510754Y-95860087D01*
X164630963Y-96114420D01*
X164798481Y-96340414D01*
X165006869Y-96529385D01*
X165202982Y-96647000D01*
X165006869Y-96764615D01*
X164798481Y-96953586D01*
X164630963Y-97179580D01*
X164510754Y-97433913D01*
X164490032Y-97502231D01*
X163949304Y-96961503D01*
X163925501Y-96932499D01*
X163809776Y-96837526D01*
X163677747Y-96766954D01*
X163534486Y-96723497D01*
X163422833Y-96712500D01*
X163422822Y-96712500D01*
X163385500Y-96708824D01*
X163348178Y-96712500D01*
X163065302Y-96712500D01*
X162702999Y-96350198D01*
X162702999Y-93186039D01*
X164470096Y-93186039D01*
X164510754Y-93320087D01*
X164630963Y-93574420D01*
X164798481Y-93800414D01*
X165006869Y-93989385D01*
X165202982Y-94107000D01*
X165006869Y-94224615D01*
X164798481Y-94413586D01*
X164630963Y-94639580D01*
X164510754Y-94893913D01*
X164470096Y-95027961D01*
X164592085Y-95250000D01*
X165735000Y-95250000D01*
X165735000Y-92964000D01*
X164592085Y-92964000D01*
X164470096Y-93186039D01*
X162702999Y-93186039D01*
X162702999Y-90922902D01*
X162856184Y-90961300D01*
X163138512Y-90975217D01*
X163418130Y-90933787D01*
X163684292Y-90838603D01*
X163809514Y-90771671D01*
X163881097Y-90527702D01*
X163068000Y-89714605D01*
X163053858Y-89728748D01*
X162874253Y-89549143D01*
X162888395Y-89535000D01*
X162874253Y-89520858D01*
X163053858Y-89341253D01*
X163068000Y-89355395D01*
X163082143Y-89341253D01*
X163261748Y-89520858D01*
G36*
X154333363Y-87909759D02*
G01*
X154533241Y-88109637D01*
X154688000Y-88213043D01*
X154688000Y-88766589D01*
X154535702Y-88721903D01*
X153722605Y-89535000D01*
X154535702Y-90348097D01*
X154688000Y-90303411D01*
X154688001Y-98825684D01*
X154657637Y-98780241D01*
X154457759Y-98580363D01*
X154222727Y-98423320D01*
X153961574Y-98315147D01*
X153684335Y-98260000D01*
X153401665Y-98260000D01*
X153219113Y-98296312D01*
X153177999Y-98255198D01*
X153177999Y-90922902D01*
X153331184Y-90961300D01*
X153613512Y-90975217D01*
X153893130Y-90933787D01*
X154159292Y-90838603D01*
X154284514Y-90771671D01*
X154356097Y-90527702D01*
X153543000Y-89714605D01*
X153528858Y-89728748D01*
X153349253Y-89549143D01*
X153363395Y-89535000D01*
X153349253Y-89520858D01*
X153528858Y-89341253D01*
X153543000Y-89355395D01*
X154356097Y-88542298D01*
X154284514Y-88298329D01*
X154029004Y-88177429D01*
X153805244Y-88121340D01*
X153822759Y-88109637D01*
X154022637Y-87909759D01*
X154178000Y-87677241D01*
X154333363Y-87909759D01*
G37*
X154333363Y-87909759D02*
X154533241Y-88109637D01*
X154688000Y-88213043D01*
X154688000Y-88766589D01*
X154535702Y-88721903D01*
X153722605Y-89535000D01*
X154535702Y-90348097D01*
X154688000Y-90303411D01*
X154688001Y-98825684D01*
X154657637Y-98780241D01*
X154457759Y-98580363D01*
X154222727Y-98423320D01*
X153961574Y-98315147D01*
X153684335Y-98260000D01*
X153401665Y-98260000D01*
X153219113Y-98296312D01*
X153177999Y-98255198D01*
X153177999Y-90922902D01*
X153331184Y-90961300D01*
X153613512Y-90975217D01*
X153893130Y-90933787D01*
X154159292Y-90838603D01*
X154284514Y-90771671D01*
X154356097Y-90527702D01*
X153543000Y-89714605D01*
X153528858Y-89728748D01*
X153349253Y-89549143D01*
X153363395Y-89535000D01*
X153349253Y-89520858D01*
X153528858Y-89341253D01*
X153543000Y-89355395D01*
X154356097Y-88542298D01*
X154284514Y-88298329D01*
X154029004Y-88177429D01*
X153805244Y-88121340D01*
X153822759Y-88109637D01*
X154022637Y-87909759D01*
X154178000Y-87677241D01*
X154333363Y-87909759D01*
G36*
X128933363Y-87909759D02*
G01*
X129133241Y-88109637D01*
X129288001Y-88213044D01*
X129288001Y-88766589D01*
X129135702Y-88721903D01*
X128322605Y-89535000D01*
X129135702Y-90348097D01*
X129288001Y-90303411D01*
X129288000Y-97475198D01*
X128466886Y-98296312D01*
X128284335Y-98260000D01*
X128001665Y-98260000D01*
X127724426Y-98315147D01*
X127468001Y-98421362D01*
X127468001Y-90803144D01*
X127656996Y-90892571D01*
X127931184Y-90961300D01*
X128213512Y-90975217D01*
X128493130Y-90933787D01*
X128759292Y-90838603D01*
X128884514Y-90771671D01*
X128956097Y-90527702D01*
X128143000Y-89714605D01*
X128128858Y-89728748D01*
X127949253Y-89549143D01*
X127963395Y-89535000D01*
X127949253Y-89520858D01*
X128128858Y-89341253D01*
X128143000Y-89355395D01*
X128956097Y-88542298D01*
X128884514Y-88298329D01*
X128629004Y-88177429D01*
X128405244Y-88121340D01*
X128422759Y-88109637D01*
X128622637Y-87909759D01*
X128778000Y-87677241D01*
X128933363Y-87909759D01*
G37*
X128933363Y-87909759D02*
X129133241Y-88109637D01*
X129288001Y-88213044D01*
X129288001Y-88766589D01*
X129135702Y-88721903D01*
X128322605Y-89535000D01*
X129135702Y-90348097D01*
X129288001Y-90303411D01*
X129288000Y-97475198D01*
X128466886Y-98296312D01*
X128284335Y-98260000D01*
X128001665Y-98260000D01*
X127724426Y-98315147D01*
X127468001Y-98421362D01*
X127468001Y-90803144D01*
X127656996Y-90892571D01*
X127931184Y-90961300D01*
X128213512Y-90975217D01*
X128493130Y-90933787D01*
X128759292Y-90838603D01*
X128884514Y-90771671D01*
X128956097Y-90527702D01*
X128143000Y-89714605D01*
X128128858Y-89728748D01*
X127949253Y-89549143D01*
X127963395Y-89535000D01*
X127949253Y-89520858D01*
X128128858Y-89341253D01*
X128143000Y-89355395D01*
X128956097Y-88542298D01*
X128884514Y-88298329D01*
X128629004Y-88177429D01*
X128405244Y-88121340D01*
X128422759Y-88109637D01*
X128622637Y-87909759D01*
X128778000Y-87677241D01*
X128933363Y-87909759D01*
G36*
X135003000Y-79337677D02*
G01*
X134999324Y-79375000D01*
X135003000Y-79412322D01*
X135003000Y-79412332D01*
X135013997Y-79523985D01*
X135043958Y-79622755D01*
X135057454Y-79667246D01*
X135128026Y-79799276D01*
X135155978Y-79833335D01*
X135222999Y-79915001D01*
X135252003Y-79938804D01*
X138178001Y-82864803D01*
X138178000Y-87558017D01*
X138086574Y-87520147D01*
X137809335Y-87465000D01*
X137526665Y-87465000D01*
X137249426Y-87520147D01*
X136988273Y-87628320D01*
X136753241Y-87785363D01*
X136553363Y-87985241D01*
X136396320Y-88220273D01*
X136288147Y-88481426D01*
X136233000Y-88758665D01*
X136233000Y-89041335D01*
X136288147Y-89318574D01*
X136396320Y-89579727D01*
X136553363Y-89814759D01*
X136753241Y-90014637D01*
X136988273Y-90171680D01*
X137249426Y-90279853D01*
X137526665Y-90335000D01*
X137809335Y-90335000D01*
X138086574Y-90279853D01*
X138178000Y-90241983D01*
X138178000Y-90490198D01*
X137991886Y-90676312D01*
X137809335Y-90640000D01*
X137526665Y-90640000D01*
X137249426Y-90695147D01*
X136988273Y-90803320D01*
X136753241Y-90960363D01*
X136553363Y-91160241D01*
X136396320Y-91395273D01*
X136288147Y-91656426D01*
X136242171Y-91887562D01*
X136181800Y-91814000D01*
X136158002Y-91785002D01*
X136129005Y-91761205D01*
X135172577Y-90804777D01*
X135234514Y-90771671D01*
X135306097Y-90527702D01*
X134493000Y-89714605D01*
X134478858Y-89728748D01*
X134299253Y-89549143D01*
X134313395Y-89535000D01*
X134672605Y-89535000D01*
X135485702Y-90348097D01*
X135729671Y-90276514D01*
X135850571Y-90021004D01*
X135919300Y-89746816D01*
X135933217Y-89464488D01*
X135891787Y-89184870D01*
X135796603Y-88918708D01*
X135729671Y-88793486D01*
X135485702Y-88721903D01*
X134672605Y-89535000D01*
X134313395Y-89535000D01*
X133500298Y-88721903D01*
X133348000Y-88766589D01*
X133348000Y-88542298D01*
X133679903Y-88542298D01*
X134493000Y-89355395D01*
X135306097Y-88542298D01*
X135234514Y-88298329D01*
X134979004Y-88177429D01*
X134704816Y-88108700D01*
X134422488Y-88094783D01*
X134142870Y-88136213D01*
X133876708Y-88231397D01*
X133751486Y-88298329D01*
X133679903Y-88542298D01*
X133348000Y-88542298D01*
X133348000Y-88213043D01*
X133502759Y-88109637D01*
X133702637Y-87909759D01*
X133859680Y-87674727D01*
X133967853Y-87413574D01*
X134023000Y-87136335D01*
X134023000Y-86853665D01*
X133967853Y-86576426D01*
X133859680Y-86315273D01*
X133702637Y-86080241D01*
X133502759Y-85880363D01*
X133267727Y-85723320D01*
X133006574Y-85615147D01*
X132729335Y-85560000D01*
X132446665Y-85560000D01*
X132169426Y-85615147D01*
X131908273Y-85723320D01*
X131673241Y-85880363D01*
X131473363Y-86080241D01*
X131318000Y-86312759D01*
X131162637Y-86080241D01*
X130962759Y-85880363D01*
X130727727Y-85723320D01*
X130466574Y-85615147D01*
X130189335Y-85560000D01*
X129906665Y-85560000D01*
X129629426Y-85615147D01*
X129592263Y-85630540D01*
X134368303Y-80854502D01*
X134397296Y-80830708D01*
X134421090Y-80801715D01*
X134421094Y-80801711D01*
X134492268Y-80714984D01*
X134492269Y-80714983D01*
X134562841Y-80582954D01*
X134606298Y-80439693D01*
X134617295Y-80328040D01*
X134617295Y-80328031D01*
X134620971Y-80290708D01*
X134617295Y-80253385D01*
X134617295Y-79689096D01*
X135003000Y-79303391D01*
X135003000Y-79337677D01*
G37*
X135003000Y-79337677D02*
X134999324Y-79375000D01*
X135003000Y-79412322D01*
X135003000Y-79412332D01*
X135013997Y-79523985D01*
X135043958Y-79622755D01*
X135057454Y-79667246D01*
X135128026Y-79799276D01*
X135155978Y-79833335D01*
X135222999Y-79915001D01*
X135252003Y-79938804D01*
X138178001Y-82864803D01*
X138178000Y-87558017D01*
X138086574Y-87520147D01*
X137809335Y-87465000D01*
X137526665Y-87465000D01*
X137249426Y-87520147D01*
X136988273Y-87628320D01*
X136753241Y-87785363D01*
X136553363Y-87985241D01*
X136396320Y-88220273D01*
X136288147Y-88481426D01*
X136233000Y-88758665D01*
X136233000Y-89041335D01*
X136288147Y-89318574D01*
X136396320Y-89579727D01*
X136553363Y-89814759D01*
X136753241Y-90014637D01*
X136988273Y-90171680D01*
X137249426Y-90279853D01*
X137526665Y-90335000D01*
X137809335Y-90335000D01*
X138086574Y-90279853D01*
X138178000Y-90241983D01*
X138178000Y-90490198D01*
X137991886Y-90676312D01*
X137809335Y-90640000D01*
X137526665Y-90640000D01*
X137249426Y-90695147D01*
X136988273Y-90803320D01*
X136753241Y-90960363D01*
X136553363Y-91160241D01*
X136396320Y-91395273D01*
X136288147Y-91656426D01*
X136242171Y-91887562D01*
X136181800Y-91814000D01*
X136158002Y-91785002D01*
X136129005Y-91761205D01*
X135172577Y-90804777D01*
X135234514Y-90771671D01*
X135306097Y-90527702D01*
X134493000Y-89714605D01*
X134478858Y-89728748D01*
X134299253Y-89549143D01*
X134313395Y-89535000D01*
X134672605Y-89535000D01*
X135485702Y-90348097D01*
X135729671Y-90276514D01*
X135850571Y-90021004D01*
X135919300Y-89746816D01*
X135933217Y-89464488D01*
X135891787Y-89184870D01*
X135796603Y-88918708D01*
X135729671Y-88793486D01*
X135485702Y-88721903D01*
X134672605Y-89535000D01*
X134313395Y-89535000D01*
X133500298Y-88721903D01*
X133348000Y-88766589D01*
X133348000Y-88542298D01*
X133679903Y-88542298D01*
X134493000Y-89355395D01*
X135306097Y-88542298D01*
X135234514Y-88298329D01*
X134979004Y-88177429D01*
X134704816Y-88108700D01*
X134422488Y-88094783D01*
X134142870Y-88136213D01*
X133876708Y-88231397D01*
X133751486Y-88298329D01*
X133679903Y-88542298D01*
X133348000Y-88542298D01*
X133348000Y-88213043D01*
X133502759Y-88109637D01*
X133702637Y-87909759D01*
X133859680Y-87674727D01*
X133967853Y-87413574D01*
X134023000Y-87136335D01*
X134023000Y-86853665D01*
X133967853Y-86576426D01*
X133859680Y-86315273D01*
X133702637Y-86080241D01*
X133502759Y-85880363D01*
X133267727Y-85723320D01*
X133006574Y-85615147D01*
X132729335Y-85560000D01*
X132446665Y-85560000D01*
X132169426Y-85615147D01*
X131908273Y-85723320D01*
X131673241Y-85880363D01*
X131473363Y-86080241D01*
X131318000Y-86312759D01*
X131162637Y-86080241D01*
X130962759Y-85880363D01*
X130727727Y-85723320D01*
X130466574Y-85615147D01*
X130189335Y-85560000D01*
X129906665Y-85560000D01*
X129629426Y-85615147D01*
X129592263Y-85630540D01*
X134368303Y-80854502D01*
X134397296Y-80830708D01*
X134421090Y-80801715D01*
X134421094Y-80801711D01*
X134492268Y-80714984D01*
X134492269Y-80714983D01*
X134562841Y-80582954D01*
X134606298Y-80439693D01*
X134617295Y-80328040D01*
X134617295Y-80328031D01*
X134620971Y-80290708D01*
X134617295Y-80253385D01*
X134617295Y-79689096D01*
X135003000Y-79303391D01*
X135003000Y-79337677D01*
G36*
X156911748Y-89520858D02*
G01*
X156897605Y-89535000D01*
X156911748Y-89549143D01*
X156732143Y-89728748D01*
X156718000Y-89714605D01*
X156703858Y-89728748D01*
X156524253Y-89549143D01*
X156538395Y-89535000D01*
X156524253Y-89520858D01*
X156703858Y-89341253D01*
X156718000Y-89355395D01*
X156732143Y-89341253D01*
X156911748Y-89520858D01*
G37*
X156911748Y-89520858D02*
X156897605Y-89535000D01*
X156911748Y-89549143D01*
X156732143Y-89728748D01*
X156718000Y-89714605D01*
X156703858Y-89728748D01*
X156524253Y-89549143D01*
X156538395Y-89535000D01*
X156524253Y-89520858D01*
X156703858Y-89341253D01*
X156718000Y-89355395D01*
X156732143Y-89341253D01*
X156911748Y-89520858D01*
G36*
X118811748Y-89520858D02*
G01*
X118797605Y-89535000D01*
X118811748Y-89549143D01*
X118632143Y-89728748D01*
X118618000Y-89714605D01*
X118603858Y-89728748D01*
X118424253Y-89549143D01*
X118438395Y-89535000D01*
X118424253Y-89520858D01*
X118603858Y-89341253D01*
X118618000Y-89355395D01*
X118632143Y-89341253D01*
X118811748Y-89520858D01*
G37*
X118811748Y-89520858D02*
X118797605Y-89535000D01*
X118811748Y-89549143D01*
X118632143Y-89728748D01*
X118618000Y-89714605D01*
X118603858Y-89728748D01*
X118424253Y-89549143D01*
X118438395Y-89535000D01*
X118424253Y-89520858D01*
X118603858Y-89341253D01*
X118618000Y-89355395D01*
X118632143Y-89341253D01*
X118811748Y-89520858D01*
G36*
X121986748Y-89520858D02*
G01*
X121972605Y-89535000D01*
X121986748Y-89549143D01*
X121807143Y-89728748D01*
X121793000Y-89714605D01*
X121778858Y-89728748D01*
X121599253Y-89549143D01*
X121613395Y-89535000D01*
X121599253Y-89520858D01*
X121778858Y-89341253D01*
X121793000Y-89355395D01*
X121807143Y-89341253D01*
X121986748Y-89520858D01*
G37*
X121986748Y-89520858D02*
X121972605Y-89535000D01*
X121986748Y-89549143D01*
X121807143Y-89728748D01*
X121793000Y-89714605D01*
X121778858Y-89728748D01*
X121599253Y-89549143D01*
X121613395Y-89535000D01*
X121599253Y-89520858D01*
X121778858Y-89341253D01*
X121793000Y-89355395D01*
X121807143Y-89341253D01*
X121986748Y-89520858D01*
G36*
X112461748Y-89520858D02*
G01*
X112447605Y-89535000D01*
X112461748Y-89549143D01*
X112282143Y-89728748D01*
X112268000Y-89714605D01*
X112253858Y-89728748D01*
X112074253Y-89549143D01*
X112088395Y-89535000D01*
X112074253Y-89520858D01*
X112253858Y-89341253D01*
X112268000Y-89355395D01*
X112282143Y-89341253D01*
X112461748Y-89520858D01*
G37*
X112461748Y-89520858D02*
X112447605Y-89535000D01*
X112461748Y-89549143D01*
X112282143Y-89728748D01*
X112268000Y-89714605D01*
X112253858Y-89728748D01*
X112074253Y-89549143D01*
X112088395Y-89535000D01*
X112074253Y-89520858D01*
X112253858Y-89341253D01*
X112268000Y-89355395D01*
X112282143Y-89341253D01*
X112461748Y-89520858D01*
G36*
X115636748Y-89520858D02*
G01*
X115622605Y-89535000D01*
X115636748Y-89549143D01*
X115457143Y-89728748D01*
X115443000Y-89714605D01*
X115428858Y-89728748D01*
X115249253Y-89549143D01*
X115263395Y-89535000D01*
X115249253Y-89520858D01*
X115428858Y-89341253D01*
X115443000Y-89355395D01*
X115457143Y-89341253D01*
X115636748Y-89520858D01*
G37*
X115636748Y-89520858D02*
X115622605Y-89535000D01*
X115636748Y-89549143D01*
X115457143Y-89728748D01*
X115443000Y-89714605D01*
X115428858Y-89728748D01*
X115249253Y-89549143D01*
X115263395Y-89535000D01*
X115249253Y-89520858D01*
X115428858Y-89341253D01*
X115443000Y-89355395D01*
X115457143Y-89341253D01*
X115636748Y-89520858D01*
G36*
X124166406Y-73864887D02*
G01*
X123874536Y-74301702D01*
X123673492Y-74787065D01*
X123571000Y-75302323D01*
X123571000Y-75827677D01*
X123673492Y-76342935D01*
X123874536Y-76828298D01*
X124166406Y-77265113D01*
X124537887Y-77636594D01*
X124974702Y-77928464D01*
X125002552Y-77940000D01*
X124826665Y-77940000D01*
X124549426Y-77995147D01*
X124288273Y-78103320D01*
X124053241Y-78260363D01*
X123853363Y-78460241D01*
X123698000Y-78692759D01*
X123542637Y-78460241D01*
X123342759Y-78260363D01*
X123107727Y-78103320D01*
X122846574Y-77995147D01*
X122569335Y-77940000D01*
X122286665Y-77940000D01*
X122009426Y-77995147D01*
X121748273Y-78103320D01*
X121513241Y-78260363D01*
X121313363Y-78460241D01*
X121156320Y-78695273D01*
X121151933Y-78705865D01*
X121040385Y-78519869D01*
X120851414Y-78311481D01*
X120625420Y-78143963D01*
X120371087Y-78023754D01*
X120237039Y-77983096D01*
X120015000Y-78105085D01*
X120015000Y-79248000D01*
X120035000Y-79248000D01*
X120035000Y-79502000D01*
X120015000Y-79502000D01*
X120015000Y-79522000D01*
X119761000Y-79522000D01*
X119761000Y-79502000D01*
X117475000Y-79502000D01*
X117475000Y-80644915D01*
X117697039Y-80766904D01*
X117831087Y-80726246D01*
X118085420Y-80606037D01*
X118311414Y-80438519D01*
X118500385Y-80230131D01*
X118618000Y-80034018D01*
X118735615Y-80230131D01*
X118781959Y-80281236D01*
X112881999Y-86181198D01*
X112853001Y-86204996D01*
X112829203Y-86233994D01*
X112829202Y-86233995D01*
X112758027Y-86320721D01*
X112687455Y-86452751D01*
X112669649Y-86511453D01*
X112643999Y-86596011D01*
X112636022Y-86676998D01*
X112629325Y-86744997D01*
X112633002Y-86782329D01*
X112633002Y-88147098D01*
X112479816Y-88108700D01*
X112197488Y-88094783D01*
X111917870Y-88136213D01*
X111708000Y-88211266D01*
X111708000Y-79724040D01*
X113416091Y-79724040D01*
X113510930Y-79988881D01*
X113655615Y-80230131D01*
X113844586Y-80438519D01*
X114070580Y-80606037D01*
X114324913Y-80726246D01*
X114458961Y-80766904D01*
X114681000Y-80644915D01*
X114681000Y-79502000D01*
X114935000Y-79502000D01*
X114935000Y-80644915D01*
X115157039Y-80766904D01*
X115291087Y-80726246D01*
X115545420Y-80606037D01*
X115771414Y-80438519D01*
X115960385Y-80230131D01*
X116078000Y-80034018D01*
X116195615Y-80230131D01*
X116384586Y-80438519D01*
X116610580Y-80606037D01*
X116864913Y-80726246D01*
X116998961Y-80766904D01*
X117221000Y-80644915D01*
X117221000Y-79502000D01*
X114935000Y-79502000D01*
X114681000Y-79502000D01*
X113537376Y-79502000D01*
X113416091Y-79724040D01*
X111708000Y-79724040D01*
X111708000Y-79025960D01*
X113416091Y-79025960D01*
X113537376Y-79248000D01*
X114681000Y-79248000D01*
X114681000Y-78105085D01*
X114935000Y-78105085D01*
X114935000Y-79248000D01*
X117221000Y-79248000D01*
X117221000Y-78105085D01*
X117475000Y-78105085D01*
X117475000Y-79248000D01*
X119761000Y-79248000D01*
X119761000Y-78105085D01*
X119538961Y-77983096D01*
X119404913Y-78023754D01*
X119150580Y-78143963D01*
X118924586Y-78311481D01*
X118735615Y-78519869D01*
X118618000Y-78715982D01*
X118500385Y-78519869D01*
X118311414Y-78311481D01*
X118085420Y-78143963D01*
X117831087Y-78023754D01*
X117697039Y-77983096D01*
X117475000Y-78105085D01*
X117221000Y-78105085D01*
X116998961Y-77983096D01*
X116864913Y-78023754D01*
X116610580Y-78143963D01*
X116384586Y-78311481D01*
X116195615Y-78519869D01*
X116078000Y-78715982D01*
X115960385Y-78519869D01*
X115771414Y-78311481D01*
X115545420Y-78143963D01*
X115291087Y-78023754D01*
X115157039Y-77983096D01*
X114935000Y-78105085D01*
X114681000Y-78105085D01*
X114458961Y-77983096D01*
X114324913Y-78023754D01*
X114070580Y-78143963D01*
X113844586Y-78311481D01*
X113655615Y-78519869D01*
X113510930Y-78761119D01*
X113416091Y-79025960D01*
X111708000Y-79025960D01*
X111708000Y-73735000D01*
X124296293Y-73735000D01*
X124166406Y-73864887D01*
G37*
X124166406Y-73864887D02*
X123874536Y-74301702D01*
X123673492Y-74787065D01*
X123571000Y-75302323D01*
X123571000Y-75827677D01*
X123673492Y-76342935D01*
X123874536Y-76828298D01*
X124166406Y-77265113D01*
X124537887Y-77636594D01*
X124974702Y-77928464D01*
X125002552Y-77940000D01*
X124826665Y-77940000D01*
X124549426Y-77995147D01*
X124288273Y-78103320D01*
X124053241Y-78260363D01*
X123853363Y-78460241D01*
X123698000Y-78692759D01*
X123542637Y-78460241D01*
X123342759Y-78260363D01*
X123107727Y-78103320D01*
X122846574Y-77995147D01*
X122569335Y-77940000D01*
X122286665Y-77940000D01*
X122009426Y-77995147D01*
X121748273Y-78103320D01*
X121513241Y-78260363D01*
X121313363Y-78460241D01*
X121156320Y-78695273D01*
X121151933Y-78705865D01*
X121040385Y-78519869D01*
X120851414Y-78311481D01*
X120625420Y-78143963D01*
X120371087Y-78023754D01*
X120237039Y-77983096D01*
X120015000Y-78105085D01*
X120015000Y-79248000D01*
X120035000Y-79248000D01*
X120035000Y-79502000D01*
X120015000Y-79502000D01*
X120015000Y-79522000D01*
X119761000Y-79522000D01*
X119761000Y-79502000D01*
X117475000Y-79502000D01*
X117475000Y-80644915D01*
X117697039Y-80766904D01*
X117831087Y-80726246D01*
X118085420Y-80606037D01*
X118311414Y-80438519D01*
X118500385Y-80230131D01*
X118618000Y-80034018D01*
X118735615Y-80230131D01*
X118781959Y-80281236D01*
X112881999Y-86181198D01*
X112853001Y-86204996D01*
X112829203Y-86233994D01*
X112829202Y-86233995D01*
X112758027Y-86320721D01*
X112687455Y-86452751D01*
X112669649Y-86511453D01*
X112643999Y-86596011D01*
X112636022Y-86676998D01*
X112629325Y-86744997D01*
X112633002Y-86782329D01*
X112633002Y-88147098D01*
X112479816Y-88108700D01*
X112197488Y-88094783D01*
X111917870Y-88136213D01*
X111708000Y-88211266D01*
X111708000Y-79724040D01*
X113416091Y-79724040D01*
X113510930Y-79988881D01*
X113655615Y-80230131D01*
X113844586Y-80438519D01*
X114070580Y-80606037D01*
X114324913Y-80726246D01*
X114458961Y-80766904D01*
X114681000Y-80644915D01*
X114681000Y-79502000D01*
X114935000Y-79502000D01*
X114935000Y-80644915D01*
X115157039Y-80766904D01*
X115291087Y-80726246D01*
X115545420Y-80606037D01*
X115771414Y-80438519D01*
X115960385Y-80230131D01*
X116078000Y-80034018D01*
X116195615Y-80230131D01*
X116384586Y-80438519D01*
X116610580Y-80606037D01*
X116864913Y-80726246D01*
X116998961Y-80766904D01*
X117221000Y-80644915D01*
X117221000Y-79502000D01*
X114935000Y-79502000D01*
X114681000Y-79502000D01*
X113537376Y-79502000D01*
X113416091Y-79724040D01*
X111708000Y-79724040D01*
X111708000Y-79025960D01*
X113416091Y-79025960D01*
X113537376Y-79248000D01*
X114681000Y-79248000D01*
X114681000Y-78105085D01*
X114935000Y-78105085D01*
X114935000Y-79248000D01*
X117221000Y-79248000D01*
X117221000Y-78105085D01*
X117475000Y-78105085D01*
X117475000Y-79248000D01*
X119761000Y-79248000D01*
X119761000Y-78105085D01*
X119538961Y-77983096D01*
X119404913Y-78023754D01*
X119150580Y-78143963D01*
X118924586Y-78311481D01*
X118735615Y-78519869D01*
X118618000Y-78715982D01*
X118500385Y-78519869D01*
X118311414Y-78311481D01*
X118085420Y-78143963D01*
X117831087Y-78023754D01*
X117697039Y-77983096D01*
X117475000Y-78105085D01*
X117221000Y-78105085D01*
X116998961Y-77983096D01*
X116864913Y-78023754D01*
X116610580Y-78143963D01*
X116384586Y-78311481D01*
X116195615Y-78519869D01*
X116078000Y-78715982D01*
X115960385Y-78519869D01*
X115771414Y-78311481D01*
X115545420Y-78143963D01*
X115291087Y-78023754D01*
X115157039Y-77983096D01*
X114935000Y-78105085D01*
X114681000Y-78105085D01*
X114458961Y-77983096D01*
X114324913Y-78023754D01*
X114070580Y-78143963D01*
X113844586Y-78311481D01*
X113655615Y-78519869D01*
X113510930Y-78761119D01*
X113416091Y-79025960D01*
X111708000Y-79025960D01*
X111708000Y-73735000D01*
X124296293Y-73735000D01*
X124166406Y-73864887D01*
G36*
X142875000Y-79248000D02*
G01*
X145161000Y-79248000D01*
X145161000Y-79228000D01*
X145415000Y-79228000D01*
X145415000Y-79248000D01*
X147701000Y-79248000D01*
X147701000Y-79228000D01*
X147955000Y-79228000D01*
X147955000Y-79248000D01*
X147975000Y-79248000D01*
X147975000Y-79502000D01*
X147955000Y-79502000D01*
X147955000Y-79522000D01*
X147701000Y-79522000D01*
X147701000Y-79502000D01*
X145415000Y-79502000D01*
X145415000Y-80644915D01*
X145637039Y-80766904D01*
X145771087Y-80726246D01*
X146025420Y-80606037D01*
X146251414Y-80438519D01*
X146440385Y-80230131D01*
X146558000Y-80034018D01*
X146675615Y-80230131D01*
X146864586Y-80438519D01*
X147090580Y-80606037D01*
X147319136Y-80714063D01*
X143652002Y-84381197D01*
X143622998Y-84405000D01*
X143581986Y-84454974D01*
X143528025Y-84520725D01*
X143502220Y-84569003D01*
X143457453Y-84652755D01*
X143413996Y-84796016D01*
X143402999Y-84907669D01*
X143402999Y-84907679D01*
X143399323Y-84945001D01*
X143402999Y-84982324D01*
X143402999Y-85713077D01*
X143166574Y-85615147D01*
X142889335Y-85560000D01*
X142606665Y-85560000D01*
X142382999Y-85604491D01*
X142382999Y-80762063D01*
X142398961Y-80766904D01*
X142621000Y-80644915D01*
X142621000Y-79502000D01*
X142875000Y-79502000D01*
X142875000Y-80644915D01*
X143097039Y-80766904D01*
X143231087Y-80726246D01*
X143485420Y-80606037D01*
X143711414Y-80438519D01*
X143900385Y-80230131D01*
X144018000Y-80034018D01*
X144135615Y-80230131D01*
X144324586Y-80438519D01*
X144550580Y-80606037D01*
X144804913Y-80726246D01*
X144938961Y-80766904D01*
X145161000Y-80644915D01*
X145161000Y-79502000D01*
X142875000Y-79502000D01*
X142621000Y-79502000D01*
X142601000Y-79502000D01*
X142601000Y-79248000D01*
X142621000Y-79248000D01*
X142621000Y-79228000D01*
X142875000Y-79228000D01*
X142875000Y-79248000D01*
G37*
X142875000Y-79248000D02*
X145161000Y-79248000D01*
X145161000Y-79228000D01*
X145415000Y-79228000D01*
X145415000Y-79248000D01*
X147701000Y-79248000D01*
X147701000Y-79228000D01*
X147955000Y-79228000D01*
X147955000Y-79248000D01*
X147975000Y-79248000D01*
X147975000Y-79502000D01*
X147955000Y-79502000D01*
X147955000Y-79522000D01*
X147701000Y-79522000D01*
X147701000Y-79502000D01*
X145415000Y-79502000D01*
X145415000Y-80644915D01*
X145637039Y-80766904D01*
X145771087Y-80726246D01*
X146025420Y-80606037D01*
X146251414Y-80438519D01*
X146440385Y-80230131D01*
X146558000Y-80034018D01*
X146675615Y-80230131D01*
X146864586Y-80438519D01*
X147090580Y-80606037D01*
X147319136Y-80714063D01*
X143652002Y-84381197D01*
X143622998Y-84405000D01*
X143581986Y-84454974D01*
X143528025Y-84520725D01*
X143502220Y-84569003D01*
X143457453Y-84652755D01*
X143413996Y-84796016D01*
X143402999Y-84907669D01*
X143402999Y-84907679D01*
X143399323Y-84945001D01*
X143402999Y-84982324D01*
X143402999Y-85713077D01*
X143166574Y-85615147D01*
X142889335Y-85560000D01*
X142606665Y-85560000D01*
X142382999Y-85604491D01*
X142382999Y-80762063D01*
X142398961Y-80766904D01*
X142621000Y-80644915D01*
X142621000Y-79502000D01*
X142875000Y-79502000D01*
X142875000Y-80644915D01*
X143097039Y-80766904D01*
X143231087Y-80726246D01*
X143485420Y-80606037D01*
X143711414Y-80438519D01*
X143900385Y-80230131D01*
X144018000Y-80034018D01*
X144135615Y-80230131D01*
X144324586Y-80438519D01*
X144550580Y-80606037D01*
X144804913Y-80726246D01*
X144938961Y-80766904D01*
X145161000Y-80644915D01*
X145161000Y-79502000D01*
X142875000Y-79502000D01*
X142621000Y-79502000D01*
X142601000Y-79502000D01*
X142601000Y-79248000D01*
X142621000Y-79248000D01*
X142621000Y-79228000D01*
X142875000Y-79228000D01*
X142875000Y-79248000D01*
G36*
X137541000Y-75438000D02*
G01*
X137561000Y-75438000D01*
X137561000Y-75692000D01*
X137541000Y-75692000D01*
X137541000Y-75712000D01*
X137287000Y-75712000D01*
X137287000Y-75692000D01*
X137267000Y-75692000D01*
X137267000Y-75438000D01*
X137287000Y-75438000D01*
X137287000Y-75418000D01*
X137541000Y-75418000D01*
X137541000Y-75438000D01*
G37*
X137541000Y-75438000D02*
X137561000Y-75438000D01*
X137561000Y-75692000D01*
X137541000Y-75692000D01*
X137541000Y-75712000D01*
X137287000Y-75712000D01*
X137287000Y-75692000D01*
X137267000Y-75692000D01*
X137267000Y-75438000D01*
X137287000Y-75438000D01*
X137287000Y-75418000D01*
X137541000Y-75418000D01*
X137541000Y-75438000D01*
%TD*%
M02*
